<svg id="Layer_1" data-name="Layer 1" xmlns="http://www.w3.org/2000/svg" xmlns:xlink="http://www.w3.org/1999/xlink" viewBox="0 0 236.51848 255.63519"><defs><style>.cls-1{fill:none;}.cls-2{clip-path:url(#clip-path);}.cls-3{fill:#fffffe;}.cls-3,.cls-4,.cls-5,.cls-6,.cls-7,.cls-8,.cls-9{fill-rule:evenodd;}.cls-4{fill:#cbccc8;}.cls-5{fill:#8b9193;}.cls-6{fill:#b9bcbb;}.cls-7{fill:#989d9e;}.cls-8{fill:#fff;}.cls-9{fill:#1a1919;}</style><clipPath id="clip-path"><rect class="cls-1" width="236.82394" height="255.80607"/></clipPath></defs><title>2020 Stanley Cup playoffs logo</title><g class="cls-2"><path class="cls-3" d="M101.06055,10.61187a8.119,8.119,0,0,1,1.67584-.743l-.216-2.44151c-.6011.07412-1.17056.15191-1.712.23146l.2531,2.95215m24.60346,1.06385a8.01312,8.01312,0,0,1,5.78141-2.20549,9.27333,9.27333,0,0,1,1.45167.11389c.00272-.76474-.01809-1.54478-.07052-2.3285a140.37373,140.37373,0,0,0-14.38747-.64q-1.11588,0-2.173.01177-.13977,1.39173-.15185,2.79038A12.519,12.519,0,0,1,118.44,9.20267a11.00208,11.00208,0,0,1,7.22491,2.47217m11.85478.27484a4.35731,4.35731,0,0,1,2.96661-1.41281c.03165-.40946.0886-1.14524.13558-1.98858q-1.93758-.48693-3.9121-.79092c.02349,1.72646,0,2.90781-.01447,3.44925a7.59894,7.59894,0,0,1,.82436.74217m-4.75725-5.50394q-.06537-.68389-.16813-1.3631c-3.659-.37057-8.30332-.61467-14.15521-.61467-.64,0-1.26367.00367-1.87653.009-.07864.45108-.14824.90033-.20519,1.34773.67614-.0072,1.37034-.009,2.08262-.009a141.06233,141.06233,0,0,1,14.32242.63093m7.90016,1.31251c.02079-.44476.03525-.89937.04248-1.336-1.091-.28477-2.42609-.56409-4.04138-.82077.01448.47549.02623.92738.03435,1.35134,1.58.25131,2.8898.52519,3.96455.8054M102.45076,6.63374l-.1184-1.33053c-.5993.075-1.166.15367-1.70478.235l.11209,1.32877q.85429-.12585,1.71109-.23323m23.38048,27.64242q-.91492-.15286-1.83764-.24852V34.57c.68968.075,1.29982.16,1.83764.24675v-.54056m-12.89967.28925q.82707-.084,1.80691-.14911v-.53961c-.64177.03882-1.24739.08853-1.80781.14728v.5424m-7.46,60.72907q1.2935.02161,2.671.03978c-.245-4.845,1.9886-7.2132,2.95487-8.00324q-1.32064-.00773-2.64122-.02081c-.9491.76563-3.2179,3.12126-2.9847,7.98427M132.823,87.256c3.23781.70871,10.987,2.74612,10.987,6.01193,0,1.95969-2.57249,1.61345-25.38625,2.78766,0,0,22.28224.25308,37.82133-1.13443a1.62574,1.62574,0,0,0-.87226-1.03407c-3.07872.28116-6.57775.56042-6.57775.56042.72043-4.80515-7.5928-6.66088-11.7291-7.28364-1.21485.03338-2.62133.06411-4.243.0922m4.97783-1.68676c.56945-3.621-5.31318-3.84608-2.088-6.358-.88221-.01721-1.89911-.03353-3.05972-.04978-3.05523,3.44845,2.4541,3.06427,1.47337,6.50456,1.38025-.03074,2.59964-.06331,3.67439-.09676M112.15331,79.092c-.72313.00272-1.41733.0072-2.08622.01169,1.69573,3.076-1.66139,2.89523-1.25914,6.66l2.09436.02081c-.4167-3.79005,2.96481-3.59844,1.251-6.69249m-.24316-7.80259q-1.0413.00276-2.03921.00816v6.41868q.99114-.00684,2.03921-.01176V71.2894m22.40156.04882c-1.13532-.009-2.39267-.01625-3.7431-.02345V77.746c1.3676.01088,2.61773.02625,3.74218.04066V71.33822M112.93248,63.3838q-.9979.02714-1.95605.057c1.561,2.97111-1.2944,3.15647-1.07476,6.75947.63907-.00912,1.30253-.01449,1.98407-.02081-.2106-3.60572,2.66834-3.77564,1.04674-6.79565m17.65965,6.86881c1.37758.02537,2.62947.05242,3.74218.08044-.14011-3.89578-5.13508-3.93652-1.62882-6.584q-1.61932-.09386-3.23964-.16808c-3.48726,2.4315.98527,2.74789,1.12628,6.67168m2.36825-15.20284c-.98527-.0497-2.11336-.09757-3.40595-.1419v7.23129c1.31428.03889,2.44147.08131,3.40595.1247V55.04977M110.698,62.06592c.63635-.01081,1.30254-.019,2.00578-.028V54.78405c-.69872.00992-1.36491.02169-2.00578.03529v7.24658m2.0374-7.986a8.81633,8.81633,0,0,1,.875-2.445c-.71138.00993-1.38118.02169-2.01572.03618a8.642,8.642,0,0,0-.86143,2.44687c.63725-.01536,1.30343-.028,2.00215-.038m16.68345.13558c1.31878.04978,2.464.10492,3.45563.16455a5.02111,5.02111,0,0,0-2.64482-2.52915q-1.66144-.088-3.32457-.13558a4.426,4.426,0,0,1,2.51378,2.50018m.432-8.68019q-1.58712-.16455-3.18-.25947v5.50305c1.21123.04515,2.26519.09581,3.18.15367V45.53528M111.52781,50.7382q1.03995-.02856,2.21818-.04977V45.76218a1.27138,1.27138,0,0,1,.19164-.65085q-1.12537.03121-2.13955.07955a1.28926,1.28926,0,0,0-.27027.76835v4.779m2.21546-7.84052q-1.08873.03254-2.04914.08044v1.401c.64178-.0325,1.326-.06052,2.04914-.08228v-1.3992m16.10766,1.83764v-1.3984c-.90119-.10389-1.95245-.19881-3.18-.27748v1.402q1.593.10169,3.18.27389m42.07422,156.37523L183.20591,148.937h-1.95968l-11.194,51.77043c-.8316,3.84431-5.07093,8.85651-8.72633,10.31358L118.44,228.113l-42.88683-17.0929c-3.65359-1.45618-7.89474-6.46838-8.72543-10.31357L55.63374,148.937H53.67317l11.28077,52.17541c.95995,4.43818,5.67292,10.009,9.89057,11.69021l43.5955,17.3731,43.59638-17.3731c4.21492-1.68125,8.93063-7.252,9.88876-11.69021"/><path class="cls-3" d="M117.44931,21.25631a.82812.82812,0,1,0-1.65417.05691c0,2.82384-1.684,4.00254-3.67166,7.99508,2.79125-4.591,5.32583-5.57526,5.32583-8.052m-4.37853-.70328a.93846.93846,0,0,0-.8768-.93459c-1.853,0-.10846,3.18809-2.57342,8.53741a16.13074,16.13074,0,0,0,2.813-6.2442c.10395-.61556.63726-.78372.63726-1.35862m-5.34933-2.67377a.62953.62953,0,0,0-.6472.64181c0,.43932,1.26276,1.42817-.44112,8.325,1.42547-2.17027,2.53367-8.9668,1.08832-8.9668m-4.02059,8.00052c.82979-4.48789,1.51857-9.55067.24767-9.55067a.61807.61807,0,0,0-.66888.55586c0,.9112,1.24468,1.421.42122,8.99481m-2.64574-1.74992c.687-2.2535,1.29258-6.18274-.07233-6.18274a.71177.71177,0,0,0-.72312.72762c0,.75026,1.13892,1.08105.79544,5.45512M98.3,20.28915a.55725.55725,0,0,0-.55138.55314c0,.48725,1.18683,1.00061,1.23112,4.39752.11751-2.20821.2287-4.95066-.67974-4.95066m-1.9199,1.27626c-.8569,0,.44472,1.18414.54235,3.19082,0,0,.10575-3.19082-.54235-3.19082m22.87249-.06235c1.60894,0,.40043-2.28871,2.29955-2.28871,1.37121,0,.94187,1.44265,2.051,1.44265,1.59992,0,.61464-3.47911,2.50564-3.47911,1.19316,0,.818,1.17774,1.9425,1.17774,1.4824,0,.48538-3.08412,2.12419-3.08412,1.69845,0,.56493,2.41974,1.891,2.56981a46.10654,46.10654,0,0,0,.82439-7.60362,8.59735,8.59735,0,0,0-1.44446-.11934,7.05662,7.05662,0,0,0-5.74163,2.48842,9.94593,9.94593,0,0,0-7.26561-2.75421,11.76274,11.76274,0,0,0-2.32486.226,38.33142,38.33142,0,0,0,1.58364,10.37864c.3236.46549.54868,1.04583,1.55293,1.04583m-17.67412-4.86573c.06327.74666.282,1.68125.8081,1.68125.72764,0,.22146-1.63066.9039-2.21453l-.49263-5.56541a7.412,7.412,0,0,0-1.67222.80092l.45285,5.29689m34.58622,3.52344c1.53666,0,.4375,1.84212,1.13532,1.84212.41128,0,.21694-1.03951,1.016-1.16149.43658-.94915,1.5285-3.89137,1.56645-9.56875a4.19562,4.19562,0,0,0-2.35557,1.69565,5.95457,5.95457,0,0,0-1.25823-1.26906,23.21629,23.21629,0,0,1-1.552,8.92607.84735.84735,0,0,0,.32267.057c.46463,0,.348-.52152,1.12537-.52152"/><path class="cls-3" d="M115.1,39.32725a4.793,4.793,0,0,0,.14283-2.51194c-.6255.03794-1.21937.08308-1.77076.131a4.55757,4.55757,0,0,1-.35705,2.502h.07684a1.21656,1.21656,0,0,1,1.6659-.10845l.24224-.01265m12.0012.31094a2.80111,2.80111,0,0,1-.94187-2.39084q-.91-.12-1.82319-.2133a3.07188,3.07188,0,0,0,.55139,2.25975,1.49561,1.49561,0,0,1,1.39563.43932l.47728.06051a.73512.73512,0,0,1,.34076-.15544m-.43026,2.45048v.33447c1.21848.09581,2.27422.20514,3.18.319v-.34888l-1.27634-.14014a1.00026,1.00026,0,0,1-1.02953-.09757l-.87408-.06691m-14.97685.23227c.64358-.03706,1.32784-.07044,2.04914-.09852V41.992a1.37866,1.37866,0,0,1-.39047-.10036l-1.65867.10036v.32992m26.52881-15.73613a11.42246,11.42246,0,0,0,3.38514-4.95161.49428.49428,0,1,0-.98165-.08139,11.16,11.16,0,0,1-2.40441,5.033m-.30732-4.84948a10.77186,10.77186,0,0,1-3.95008,6.21891A11.98354,11.98354,0,0,0,139.022,22.04c.19885-.536-.94639-1.10907-1.1073-.30366m-2.31039-.58034c-.72041,3.32367-4.00341,6.15384-4.00341,6.15384s2.91871-1.50861,5.03295-5.98025c.27117-.5749-.81533-1.16428-1.02954-.17359M127.781,27.364s4.86123-2.20909,6.49007-9.35c.151-.66343-1.09464-.88945-1.16153,0-.51523,5.79951-5.32854,9.35-5.32854,9.35m1.67946-10.69774a13.10267,13.10267,0,0,1-5.24266,10.31092c3.556-1.34052,6.69344-7.52686,6.69344-10.5215,0-.9943-1.45078-1.04223-1.45078.21058m-4.045,1.85212c0,4.89014-2.61321,5.52651-6.12669,9.238,3.40231-2.62584,7.58289-4.54575,7.58289-9.238a.72831.72831,0,1,0-1.4553,0m-4.69217,2.09439c-.50982,4.32245-2.40442,2.54716-4.69672,7.38216,2.13955-3.602,4.37943-2.02836,5.89258-7.59186.13648-.55144-1.04313-1.09289-1.19586.2097"/><path class="cls-3" d="M174.26264,121.63439a30.3257,30.3257,0,0,0,8.82667-1.12539l-.64179-4.54208a20.87527,20.87527,0,0,1-6.359.85055c-8.22556,0-8.84927-5.15226-8.21834-7.60906.95725-3.74218,4.10285-7.6073,11.49411-7.6073a19.70641,19.70641,0,0,1,5.42164.64357l2.54358-4.37855a21.22492,21.22492,0,0,0-7.29542-1.08466c-13.04069,0-18.5952,6.34-20.15175,12.42694-1.35946,5.30593,2.20915,12.426,14.38119,12.426Zm-7.6787-10.38137c.11571,2.99464,2.10432,6.641,9.23072,6.641a23.84873,23.84873,0,0,0,5.65758-.62828c.11389.80452.226,1.59728.35974,2.531a32.99653,32.99653,0,0,1-7.29364.76107c-9.40428,0-13.66438-4.459-13.828-9.07157,1.69211-.03346,3.63642-.10853,5.87359-.23323Zm27.96152,8.3991c5.95856,0,11.14337-1.392,12.66917-7.35054l3.04889-11.91086h-6.754l-3.04979,11.91086c-.56855,2.22717-2.54449,2.88972-4.77263,2.88972s-3.86239-.66255-3.29384-2.88972l3.04979-11.91086h-6.754l-3.04977,11.91086c-1.524,5.95855,2.94852,7.35054,8.90621,7.35054Zm-7.82966-7.35054.79-3.09325q2.29956-.29148,4.76181-.61732c-.52156,2.04285-.94913,3.71057-.94913,3.71057-.37964,1.48236-.3498,3.96629,4.092,3.96629,3.31373,0,5.47767-1.42994,6.12761-3.96629,0-.00456.61916-2.42886,1.28174-5.01492q2.43243-.2305,4.70392-.39682l-1.38569,5.41174c-1.12627,4.39752-4.51051,6.27309-11.31783,6.27309-6.80644,0-9.23072-1.87557-8.10445-6.27309Zm-147.89385-7.45-3.71507,14.514h6.754l3.71507-14.514h6.0128l2.26881-4.46083H33.95079l-2.26971,4.46083ZM41.06,118.29086h-4.6009c.22327-.87408,1.06661-4.17334,1.8946-7.40576q2.23581.00275,4.60811-.02618ZM52.819,119.36559l2.399-4.3695h6.35629l.34258,4.3695H69.168l-2.77047-18.97487H57.69555L45.35087,119.36559Zm7.95982-14.49507.48178,6.13479H57.40991l3.36886-6.13479Zm-4.16521,5.54364-.91566,1.66772h6.782l-.15637-1.98675q2.10836-.12748,4.289-.27756c.53151,3.62925,1.06932,7.309,1.23836,8.47329H62.96716c-.08135-1.01782-.34439-4.37134-.34439-4.37134H54.68644l-2.399,4.37134H47.20932l4.9968-7.68325C53.64152,110.55158,55.114,110.48739,56.61357,110.41416Zm86.86106-3.094-2.94672-6.92931H115.60172a4.45059,4.45059,0,0,1,1.14436,4.46075l-3.71507,14.514h16.86514l2.60776-4.459H120.92667l.67973-2.653h9.096l1.14072-4.46076h-9.09692l.75476-2.94133h9.65465l.98887-3.8624,4.86392,10.761-1.94791,7.61546h6.75219l1.947-7.60818,11.49137-11.36669h-7.17884l-6.59852,6.92939Zm-12.98191,1.54927-.59117,2.30769h-9.096l-1.22932,4.8061h11.16689c-.58571.9979-.97621,1.6686-1.35134,2.30769H114.38235c.37512-1.45986,2.31039-9.02554,3.10223-12.11959q2.34291.04609,4.56924.131l-.658,2.56709Zm14.28444,2.52827s-1.35946,5.30593-1.76354,6.89321h-4.60268l1.7599-6.88329s-.73035-1.61889-1.61255-3.56954q2.19105.33759,4.12724.68695l.29285.69152s.19527-.20249.51524-.53961q1.80465.34983,3.33813.68695c-1.21305,1.19951-2.05457,2.03381-2.05457,2.03381Zm-34.457,7.96794,2.60958-4.459H102.19224l3.716-14.51676h-6.754l-4.85669,18.97575Zm-7.05771-12.84993-2.42067,9.46751h10.32444c-.58483.9979-.97623,1.6686-1.34864,2.30769H95.64975l2.926-11.4372q2.37952-.19653,4.68677-.338ZM69.76,119.36559h6.7522L79.49872,107.698l4.59367,11.66763H91.396l4.85941-18.97487H89.49956l-2.70721,10.57937-4.1652-10.57937H72.32983a4.45013,4.45013,0,0,1,1.14525,4.46083Zm14.69754-11.06471,2.48034,6.30111,1.72285-6.7269c1.55924-.16272,3.13295-.33168,4.73106-.50616-1.13351,4.42554-2.51287,9.81735-2.794,10.92193H84.9529L81.14383,108.619q1.6406-.15594,3.31372-.31814Zm-6.34181.59659-2.40349,9.39339H71.11136l2.30136-8.98937q2.352-.19554,4.703-.404Zm144.412-8.50667h-9.56425l-4.85669,18.97479h6.75581l1.59359-6.23243h2.81115c5.28063,0,10.19428-2.46313,11.1949-6.37163,1.00063-3.90761-2.653-6.37073-7.93451-6.37073Zm-3.95188,4.46075h3.71055a1.43317,1.43317,0,0,1,1.42,1.90991,2.63155,2.63155,0,0,1-2.399,1.91087H217.5969l.97892-3.82078Zm.9672,7.20592h-3.88683s-1.22027,4.76-1.59629,6.23339h-4.60271l2.9856-11.66314q2.41753-.07865,4.62078-.07772l-.819,3.19978h4.78712a4.121,4.121,0,0,0,3.71507-2.87259q2.3931.23051,4.41739.53961c-1.28175,3.0489-5.67927,4.63979-9.6212,4.63979Zm-110.69171-70.983c.45195.13558.32089-.85327.66528-1.22656-1.04853-.19889-1.26095,1.04856-.66528,1.22656m-2.25344.09492c.38417.13831.44382-.77459.73126-1.1009-.86052-.14463-1.19316.931-.73035,1.1009m4.65694-.2205c.57578.13463.35522-.98709.61917-1.35589-1.00154-.527-1.21033,1.21935-.61917,1.35589m2.77048.05691c.67249-.02618.01807-1.0576.2567-1.50949-1.02684-.76563-1.12267,1.54294-.2567,1.50949m-10.705.57218c.2332.1211.32812-.58931.56584-.83342-.56042.02713-.72222.75475-.56584.83342m1.39834-.2522c.35251.2025.38868-.6318.77646-.98885-.87046-.00184-1.01057.85327-.77646.98885m24.00961.24316c.75114-.18529-.09582-1.63787-.56314-1.66949-.4429-.03617-.16453,1.84573.56314,1.66949m2.12781.188c.75114-.18345-.11028-1.5475-.57579-1.57912-.395-.02081-.15005,1.75632.57579,1.57912m3.71687.57762c.33805-.25219-.254-1.073-.4863-1.02686-.09129.0922.15637,1.27178.4863,1.02686m-.72947-.18168c.36336-.189-.35252-1.22936-.63-1.2709-.27479-.0425.24767,1.46883.63,1.2709m-16.725-1.24921c.75295-.2269-.16-1.25376,0-1.66683-1.30344-.70144-1.00694,1.97049,0,1.66683m3.55506-.00184c.82258,0,.31639-1.78161-.62912-1.78161-.46822,0-.28925,1.78073.62912,1.78073m2.46314-1.57368c-.6689-.0208-.40584,1.78338.51162,1.78338.82437-.00088.05965-1.76713-.51162-1.78338m9.50913,2.66473c.52066-.27123-.42845-1.52309-.77555-1.48787-.23233.03529.27386,1.7536.77555,1.48787M125.69114,39.555c-.5541.06683-.292,1.61257.499,1.64691.77284.03345.05515-1.71742-.499-1.64691"/><path class="cls-3" d="M194.61143,129.59329a12.94087,12.94087,0,0,1,4.77356.86055l2.19649-4.31436a16.8617,16.8617,0,0,0-6.369-1.0079c-5.92964,0-10.08943,2.03925-10.88577,5.14594-1.64963,6.44309,9.39161,6.67808,8.88362,8.6685-.19165.74306-1.64875,1.27362-3.61022,1.27362a15.43531,15.43531,0,0,1-6.312-1.2781l-2.314,4.26554s2.47851,1.47332,8.03213,1.47332c5.55723,0,9.96106-1.8458,10.86859-5.39454,1.58-6.16641-9.379-6.716-8.899-8.60159.11659-.44741,1.336-1.091,3.63551-1.091Zm-.0922,4.49421c2.4505,1.03951,4.96968,2.512,4.28089,5.19844-.81351,3.18264-5.45056,4.318-9.51633,4.318a19.32869,19.32869,0,0,1-6.84259-1.03591l1.204-2.22a17.219,17.219,0,0,0,5.67924.94819c2.68824,0,4.59007-.90121,4.96068-2.35019.55409-2.16122-3.73678-2.73612-6.5913-4.33333,2.46766-.16448,4.7419-.34344,6.8254-.52424Zm-60.44886-8.95592c-9.69169,0-13.61648,4.37583-14.99765,9.774-1.383,5.39909.30372,9.77485,9.99453,9.77485,9.69171,0,13.61646-4.37583,14.99765-9.77485C145.44787,129.50741,143.76208,125.13158,134.07037,125.13158Zm-7.59916,9.774c.75114-2.93406,2.5472-5.31314,6.45664-5.31314,3.91392,0,4.4897,2.37908,3.73854,5.31314-.75112,2.935-2.54538,5.31409-6.4566,5.31409C126.29767,140.21964,125.72189,137.84056,126.47121,134.90555Zm2.87173,8.69835c-10.23676,0-10.15089-4.96426-9.19547-8.69835.09311-.367.20248-.74659.33264-1.12988q2.60733.179,5.14594.34712c-.08314.25219-.1609.51343-.22959.78276-1.054,4.12091.5559,6.39066,4.53763,6.39066,3.97989,0,6.75219-2.26975,7.80705-6.39066.01173-.04338.019-.084.02891-.12654q2.6385.11393,5.19747.21153c-.97169,3.725-3.46468,8.61336-13.6246,8.61336Zm-94.735.79092h6.7522l1.59629-6.23516h2.81116c5.28063,0,10.19428-2.46136,11.1949-6.37074.99883-3.90761-2.65205-6.37169-7.9345-6.37169H37.17774a4.45557,4.45557,0,0,1,1.14525,4.46083l-3.71506,14.51676Zm10.46726-14.51676h3.71053a1.43311,1.43311,0,0,1,1.421,1.91086,2.63035,2.63035,0,0,1-2.399,1.9108H44.09716Zm-6.21256,2.09887q2.23987-.15727,4.67681-.3019l-.79453,3.10038H47.532a4.12131,4.12131,0,0,0,3.75212-2.98649,2.961,2.961,0,0,0,.07774-.461q2.315-.0771,4.63071-.1311a4.02452,4.02452,0,0,1-.10846.5921c-.88764,3.47551-5.62322,5.29506-9.84175,5.29506H42.15556s-1.21936,4.76184-1.5954,6.23515H35.95928c.34529-1.35045,2.02384-7.9128,2.90335-11.34227Zm124.25844,12.417h6.75311l1.82045-7.112h4.23212l3.80365-4.46171h-6.89411l.75386-2.94221h6.99354l3.80365-4.46083H165.6918a4.45706,4.45706,0,0,1,1.14616,4.46083l-3.716,14.51676Zm13.3688-9.24164-.89667,1.05216h-4.69763s-1.42363,5.56452-1.82227,7.11467h-4.6009c.2495-.97892,1.20039-4.69214,2.03833-7.96794q5.277-.05415,9.97914-.19889Zm-32.26318,9.24164h6.75309l1.82137-7.112h4.23119l3.80547-4.46171h-6.89412l.75206-2.94221h6.99535l3.80183-4.46083H146.7965a4.45642,4.45642,0,0,1,1.147,4.46083l-3.71687,14.51676Zm13.20789-9.05356-.73758.86408h-4.69669l-1.81957,7.11467H145.578c.2549-.99877,1.24107-4.84492,2.09074-8.16948q5.06552.1329,9.76582.19073ZM109.174,132.3475l-2.94675-6.93027H99.57271l5.13511,11.36029-1.94793,7.61642h6.7522l1.947-7.60914,11.49138-11.36757h-7.17794L109.174,132.3475Zm1.30162,4.07665s-1.35857,5.3077-1.76351,6.895h-4.6018l1.76262-6.88505-1.76082-3.89225q1.96329.1329,3.96364.28381l.60382,1.4192,1.21756-1.27906,3.77472.29653-3.19531,3.16184Zm-23.2693-11.00692L74.86528,144.39394h7.4663l2.39806-4.37135h6.35628l.34348,4.37135h7.25116l-2.77139-18.97671Zm3.56591,10.61643H86.92161l3.368-6.1348.48267,6.1348Zm1.70658,7.28547-.34347-4.37311H84.19905l-2.399,4.37311H76.72192l7.69859-11.83938q1.87517.06915,3.79369.1555l-3.00457,5.475h6.782l-.4167-5.31866q2.04328.10313,4.13719.21881c.63274,4.33245,1.43722,9.83544,1.65145,11.30875H92.47884Zm-31.31409-17.9019-4.8576,18.97671H72.33164L74.9394,139.934H64.20188l3.716-14.51676h-6.7531ZM73.17769,141.0088l-1.35044,2.31033H57.6594c.31094-1.21119,1.9434-7.59914,3.11938-12.19371q2.25615-.02172,4.609-.02713-1.26942,4.95552-2.53637,9.91139H73.17769ZM30.40205,115.04219c2.09526-8.18853-11.79962-7.9056-10.85865-11.58448.2775-1.07568,2.09707-1.85484,4.7898-1.85484a15.064,15.064,0,0,1,5.95767,1.11l2.3836-4.62531A20.09243,20.09243,0,0,0,24.975,96.78324c-8.26353,0-12.27869,3.3336-13.02441,6.25052-2.10882,8.23639,11.8412,7.5865,10.80351,11.63962-.36518,1.42817-2.56891,2.14226-4.8558,2.14226a18.35035,18.35035,0,0,1-7.72841-1.5728l-2.52914,4.53582s3.01183,1.85573,9.58505,1.85573,12.07079-2.27872,13.17627-6.5922Zm-19.89683,1.61345a20.33861,20.33861,0,0,0,7.11737,1.23656c3.27035,0,5.70728-1.26273,6.20714-3.21882.60743-2.3718-1.91629-3.45558-4.6958-4.61354,2.70359.25315,5.70276.47093,9.02733.6346a4.20539,4.20539,0,0,1,1.16423,4.34775c-1.04311,4.07121-7.02065,5.51563-11.82312,5.51563a21.86043,21.86043,0,0,1-8.3955-1.39288Z"/><path class="cls-4" d="M141.63065,159.3409l1.63608-3.71144-3.847-1.1362a5.57189,5.57189,0,0,1-3.62287-3.75667l-1.69483-4.64332-3.78014,3.13023a6.62125,6.62125,0,0,1-4.17244,1.702,7.85969,7.85969,0,0,1-5.27521-2.2471L118.44,146.2704l-2.43334,2.40805a7.86936,7.86936,0,0,1-5.2761,2.2471,6.62318,6.62318,0,0,1-4.17334-1.70213l-3.77834-3.13015-1.69663,4.64332a5.56871,5.56871,0,0,1-3.62468,3.75667l-3.84432,1.1362,1.63606,3.71144a16.80371,16.80371,0,0,1,1.44626,6.76484c0,6.33913-3.10944,7.59826-3.10944,14.25377,0,8.90709,6.63288,15.3068,13.97623,17.195,3.62919.91746,5.3195,1.00782,8.02489,1.76529.35251.36881,2.85275,3.07148,2.85275,3.07148s2.49928-2.70267,2.85272-3.07148c2.7054-.75747,4.39572-.84783,8.0258-1.76529,7.34156-1.88918,13.97443-8.28793,13.97443-17.195,0-6.65551-3.10943-7.91464-3.10943-14.25465a16.78751,16.78751,0,0,1,1.44714-6.764Zm-.08586,21.01861a16.21927,16.21927,0,0,1-12.66194,15.48032c-3.88863.98165-6.57141,1.232-8.54735,1.94344-.25221.23675-1.89549,2.01932-1.89549,2.01932s-1.64421-1.78257-1.89642-2.01844c-1.975-.71232-4.65785-.96267-8.54645-1.94432a16.21916,16.21916,0,0,1-12.66286-15.48032c0-5.94135,3.104-7.77722,3.104-14.2673a21.18279,21.18279,0,0,0-2.41524-9.32832s5.93416-.51887,7.54131-7.73384c0,0,3.55868,3.66535,7.16618,3.66535,4.6497,0,7.70945-3.952,7.70945-3.952s3.05972,3.952,7.70943,3.952c3.60478,0,7.16528-3.66535,7.16528-3.66535,1.60715,7.215,7.5422,7.73288,7.5422,7.73288a21.20132,21.20132,0,0,0-2.41342,9.32928c0,6.49,3.10129,8.32588,3.10129,14.2673Z"/><path class="cls-4" d="M138.4471,157.8956s-4.03868-.81621-5.92061-5.92789a10.27579,10.27579,0,0,1-6.377,2.50121,11.51274,11.51274,0,0,1-7.71034-3.25323,11.50565,11.50565,0,0,1-7.70852,3.25323,10.27359,10.27359,0,0,1-6.378-2.50121c-1.88194,5.11168-5.9206,5.92789-5.9206,5.92789a20.49511,20.49511,0,0,1,1.75086,8.19661c0,6.86969-3.10492,8.85563-3.10492,14.2673,0,7.55936,5.89348,12.37451,11.35488,13.762,4.32793,1.09825,7.15444,1.22391,9.05446,2.14137,0,0,.68967.63.95273.922.26211-.29205.9518-.922.9518-.922,1.90091-.91746,4.72835-1.04312,9.05444-2.14226,5.46323-1.38662,11.35579-6.20082,11.35579-13.76113,0-5.41167-3.1049-7.39665-3.1049-14.2673a20.50369,20.50369,0,0,1,1.75-8.19661Zm-36.28288,8.19661a22.84458,22.84458,0,0,0-1.18231-7.11372,11.04867,11.04867,0,0,0,4.15075-4.06577,11.56075,11.56075,0,0,0,5.59791,1.54023A13.15382,13.15382,0,0,0,118.44,153.8063a13.15781,13.15781,0,0,0,7.70943,2.64665,10.52793,10.52793,0,0,0,1.59267-.12654L99.41816,177.59985c.81532-3.20162,2.74607-5.85186,2.74607-11.50675Zm3.85969,25.0021a12.17157,12.17157,0,0,1-6.95738-10.34879l33.24936-24.97137a10.87344,10.87344,0,0,0,3.58309,3.20434,22.8307,22.8307,0,0,0-1.18592,7.11372,21.54156,21.54156,0,0,0,.23953,3.27486l-28.92867,21.72724Zm31.795-10.7348c0,6.415-5.1125,10.63-9.86162,11.83938-3.42582.87224-7.61725,1.31972-8.88271,2.04285a5.62172,5.62172,0,0,0-.63453.57939,5.78488,5.78488,0,0,0-.63455-.58027c-1.26547-.72225-5.45781-1.16973-8.88542-2.042q-.19465-.0505-.38777-.10668L135.49586,171.842c.92107,3.21339,2.323,5.31866,2.323,8.51756Z"/><path class="cls-4" d="M128.242,169.35265v-8.31418l-3.70691,2.784a1.24232,1.24232,0,0,1,1.20761,1.29987V174.081l6.90224-5.18477a14.357,14.357,0,0,1,0-2.85009l-4.402,3.30654m-6.95739,1.03672-2.747,2.06278v-4.12636l-3.70873,2.784a1.24345,1.24345,0,0,1,1.20942,1.29987v8.95863l2.49931-1.87829v-4.083l2.747-2.06093v4.083l2.38-1.78793v-11.166l-2.38,1.78793v4.12628m-9.86977,10.37688-3.10672-4.75633-3.44932,2.58878a1.2426,1.2426,0,0,1,1.20942,1.2998v8.95863l2.43423-1.82763v-6.3328l2.7741,4.24833,2.57432-1.93072v-11.1678l-2.436,1.82948v7.09026"/><polyline class="cls-5" points="118.439 246.255 118.439 242.519 71.738 222 118.441 246.255"/><path class="cls-6" d="M17.22578,127.49441a27.29339,27.29339,0,0,0,11.194-2.26783h2.1983s2.11876,3.01809,1.69754,4.66412l-5.50028,21.278H41.126L51.28865,205.894c1.4571,7.83957,8.32229,17.346,15.30678,21.19213L118.44,255.63519l51.84456-28.549c6.98267-3.84615,13.84968-13.35255,15.30588-21.19212l10.33618-55.65636c4.80157-1.71743,8.50758-5.13146,9.62662-9.4992a9.36225,9.36225,0,0,0-.98887-7.53856l4.05855-7.97338h10.78725l1.61257-6.30383s12.55167-.69424,15.11606-10.70775c2.126-8.3069-4.98505-13.68511-13.61285-13.68511H194.41258A29.82153,29.82153,0,0,0,180.035,90.92145a31.49325,31.49325,0,0,0-15.58247,3.60844h-3.75211a5.81762,5.81762,0,0,0-1.4101-3.048c-1.55835-5.77959-7.97428-7.97427-10.81978-8.65041a8.22364,8.22364,0,0,0-2.5156-3.60837,4.43663,4.43663,0,0,0-.45555-2.766V69.8577a6.94494,6.94494,0,0,0-2.88167-5.21557,9.64355,9.64355,0,0,0,.22326-2.10064V54.75787c0-2.08439-1.62432-3.85063-2.80754-4.86117l-.019-4.233-.64357-2.51643c.2133-3.52073-3.5144-5.60247-3.5144-5.60247,6.70427-3.44837,13.0443-9.9791,13.18258-25.3112a5.44131,5.44131,0,0,0,.40857-2.032V8.4c0-2.079,0-8.4-31.00674-8.4C87.43321,0,87.43321,6.32192,87.43321,8.4v1.80153a5.46677,5.46677,0,0,0,.41039,2.032c.13558,15.33121,6.47649,21.86282,13.18168,25.3112,0,0-3.72771,2.08174-3.5153,5.60246l-.64268,2.51651-.019,4.233c-1.1832,1.01055-2.80663,2.77679-2.80663,4.86125v7.78259a9.5606,9.5606,0,0,0,.22146,2.10255,6.94409,6.94409,0,0,0-2.88166,5.21462v6.59852a4.44165,4.44165,0,0,0-.45466,2.76686,8.21724,8.21724,0,0,0-2.51649,3.60844c-2.84369.67607-9.26234,2.87075-10.81978,8.65034A5.81644,5.81644,0,0,0,76.18046,94.528H38.86172a26.2503,26.2503,0,0,0-13.88764-3.6066c-11.22926,0-17.327,5.28609-18.70367,10.65805a11.48152,11.48152,0,0,0,.58392,7.57017L0,121.44726S4.57378,127.49441,17.22578,127.49441ZM8.70735,110.41416a26.41575,26.41575,0,0,0,4.242,2.02476,8.94083,8.94083,0,0,1-4.51322-10.30453c.77827-3.04434,4.75-8.97856,16.53881-8.97856,8.4181,0,13.19887,3.6066,13.19887,3.6066H78.65a3.60744,3.60744,0,0,1,.86052-4.05849c1.082-6.54073,10.60556-7.95442,10.60556-7.95442a5.99738,5.99738,0,0,1,3.499-4.6289,2.64849,2.64849,0,0,1,0-3.17993V69.85763c0-2.60055,3.36616-4.36863,3.36616-4.36863s-.70776-.68239-.70776-2.94758V54.75787c0-1.82138,2.80211-3.76571,2.80211-3.76571l.0217-5.04293.65985-2.58157c-.52245-3.74579,6.38883-5.76055,6.38883-5.76055l-.36879-.41579C99.15332,34.73717,90.0591,29.8579,90.0591,11.74358a3.52771,3.52771,0,0,1-.3932-1.54206V8.4c0-4.24746,12.84273-6.16465,28.77411-6.16465,15.93047,0,28.7741,1.91719,28.7741,6.16465v1.80153a3.52153,3.52153,0,0,1-.39412,1.54206c0,18.11432-9.0933,22.99359-15.718,25.44862l-.36879.41579s6.91217,2.01388,6.38793,5.75974l.65984,2.5815.02259,5.04293s2.80391,1.94344,2.80391,3.76571v7.78259c0,2.26615-.70956,2.94854-.70956,2.94854s3.36795,1.76808,3.36795,4.36863v7.08306a2.65291,2.65291,0,0,1,0,3.17993,5.99905,5.99905,0,0,1,3.49812,4.6289s9.52359,1.41369,10.60556,7.95442a3.60738,3.60738,0,0,1,.86051,4.05849h6.82453c3.78828-2.27063,8.76519-3.6066,14.97957-3.6066a26.11393,26.11393,0,0,1,13.69964,3.6066h28.794c7.79893,0,13.05514,4.6145,11.448,10.89752-1.53392,5.993-8.35122,9.09966-14.70387,9.09966l-1.59451,6.23516H207.25349l-5.29237,10.39673a7.37143,7.37143,0,0,1,1.42817,6.79292c-1.02775,4.017-4.741,7.03512-9.41511,8.334l-10.57845,56.967c-1.34683,7.24754-7.73292,16.08868-14.18773,19.64286l-50.768,27.9588L67.672,225.12916c-6.45661-3.55506-12.84093-12.39613-14.18684-19.64374L42.98264,148.937h-13.282l4.77805-18.48857c.63545-2.45857-1.32422-5.61328-2.71172-7.45363h-3.8398a24.808,24.808,0,0,1-10.70137,2.267c-10.122,0-14.44446-4.21855-14.44446-4.21855l5.926-10.62908Z"/><path class="cls-6" d="M118.43909,246.25533,165.144,221.99982l-46.70314,20.51965v3.73586m64.765-97.31836-11.28077,52.17358c-.95813,4.43818-5.67382,10.00991-9.88876,11.69115L118.44,230.17481,74.84451,212.8017c-4.21764-1.68124-8.93061-7.252-9.88966-11.69027L53.67408,148.93608H48.56156l11.51038,53.232c1.317,6.09237,7.13183,12.96573,12.92136,15.27342L118.44,235.55486l45.444-18.11337c5.79046-2.30769,11.60618-9.18017,12.92408-15.27342L188.257,149.21534a30.64807,30.64807,0,0,1-3.73223-.27926h-1.31881"/><path class="cls-6" d="M81.001,148.937c2.18927,1.33773,7.23216,2.9964,17.81784,3.941a5.04728,5.04728,0,0,0,1.0196-1.27266c-8.32228-.41667-13.7376-1.48427-16.77292-2.66922H81.001m19.22974,1.85565c.04339-.10661.0922-.20785.13107-.31814l.56133-1.53662H87.35369a91.80933,91.80933,0,0,0,12.87707,1.85476m36.28648-.31814c.0416.11117.0877.21153.132.31814a91.63263,91.63263,0,0,0,12.87616-1.85565H135.95685l.56131,1.53751m.52336,1.13171a5.01234,5.01234,0,0,0,1.02142,1.27178c10.58294-.94371,15.62676-2.60326,17.816-3.941h-2.06544c-3.03534,1.18407-8.45064,2.25255-16.772,2.66922M121.7013,200.00508l-.59387.64085c20.33523-.33895,37.06565-4.50692,40.05579-9.96381-4.61356,4.42642-18.87993,7.78171-35.7767,8.51484-1.07925.21513-2.12961.42483-3.68522.80812M75.71677,190.683c2.99193,5.456,19.72147,9.624,40.05578,9.96292l-.59566-.64085q-1.83147-.45075-3.68342-.80812c-16.895-.73313-31.16224-4.0857-35.77669-8.51395"/><path class="cls-6" d="M157.09382,162.62664l-.11571-13.21337s-2.74155,2.84009-17.25559,4.37134l4.59637,1.3559-1.9868,4.5095a15.90475,15.90475,0,0,0-1.383,6.45573,14.62228,14.62228,0,0,0,.36518,3.3264c13.26668-1.95514,15.79129-5.46593,15.77954-6.8055m-77.30768,0c-.01175,1.33957,2.51286,4.85036,15.77863,6.80645a14.6454,14.6454,0,0,0,.36337-3.32735A15.91747,15.91747,0,0,0,94.547,159.65l-1.98679-4.50862,4.59005-1.35589A68.45531,68.45531,0,0,1,84.294,151.43171l-.12564,14.439a13.40663,13.40663,0,0,1-2.766-1.58007l.12023-13.90209a5.99242,5.99242,0,0,1-1.62161-.97532l-.11479,13.21337"/><path class="cls-6" d="M157.05585,168.26432s-2.23626,3.16545-14.36762,5.183a17.8216,17.8216,0,0,1-1.12355,15.94942c14.03769-2.33475,18.023-6.64278,15.67647-8.9893l-.1853-12.14312M95.31712,189.39674a17.83322,17.83322,0,0,1-1.12628-15.94854,48.92543,48.92543,0,0,1-10.00445-2.57613l-.17807,11.665a3.843,3.843,0,0,0,1.32512,2.8862s-4.12724-.99261-4.08475-3.88953l.1826-11.99762a5.62479,5.62479,0,0,1-1.60715-1.27178l-.18531,12.14312c-2.34655,2.34652,1.6388,6.65455,15.67829,8.9893m46.356-18.64121c.14915.46.31186.90025.4818,1.335,14.43721-2.3429,15.66112-6.50992,15.66112-6.50992v-1.41008s-1.25463,4.25738-16.1429,6.585M79.064,165.58062s1.22389,4.167,15.66111,6.50992c.16721-.43476.33263-.875.48087-1.33508-14.88737-2.32754-16.142-6.58492-16.142-6.58492v1.41008"/><path class="cls-6" d="M150.3597,96.76155c4.13176-.28741,5.61055-.54505,5.61055-.54505a1.80471,1.80471,0,0,0,.27479-1.29531c-15.53819,1.38663-37.82133,1.13443-37.82133,1.13443,22.81376-1.17421,25.38625-.828,25.38625-2.78766,0-3.26581-7.74919-5.30322-10.987-6.01193-3.6111.05786-8.29786.09764-14.383.09764-2.71716,0-5.15409-.00721-7.34335-.02169-.96537.79-3.19984,3.15735-2.95578,8.00324,2.18836.02617,4.53219.04066,7.04687.04066a225.87091,225.87091,0,0,1-25.29045.25307.88661.88661,0,0,0-.10666,1.1326H150.3597M112.15331,79.092c1.71381,3.09405-1.66771,2.90244-1.251,6.69249,2.258.01808,4.76178.02713,7.53769.02713,6.68981,0,11.81768-.06147,15.6855-.14551.98165-3.4394-4.52676-3.05523-1.47337-6.50456-3.42129-.0461-8.081-.08588-14.21215-.08588-2.30044,0-4.38757.00728-6.28668.01633M108.808,85.76367c-.40225-3.76476,2.95578-3.584,1.25914-6.66-1.97684.01272-3.71055.03073-5.22007.05066,2.62133,2.50378-2.70992,3.75931-1.8494,6.5172,1.693.03522,3.62106.06779,5.81033.09213m21.76068-8.01853V71.31477q-9.32927-.05382-18.65847-.02537v6.41508q9.32943-.04611,18.65847.04154M109.871,71.29756c-2.54361.00905-4.8576.02257-6.84259.03706v6.44573c1.94521-.02345,4.24385-.046,6.84259-.06323V71.29756m19.5949-7.71671q-5.50992-.25742-11.02584-.26844c-1.87835,0-3.73316.02713-5.50753.07235,1.6216,3.019-1.25643,3.189-1.04673,6.79469q3.01408-.02714,6.55334-.029c4.77174,0,8.83569.04434,12.153.10213-.14009-3.92291-4.61354-4.23929-1.12628-6.6708m-18.48942-.141c-2.43243.08043-4.65514.18712-6.50453.29013,2.3592,3.37882-1.279,3.53609-1.42365,6.59044,1.92261-.047,4.21131-.09044,6.85343-.12118-.21965-3.60292,2.6358-3.78732,1.07566-6.75939m1.72645-8.65674v7.25386q2.76147-.03076,5.7362-.03073c4.70935,0,8.33222.05426,11.11444.13286V54.90882c-2.8744-.0958-6.538-.16543-11.11444-.16543-2.10341,0-4.00793.01448-5.7362.04066m-2.00577.03529c-2.66021.05515-4.82686.13375-6.55333.21874v7.21681c1.67223-.076,3.8163-.14463,6.55333-.18985v-7.2457m16.20707-3.104c-2.23718-.06867-5.01668-.11389-8.4651-.11389-1.78432,0-3.387.01353-4.82959.03345a8.77554,8.77554,0,0,0-.875,2.445c1.70928-.02706,3.603-.04242,5.70366-.04242,4.572,0,8.1677.07227,10.97978.178a4.42292,4.42292,0,0,0-2.51378-2.50018m-15.30947-.04338c-1.67946.0389-3.0986.0886-4.29356.14463a4.90042,4.90042,0,0,0-2.92776,2.54179c1.67856-.09492,3.76929-.1808,6.359-.24043a8.61363,8.61363,0,0,1,.86234-2.446m2.342-6.56146a1.28014,1.28014,0,0,0-.19164.65173v4.92625q2.282-.03795,4.694-.03794c3.33542,0,6.0408.05066,8.231.12837V45.27581c-2.26881-.14007-4.99861-.225-8.231-.225-1.627,0-3.12392.02161-4.50238.05963m-6.999,2.82376-.01807,3.00369q2.30188-.13984,4.60722-.1997v-4.779a1.31566,1.31566,0,0,1,.27027-.76835q-1.51179.07048-2.79308.16816c-.50076.24131-2.05819,1.11362-2.06633,2.57613M126.671,43.62169v-.56225c-2.15856-.13831-4.85671-.22683-8.231-.22683-1.73913,0-3.29747.02434-4.69672.06507v1.3992c1.40468-.04426,2.96392-.06867,4.69672-.06867,3.34807,0,6.05256.09308,8.231.23322v-.84062m-17.336-.50079V44.5229q1.17862-.08823,2.3592-.14463V42.97812c-.85781.03977-1.6406.08859-2.3592.1419M161.4371,183.33158a4.04759,4.04759,0,0,0-1.75-3.01,3.97391,3.97391,0,0,1,1.18592,2.66649c0,2.82017-3.7955,5.40358-10.08036,7.38761,6.62023-1.87558,10.64442-4.3387,10.64442-7.04409m-85.996,0c0,2.70443,4.0242,5.16851,10.64351,7.04409-6.28214-1.984-10.07766-4.56744-10.07766-7.38761a3.974,3.974,0,0,1,1.18592-2.66649,4.04472,4.04472,0,0,0-1.75178,3.01"/><path class="cls-6" d="M133.75491,16.92842c2.01119,0-.16452,3.23147.95995,3.697a23.22839,23.22839,0,0,0,1.552-8.927,7.467,7.467,0,0,0-3.3761-1.46066,46.09433,46.09433,0,0,1-.82439,7.60362,1.2964,1.2964,0,0,0,.1374.00816c.86776,0,.54777-.92106,1.55111-.92106m5.926,5.418c.55591,0,.48812-1.81507,1.49144-1.81507,1.12355,0,.696,1.72015.696,1.72015a67.30006,67.30006,0,0,0,1.46342-9.69258,3.46673,3.46673,0,0,0-2.69816-1.37758,3.22079,3.22079,0,0,0-.753.09044c-.038,5.6765-1.12987,8.6196-1.56647,9.56875a.93521.93521,0,0,1,.16269-.01265c1.28717,0,.51434,1.51854,1.204,1.51854M111.21415,11.67484a10.54494,10.54494,0,0,1,4.901-2.25792c.009-.90841.05514-1.84131.15185-2.79038a125.07414,125.07414,0,0,0-13.74663.80084l.216,2.44151a8.939,8.939,0,0,1,2.69546-.39954,8.01566,8.01566,0,0,1,5.7823,2.20549M132.898,9.58324a8.15721,8.15721,0,0,1,3.79732,1.62338q.04174-1.72447.01447-3.44925-1.93434-.30385-3.88229-.50263c.05243.78372.07232,1.56376.07051,2.3285m10.5025,2.08983c.04791-.69695.0886-1.4164.11752-2.15586a18.275,18.275,0,0,0-2.89612-.968q-.05631.995-.13558,1.98859c.0479-.00184.09582-.00545.14732-.00545a3.9271,3.9271,0,0,1,2.766,1.14076m.1699-4.28091a17.6638,17.6638,0,0,0-2.86536-.96988c-.00635.4366-.02079.89121-.0416,1.336a17.88353,17.88353,0,0,1,2.88347.969q.01763-.659.02349-1.33509M136.698,6.95285c-.009-.42484-.01987-.8768-.03435-1.35134q-2.02745-.31653-4.06937-.51976c.06869.452.12381.90754.16813,1.364,1.467.15006,2.775.32182,3.93559.50711M116.56256,4.47612a125.30876,125.30876,0,0,0-14.23021.82709l.11751,1.33053a125.20434,125.20434,0,0,1,13.90751-.80989c.057-.4474.12655-.89665.20519-1.34677M114.73848,34.4163c1.08471-.06867,2.31129-.11117,3.70151-.11117a52.72833,52.72833,0,0,1,5.55361.26572v-.54233A53.78,53.78,0,0,0,118.44,33.77c-1.34954,0-2.58518.03794-3.70152.10668v.53961m-1.8069-.39322c-.50257.05154-.969.11117-1.40377.1772v.54233c.42575-.06331.89487-.12205,1.40377-.17624V34.024m5.5084,2.69186c-1.10911,0-2.192.03978-3.19714.09948A4.79095,4.79095,0,0,1,115.1,39.32725l-.24224.01265a1.21656,1.21656,0,0,0-1.6659.10845h-.07683a4.55784,4.55784,0,0,0,.357-2.502c-.41128.03618-.79906.075-1.1552.11117a2.75188,2.75188,0,0,1-.45375,2.21733,1.56948,1.56948,0,0,0-1.308.46365l-.45376.05515a1.81152,1.81152,0,0,0-.386,1.48243l.39682-.03073a1.0054,1.0054,0,0,0,.65081.80084l-1.42817.10845v.34168q1.17842-.10312,2.35919-.1744V41.992a1.03862,1.03862,0,0,0,.54145-.88407l.45465-.02169a1.14157,1.14157,0,0,0,.66258.80452,1.36153,1.36153,0,0,0,.39047.10124v.23044c1.41372-.05515,2.973-.08765,4.69672-.08765,3.31464,0,6.03538.11838,8.231.28925v-.33535l-.555-.0425a1.00628,1.00628,0,0,0,.6517-.80084l.39682.03073a.93.93,0,0,0,.38053.87952,1.00174,1.00174,0,0,0,1.03045.09757.9287.9287,0,0,0,.44654-.37778,1.66662,1.66662,0,0,0-1.92079-2.23718.742.742,0,0,0-.34078.15544l-.47725-.06051a1.49566,1.49566,0,0,0-1.39566-.43932,3.07186,3.07186,0,0,1-.55137-2.25975q-2.9402-.30528-5.89619-.31822Zm-7.87757,3.30742c-.04519,1.67581.98526,1.51493,1.17419,1.4978C111.19966,42.443,109.61421,41.7181,110.5624,40.02325Zm.69331.92562c-.59116-.13654-.38235-1.88286.61917-1.35589C111.61093,39.96178,111.83149,41.0835,111.25571,40.94887ZM128.166,39.89943c.46732.03162,1.31426,1.4842.56312,1.66949C128.00151,41.74516,127.7231,39.86414,128.166,39.89943Zm-.4592.40947c.10668,1.62338.85783,1.514,1.148,1.42185C128.47879,42.527,126.93941,42.029,127.70682,40.3089Zm-4.57014-.98165c.57216.01625,1.33688,1.7825.51251,1.78338-.91746,0-1.1796-1.80418-.51161-1.78338Zm-3.09137-.20705c.94549,0,1.45168,1.78073.62911,1.78073C119.757,40.90093,119.57708,39.1202,120.04531,39.1202Zm-5.76243.37609c-.23863.452.4158,1.48331-.2567,1.50949-.86593.03345-.77012-2.27512.2567-1.50949Zm-1.19134.36153c.10846,1.67316,1.0865,1.55926,1.2736,1.52493C113.97827,42.20528,112.30243,41.63038,113.09154,39.85782Zm1.29981,2.00939a1.10542,1.10542,0,0,0,.5731-.86959l.58933-.01353a1.226,1.226,0,0,0,.65624.83158l-1.81865.05066Zm1.646-2.02476c.113,1.72647,1.12085,1.60985,1.31427,1.5728C116.95212,42.26491,115.22205,41.67288,116.03738,39.84245Zm1.08288,1.0612c-1.00787.30374-1.30434-2.36827,0-1.66683C116.95936,39.65,117.8723,40.67675,117.12026,40.90365Zm.39049.90025a1.09987,1.09987,0,0,0,.50166-.855h.8551a1.09743,1.09743,0,0,0,.50165.855h-1.85841Zm2.07719-2.05814c.11207,1.72647,1.025,1.54743,1.22208,1.51133C120.40689,42.10588,118.77352,41.57524,119.58794,39.74576Zm1.082,2.06991a1.22592,1.22592,0,0,0,.65622-.83158l.58935.01353a1.10088,1.10088,0,0,0,.57126.86871Zm1.87832-2.02476c.11391,1.72646,1.02864,1.5475,1.22389,1.51133C123.369,42.151,121.73564,41.62046,122.54825,39.79091Zm3.14289-.23587c.55411-.07051,1.2718,1.68036.499,1.64691C125.39916,41.16761,125.13706,39.62187,125.69114,39.555Zm-.4375.50615c.104,1.62346.96448,1.4553,1.148,1.42008C126.02559,42.27756,124.48805,41.78045,125.25364,40.06119Zm-.60922,1.04672a1.03362,1.03362,0,0,0,.54235.88407l-1.65958-.10036a1.144,1.144,0,0,0,.66166-.8054Zm-16.189,46.20326q-3.49119-.03055-6.98178-.10485c-1.64421.24948-9.51363,1.759-9.68086,7.61546,3.48638.197,7.98331.376,13.67794.47366-.23321-4.863,2.03469-7.21864,2.9847-7.9842"/><path class="cls-6" d="M198.80014,139.28594c.68877-2.68643-1.83041-4.158-4.28091-5.19749q-3.40956.29722-6.8245.52424c2.85362,1.59721,7.14449,2.17211,6.58948,4.33341-.37061,1.4489-2.27152,2.35011-4.95976,2.35011a17.21909,17.21909,0,0,1-5.67924-.94819c-.46371.85327-.79184,1.4589-1.20311,2.22a19.31362,19.31362,0,0,0,6.84169,1.03591c4.06577,0,8.70282-1.13532,9.51633-4.318m-61.059-4.38039c-1.054,4.12091-3.82714,6.39066-7.807,6.39066-3.98173,0-5.59158-2.26975-4.53762-6.39066.06869-.26933.14643-.53057.22959-.78276q-2.53546-.16676-5.14595-.34712c-.13016.38329-.23953.76291-.33263,1.12988-.95544,3.73409-1.04131,8.69835,9.19547,8.69835,10.15994,0,12.65291-4.88838,13.62369-8.61424q-2.55715-.09771-5.19656-.21065c-.009.0425-.01717.08316-.02891.12654M42.15556,137.084h3.88681c4.21853,0,8.95411-1.81955,9.84175-5.29506a4.02583,4.02583,0,0,0,.10846-.5921q-2.3157.05392-4.63071.1311a2.94784,2.94784,0,0,1-.07774.461,4.12216,4.12216,0,0,1-3.75212,2.98737h-4.7871l.79544-3.10038q-2.44191.14106-4.67772.301c-.87951,3.42947-2.55806,9.99182-2.90426,11.34227h4.60179c.376-1.47331,1.5954-6.23515,1.5954-6.23515m128.74-.87952h4.69764l.89667-1.05216q-4.70347.13974-9.97914.19889c-.83792,3.2758-1.78974,6.989-2.03833,7.96794h4.60089l1.82229-7.11467M145.578,143.31913h4.60268l1.81957-7.11467h4.6967l.73759-.86408q-4.88358-.06176-9.76582-.19073l-2.09074,8.16948m-36.89842-9.07429-.60382-1.4192q-1.98127-.14933-3.96364-.28381c.95453,2.10888,1.75992,3.89225,1.75992,3.89225s-1.355,5.29689-1.76262,6.88505h4.6027c.40494-1.5872,1.76443-6.895,1.76443-6.895l3.19531-3.16191-3.77471-.29646-1.21757,1.27906m-26.87953,9.07429,2.399-4.37311h7.93632l.34347,4.37311h4.88472c-.21422-1.47331-1.0178-6.97637-1.65144-11.30786q-2.0948-.11526-4.1372-.2197l.4167,5.31866h-6.782l3.00458-5.475q-1.89659-.08459-3.7937-.1555l-7.69858,11.83938h5.07815M60.77878,131.12542c-1.17508,4.59457-2.80845,10.98252-3.11939,12.19371H71.82725l1.35044-2.31033H62.85144s1.43722-5.61151,2.53637-9.90955q-2.35379.00132-4.609.02617M29.32549,115.04219a4.20555,4.20555,0,0,0-1.16423-4.34782c-3.32457-.16264-6.32374-.3805-9.02733-.63453,2.77951,1.158,5.30323,2.24174,4.6958,4.61354-.49986,1.95609-2.9377,3.21882-6.20714,3.21882a20.36107,20.36107,0,0,1-7.11737-1.23656l-1.39835,2.5093a21.86414,21.86414,0,0,0,8.39459,1.392c4.80338,0,10.78092-1.44354,11.824-5.51387m145.21285,5.51475a33.08242,33.08242,0,0,0,7.29454-.76019c-.1347-.93459-.24677-1.72646-.36156-2.53187a23.83938,23.83938,0,0,1-5.65666.62828c-7.1264,0-9.115-3.64638-9.23072-6.641-2.23717.12566-4.18148.19977-5.87359.23323.16361,4.61265,4.42371,9.07157,13.828,9.07157m20.281-1.98315c6.80914,0,10.19248-1.87565,11.31875-6.27309l1.38569-5.41174q-2.27378.1641-4.70394.3977c-.66256,2.58518-1.28174,5.00948-1.28174,5.014-.65082,2.53635-2.81388,3.96629-6.12759,3.96629-4.44182,0-4.47166-2.48393-4.092-3.96629,0,0,.42755-1.66684.94911-3.71057q-2.3799.3163-4.76179.61732l-.79,3.09317c-1.12627,4.39752,1.298,6.27317,8.10445,6.27317M42.96275,110.85892q-2.37411.02845-4.60993.02713c-.828,3.23147-1.67042,6.53073-1.89369,7.40481H41.06l1.90181-7.43194m11.7246,3.0606h7.93631l.34349,4.37134H67.851c-.169-1.16428-.70685-4.845-1.23836-8.47329q-2.18023.14922-4.28905.27756l.15638,1.98675h-6.782l.91567-1.66772c-1.49959.07235-2.97206.13742-4.40746.19433l-4.9968,7.6823h5.07815l2.39988-4.37127m23.4284-5.02205q-2.351.20844-4.703.404l-2.30226,8.98937h4.6018l2.4044-9.39339m12.48116,9.39339c.28112-1.10458,1.66047-6.49639,2.794-10.92193q-2.39717.26172-4.73106.50616l-1.72285,6.7269-2.48034-6.30111q-1.67176.16267-3.31372.31814l3.80907,9.67184h5.64491m7.9779-11.4372-2.926,11.4372h14.16785c.37332-.63909.76381-1.31067,1.34863-2.30769H100.84181l2.42066-9.46751q-2.305.14372-4.68675.338m18.90884-.68239c-.79184,3.094-2.72709,10.65973-3.10221,12.11959h15.00939c.37423-.63909.76563-1.31067,1.35134-2.30769H119.57619l1.22932-4.8061h9.096l.59117-2.30769h-9.09786l.65806-2.56709q-2.284-.0879-4.56926-.131m25.53,12.11959c.40408-1.58728,1.76264-6.89321,1.76264-6.89321l2.05549-2.03381q-1.53216-.33891-3.33815-.68695c-.32.33712-.51522.53961-.51522.53961l-.29287-.69152q-1.93346-.34707-4.12724-.68695c.88222,1.95065,1.61256,3.56954,1.61256,3.56954s-1.35312,5.29689-1.75991,6.88329h4.6027m72.64259-6.23339H219.543c3.94193,0,8.33945-1.59177,9.6212-4.64067q-2.20143-.32955-4.41741-.53961a4.12012,4.12012,0,0,1-3.715,2.87171h-4.78712l.819-3.1989q-2.20325.00264-4.62078.07772l-2.9856,11.66314h4.60271l1.59629-6.23427M107.72145,17.4581c1.76623,0,.28473,2.76863,2.32937,2.76863,1.14435,0,.71409-1.14341,2.14859-1.14341,1.99764,0,1.157,2.29865,2.46135,2.29865,1.05486,0,.58029-1.49964,1.98859-1.49964a1.146,1.146,0,0,1,1.04944.5749,38.29325,38.29325,0,0,1-1.58365-10.37776,9.31768,9.31768,0,0,0-4.93986,2.52731,7.06037,7.06037,0,0,0-5.74343-2.48842,8.14785,8.14785,0,0,0-2.6358.42028l.49354,5.56629a.93921.93921,0,0,1,.63725-.20793c1.75539,0,.33445,2.49569,2.23,2.49569.80357,0,.62731-.93459,1.56466-.93459"/><path class="cls-7" d="M125.83124,34.27616v.54056a12.90684,12.90684,0,0,1,3.35351.8768c0-.52336-1.18052-1.04855-3.35351-1.41736M89.79062,96.76155a.88845.88845,0,0,1,.10666-1.13348c-5.96218-.29557-9.2506-.76291-9.2506-.76291a1.76634,1.76634,0,0,0,.26214,1.35134s1.4824.25668,5.61688.54505h3.26492m55.02-10.05146s-.74571.264-7.74468.45381c4.1363.62365,12.44953,2.47849,11.7291,7.28452,0,0,3.49813-.28014,6.57775-.5613-.649-6.39331-10.56217-7.177-10.56217-7.177m-43.337.49623c-8.54373-.19072-9.40426-.49623-9.40426-.49623s-9.91226.78372-10.56217,7.177a99.851,99.851,0,0,0,10.28648.93466c.16632-5.85642,8.03574-7.36687,9.68-7.61546Zm-16.132,6.50993c-1.97685-.206-2.8184-.35881-2.8184-.35881s.37965-4.7003,10.18615-5.89892c-6.97819,2.27247-7.36775,6.25773-7.36775,6.25773ZM144.65875,85.234c.17536-4.49693-5.757-2.05454-4.26192-5.90157,0,0-1.42005-.05971-4.684-.12117-3.22515,2.5129,2.65748,2.73708,2.088,6.35809,5.04921-.15727,6.85794-.3344,6.85794-.3344M104.847,79.15522c-1.51224.0172-2.80212.03889-3.87777.0597,1.52489,3.96725-4.29718,2.332-4.29718,5.57886q-1.46861-.05734-2.93589-.1419c0-3.11214,5.69281-1.6975,4.3713-5.37189-1.11272.03074-1.62522.05243-1.62522.05243,1.49506,3.847-4.43639,1.40464-4.261,5.90252,0,0,2.71173.26661,10.77639.4366-.86052-2.75789,4.46983-4.01342,1.8494-6.5172m36.18616-7.75642s-2.58336-.03073-6.72236-.0597v6.44846c4.27546.05514,6.72236.11212,6.72236.11212V71.39792M95.84772,77.8988s2.61953-.06146,7.18064-.11749V71.33462c-1.0395.00816-1.98679.01353-2.82832.02081V77.013l-2.9359.057V71.38432l-1.41642.01449v6.50088m38.48659-7.56664c4.384.10852,6.698.22785,6.698.22785,0-3.87776-5.45961-2.69009-3.2369-6.46933,0,0-1.97956-.16448-5.08989-.34344-3.50716,2.64848,1.48873,2.68914,1.62884,6.58492m-38.48661.22785s2.49116-.12661,7.20053-.23954c.14463-3.05523,3.782-3.21162,1.42365-6.58948q-.84471.04742-1.57642.09308c1.928,4.1218-1.86114,3.81086-2.43151,5.78591l-3.00731.08493c.42845-2.43872,5.05647-2.1513,3.20255-5.72349-1.00425.07139-1.5728.11926-1.5728.11926,2.2218,3.77924-3.2387,2.59157-3.2387,6.46933M138.373,62.72942V55.453s-1.58727-.21249-5.41261-.40314v7.21408a35.584,35.584,0,0,1,5.41261.46549M98.507,55.45387v7.27555a36.99,36.99,0,0,1,5.63857-.47453V55.039q-.93555.04611-1.70387.09221v6.45389l-2.465.2061V55.30741q-.73642.05834-1.46975.14734M132.8745,54.38a41.1064,41.1064,0,0,1,5.82387.59115,8.68939,8.68939,0,0,0-3.04254-2.57885,31.10113,31.10113,0,0,0-5.42617-.54145A5.018,5.018,0,0,1,132.87449,54.38m-27.53213-2.45143a21.01321,21.01321,0,0,0-2.01571,1.74279c-1.0187.06867-1.853.13735-2.53275.20153a24.41588,24.41588,0,0,1,2.192-1.74631,12.34013,12.34013,0,0,0-1.76262.26572,8.68108,8.68108,0,0,0-3.04345,2.57885,43.14155,43.14155,0,0,1,6.19448-.61284,4.89766,4.89766,0,0,1,2.92685-2.54091c-.73307.03529-1.383.07235-1.95877.11117m30.21132-4.93889c-.0027-.44925-1.78251-1.04312-5.70275-1.45538v5.39726c4.66688.28748,5.729.69335,5.729.69335l-.02712-4.63523M109.005,45.35808q-1.6508.11911-3.292.33263a1.00159,1.00159,0,0,0-.54958.81717l-.01807,3.79549q-1.16423.09474-2.32124.25492l.0235-4.34782c-1.03046.26852-1.52037.54233-1.52128.77923l-.0253,4.63523s1.0431-.39954,5.61959-.687l.01808-3.00369c.009-1.46155,1.56557-2.33386,2.06633-2.57613m20.84593-.62276c4.25832.47637,5.33937,1.11178,5.33937,1.11178V44.70818s-.52246-.81533-5.33937-1.37118v1.39832m-20.516-1.6153q-1.49451.11063-2.98108.30013V44.475a29.91477,29.91477,0,0,0-3.08776.52608v-.99878c-1.36852.3805-1.57733.705-1.57733.705v1.1398s1.45711-.85783,7.64617-1.3242V43.12"/><path class="cls-7" d="M92.29264,11.20934c0,.68247.01446,1.34229.038,1.985a4.54227,4.54227,0,0,1,3.91662-2.662,4.32954,4.32954,0,0,1,3.11307,1.41648,7.8373,7.8373,0,0,1,1.70024-1.3378l-.2531-2.95215c-1.72193.2558-3.14831.53961-4.31163.83063l.1383,1.62161a3.78926,3.78926,0,0,0-2.74607.77467l-.14011-1.533c-.18349.07227-.35434.14734-.508.21874-.63273.33535-.94729.54688-.94729,1.63786M100.74056,6.867l-.113-1.32877c-1.73008.26124-3.15462.55145-4.31163.84791l.113,1.317c1.16152-.292,2.58518-.57851,4.31163-.83614m-7.06313,1.7111L93.55992,7.281c-1.05757.452-1.552.85687-1.66138,1.119V9.74684c.11389-.273.64178-.69784,1.7789-1.16877m14.016,27.11545a13.90082,13.90082,0,0,1,3.83437-.95091v-.54233c-.29286.0425-.56855.0886-.8316.1383V34.635l-1.57641.33719v-.25315c-.931.2983-1.42636.63637-1.42636.97444m21.82669,6.22163a.64489.64489,0,0,0,.33081.47814v.34888a26.67039,26.67039,0,0,1,4.4807.83526l.2784-.24948a19.03868,19.03868,0,0,0-2.29684-.56041.60928.60928,0,0,0,.57578-.49l.22326.04882a.49281.49281,0,1,0,.97442,0c-.05242.59211.53059.73041.64178.207l.16451.06154c0-3.48639-8.94057-2.48849-6.5208-5.9848a42.43084,42.43084,0,0,0-9.94118-.9618,42.17883,42.17883,0,0,0-9.9231.9618c2.418,3.49631-6.5226,2.49841-6.5226,5.98384l.16631-.06058c.10938.52431.69421.38513.64178-.20786,0,.73394,1.00063.885,1.00063-.25492l.10847-.02441a.76278.76278,0,0,0,.6472.72225,18.654,18.654,0,0,0-2.27784.56042l.27659.24859A34.19042,34.19042,0,0,1,109.335,42.4963v-.34072a.92892.92892,0,0,0,.37964-.87952,1.80909,1.80909,0,0,1,.38687-1.48243,1.11851,1.11851,0,0,0-.95362-.16176,2.30761,2.30761,0,0,0,.69148-2.25982s.49173-.0786,1.31971-.18169a3.33807,3.33807,0,0,1-.60381,2.54812,1.56947,1.56947,0,0,1,1.30795-.46365,2.75188,2.75188,0,0,0,.45377-2.21733q1.46029-.1534,2.926-.24219c1.00515-.0597,2.088-.09948,3.19712-.09948,2.20643,0,4.31527.15823,5.89619.31822q.91314.0933,1.82317.2133a2.79845,2.79845,0,0,0,.94189,2.39084,1.66669,1.66669,0,0,1,1.92079,2.23718.289.289,0,0,1,.49717.03978Zm4.67681.37417c.04429.22507.358.2947.43748.17176C134.59827,42.83165,134.18246,42.74945,134.19693,42.28932Zm-.10937-.98164c.2323-.0461.82435.77467.4863,1.02686C134.24391,42.57946,133.99535,41.39988,134.08756,41.30768Zm-.90844.53152c.30464.90657.668.60835.80177.376C133.98089,43.06848,133.1764,42.847,133.17912,41.8392Zm.03526-.95724c.27658.0425.99339,1.08194.63,1.2709C133.46205,42.35167,132.94049,40.83946,133.21438,40.882Zm-1.34319-.37785c.34709-.03522,1.29621,1.21664.77555,1.48787C132.14507,42.25771,131.63886,40.5394,131.87119,40.50411Zm-.21152.47005c.35886,1.52582.94,1.23656,1.15066,1.073C132.71723,42.83533,131.49153,42.66269,131.65967,40.97416Zm-.047,1.26186a.94623.94623,0,0,0,.4854.4899l-1.40286-.22058a1.01227,1.01227,0,0,0,.50435-.35608A.27355.27355,0,0,1,131.61267,42.236ZM130.2812,40.1778c.46551.03162,1.32693,1.39567.57579,1.57912C130.13115,41.93412,129.88617,40.157,130.2812,40.1778Zm-.35434.37241c.11934,1.82955.91746,1.53214,1.148,1.42185-.37513.79548-1.91267.29741-1.148-1.42273Zm-26.5297.34352c-.52969,1.11722-.09763,1.11722.04248.903C103.30225,43.52316,102.17055,42.40594,103.39716,40.89373Zm-.07593.68423c-.15637-.07867.00543-.80717.56585-.83342C103.64936,40.98865,103.55444,41.69906,103.32123,41.578Zm4.00793-1.50949c-.28745.32623-.3471,1.23921-.73036,1.1009C106.136,40.99857,106.46864,39.92384,107.32916,40.06847Zm-1.834.26749c-.38688.358-.42215,1.1923-.77556.9898-.235-.13558-.094-.99069.77646-.98885Zm-1.03951.37064c-.329,1.28538.27118,1.148.59567.96C104.847,43.17965,102.99944,42.49093,104.45563,40.7066Zm.32541,2.01932c.52969-.20609.63635-.9554.63635-.9554l.12113-.019a.847.847,0,0,0,.64539.75386Zm1.50229-2.4243c-.43387,1.84036.48541,1.45082.74844,1.336C106.7588,43.149,104.62738,42.142,106.28333,40.30162Zm.74483,2.09167s.39591-.15183.367-.88945l.33445-.03617a.90776.90776,0,0,0,.57488.78548l-1.27542.14014Zm1.157-2.17483c-.15366,1.64515.884,1.33325,1.05757,1.31428C108.789,42.70239,107.1312,41.94221,108.18516,40.21846Zm1.33236-.37057c-.3453.37329-.21332,1.36214-.66619,1.22656-.59657-.178-.38325-1.42456.66529-1.22656Z"/><path class="cls-7" d="M144.58733,11.20934c0-1.091-.31546-1.30163-.94819-1.63786l-.12113-.05427q-.04286,1.07886-.1175,2.15586a6.31369,6.31369,0,0,1,1.148,1.52126q.03865-.99206.03887-1.985m.3923-1.4625V8.4c-.09942-.24044-.52427-.60108-1.4101-1.00783-.0036.451-.01174.89489-.02349,1.33509.90119.41123,1.33327.77555,1.43359,1.01959M99.354,12.96742a3.98077,3.98077,0,0,0-3.10673-1.78609c-.01717,0-.03345.0036-.05062.0036a66.216,66.216,0,0,0,1.18864,10.47.53724.53724,0,0,0-.41308.25763s-.17445-.69688-.65443-.69688c-1.04583,0-.24225,1.41369-.24225,2.96479,0,0-2.06362-4.15076-2.12961-12.04364A6.60031,6.60031,0,0,0,92.402,14.60808c1.06119,15.74605,9.538,18.72261,14.675,20.68318,0,0,.244-.42483,1.51947-.88128-1.41463-6.07429,3.69337-5.01669,5.14684-12.56884-.423,7.91008-4.53128,7.04416-3.67347,12.15665.25309-.05691.52788-.113.82346-.1636,1.50048-6.50543,5.26977-6.44757,6.91941-11.79144-.60108,5.23358-4.05131,6.24412-5.00132,11.52477.21695-.02346.44292-.04515.67522-.066,1.40468-5.44784,7.24755-6.79109,9.05717-12.80655-.55681,5.99017-5.70275,7.20232-7.59825,12.70259.20789-.01177.42484-.01986.64268-.03074,2.79037-6.641,11.279-7.00983,11.66946-14.22751,1.28172,7.13636-8.3919,9.1548-10.02255,14.18141.31094-.00632.63-.009.96087-.00992,3.58216-6.5,9.96921-3.89946,12.94758-14.48155-1.0666,9.92131-8.03667,9.087-10.91921,14.5014.28473.00728.56222.01632.8307.02713,3.90488-5.55629,9.91587-3.53969,12.93945-13.03073-.86233,9.491-7.98513,8.39462-11.24916,13.12293.26666.019.52248.03978.77013.06331,5.93326-5.68467,9.04632-3.42948,12.98193-10.91384-2.10068,7.42922-7.41836,6.64285-11.65136,11.06111q.343.04346.65534.09132c4.80878-4.51862,9.60311-3.31735,13.79727-10.18976-2.822,6.86792-9.46212,7.10115-12.80386,10.36784.273.056.52427.113.75566.17176,6.52983-4.6045,10.89662-4.89559,14.0178-10.11021-2.48123,5.55453-9.03455,6.96-13.30281,10.31174.20971.066.395.13286.56223.19889,5.37645-3.62645,9.86435-3.772,14.07927-11.0331-2.63308,7.53223-10.73571,9.218-13.20249,11.47242a1.33832,1.33832,0,0,1,.39774.34976c5.13782-1.96057,13.61556-4.93713,14.674-20.68318a7.04513,7.04513,0,0,0-1.14434-2.04917,67.147,67.147,0,0,1-1.46345,9.69258s.42756-1.72015-.696-1.72015c-1.00336,0-.93555,1.81507-1.49144,1.81507-.6897,0,.08314-1.51854-1.20311-1.51854a1.01285,1.01285,0,0,0-.16269.01265c-.8.12294-.60562,1.16149-1.01691,1.16149-.6978,0,.40043-1.84212-1.13529-1.84212-.77738,0-.65986.52152-1.12538.52152a.84856.84856,0,0,1-.32267-.05691c-1.12447-.46461,1.05124-3.69608-.96-3.69608-1.00334,0-.68335.92106-1.55111.92106a1.36286,1.36286,0,0,1-.1374-.00816c-1.326-.15-.19251-2.56981-1.89186-2.56981-1.6379,0-.64,3.08412-2.12421,3.08412-1.12355,0-.74844-1.17774-1.94158-1.17774-1.89008,0-.90571,3.47911-2.50564,3.47911-1.10909,0-.67975-1.44265-2.051-1.44265-1.89825,0-.6915,2.28871-2.30047,2.28871-1.00423,0-1.22931-.58026-1.5529-1.04583a1.14552,1.14552,0,0,0-1.05036-.5749c-1.40737,0-.93282,1.49964-1.98769,1.49964-1.30342,0-.46369-2.29865-2.46133-2.29865-1.43449,0-1.00334,1.14341-2.14859,1.14341-2.04465,0-.56313-2.76863-2.32938-2.76863-.93734,0-.76108.93459-1.56466.93459-1.89459,0-.47455-2.49474-2.23-2.49474a.93627.93627,0,0,0-.63725.207c-.68335.583-.17717,2.2146-.90391,2.2146-.527,0-.74572-.93554-.809-1.6822l-.45377-5.29777a6.40887,6.40887,0,0,0-1.76894,1.627Zm-2.97386,8.598c.6481,0,.54235,3.19082.54235,3.19082C96.82484,22.74955,95.52322,21.56541,96.38012,21.56541ZM95.046,23.686c1.232,1.23112.84968,3.08148,1.94341,4.70486C95.34967,26.8226,95.64977,24.76255,95.046,23.686Zm45.58048-2.13321a.49428.49428,0,1,1,.98165.08139,11.4307,11.4307,0,0,1-3.38514,4.95161,11.16263,11.16263,0,0,0,2.40349-5.033Zm-2.71173.18352c.16089-.80452,1.307-.23234,1.1073.30366a11.98285,11.98285,0,0,1-5.05826,5.91613,10.77977,10.77977,0,0,0,3.951-6.21979Zm-2.31039-.58034c.21421-.99069,1.30163-.40131,1.03045.17359-2.11515,4.47164-5.03386,5.98025-5.03386,5.98025s3.283-2.82921,4.00431-6.15384Zm-2.49478-3.142c.06689-.88945,1.31248-.66343,1.16241,0-1.62974,7.14092-6.49,9.35-6.49,9.35S132.59431,23.81347,133.10953,18.014Zm-3.6491-1.34862c0-1.25192,1.45078-1.204,1.45078-.20881,0,2.99376-3.13655,9.1801-6.69254,10.52062a13.10089,13.10089,0,0,0,5.24176-10.31092Zm-4.045,1.853a.72831.72831,0,1,1,1.4553,0c0,4.69221-4.17968,6.61212-7.582,9.238,3.51348-3.71145,6.12669-4.34782,6.12669-9.238Zm-4.69127,2.09439c.15275-1.30163,1.33234-.76114,1.19586-.2097-1.51315,5.5635-3.753,3.98982-5.89258,7.59282C118.31976,23.1599,120.21436,24.93519,120.72418,20.61274Zm-4.929.70048a.82812.82812,0,1,1,1.65417-.05691c0,2.47673-2.53458,3.462-5.32583,8.052,1.98768-3.99254,3.67166-5.17036,3.67166-7.99508ZM98.3,20.28915c.90844,0,.79725,2.74245.67974,4.95066-.0443-3.39691-1.23112-3.91027-1.23112-4.39752A.55724.55724,0,0,1,98.3,20.28915Zm-1.119,2.34739c.6463,2.28688.07774,6.08965,2.76868,8.78063-3.64818-2.76421-2.4523-5.99745-2.76868-8.78063Zm2.784-1.82227c1.33145,6.4539-1.98769,6.538,1.81867,11.43536-5.1306-3.19529-1.36039-7.12276-1.81867-11.43448Zm12.22987-1.19583a.93909.93909,0,0,1,.87679.93459c0,.5749-.53421.74306-.63816,1.35862a16.14529,16.14529,0,0,1-2.813,6.2442c2.465-5.34932.72042-8.53741,2.57433-8.53741Zm-5.12154-1.09737a.63036.63036,0,0,1,.6481-.64181c1.44536,0,.33716,6.79653-1.08831,8.9668,1.70388-6.89682.44111-7.88567.44111-8.325Zm2.04283,2.13145c1.04222,8.95863-3.47462,8.06919-1.74725,13.57122C103.05276,29.90761,109.61966,27.524,109.11618,20.65252Zm-3.35079,13.30821c-4.60541-3.04978-.65713-8.41719-.65713-14.9624C106.42886,25.88162,102.42545,29.44028,105.76539,33.96073Zm-1.81686-17.63162c1.27,0,.58212,5.06278-.24767,9.55067.82347-7.57473-.42212-8.08361-.42212-8.99481a.61864.61864,0,0,1,.66888-.55586ZM102.439,19.068c1.41732,4.139-3.18176,10.03424,1.90633,14.50044-6.66361-3.79637-1.90724-9.10775-1.90724-14.49956Zm-1.45531-1.12084c1.3649,0,.75838,3.92924.07143,6.18274.34347-4.375-.79545-4.70582-.79545-5.45512a.71178.71178,0,0,1,.72313-.72762Z"/><path class="cls-8" d="M174.88,233.91243l-.8334-1.787a1.25279,1.25279,0,0,0-.42032-2.43327h-1.7807v4.22032h.79364v-1.71381h.56583l.80087,1.71381H174.88Zm-1.25283-2.50562h-.988v-.92106h.988a.46006.46006,0,1,1,0,.92011Z"/><path class="cls-8" d="M177.05935,231.80187a.7301.7301,0,1,1-.0009,0Zm-6.59854,0a2.904,2.904,0,1,1,.2208,1.11076A2.87571,2.87571,0,0,1,170.46081,231.80187Z"/><path class="cls-9" d="M123.77214,41.30224c-.19525.03617-1.11.21609-1.22389-1.51133-.81261,1.82955.82073,2.36011,1.22389,1.51133m-1.28536.56409a1.10093,1.10093,0,0,1-.57128-.86871l-.58933-.01353a1.22591,1.22591,0,0,1-.65624.83158l1.81685.05066M120.81,41.25709c-.19705.03618-1.11.216-1.2221-1.51133-.81351,1.82948.819,2.36012,1.2221,1.51133m-3.45836.15727c-.19434.03794-1.2022.15456-1.31427-1.57279-.81533,1.83131.91475,2.42246,1.31427,1.57279m1.51585-.46549h-.8551a1.0974,1.0974,0,0,1-.50165.855h1.85844a1.09981,1.09981,0,0,1-.50167-.855"/><path class="cls-9" d="M125.18677,41.992a1.03363,1.03363,0,0,1-.54237-.88407l-.45557-.02169a1.14177,1.14177,0,0,1-.66164.80452l1.65958.10124m-10.82159-.60923c-.18712.03433-1.166.14823-1.27361-1.52493-.78912,1.77168.88674,2.34746,1.27361,1.52493m-4.25288-.13742-.39773.03073a.93033.93033,0,0,1-.37964.87952l1.42817-.10941a.94163.94163,0,0,1-.6508-.80084m5.44151-.26124-.58934.01353a1.10282,1.10282,0,0,1-.57309.86871l1.81866-.05066a1.226,1.226,0,0,1-.65623-.83158"/><path class="cls-9" d="M134.63441,42.4602c-.07952.12382-.39319.05419-.43748-.17088-.01447.46013.40134.54233.43748.17176m-6.05982-.20793,1.27634.14014a.64539.64539,0,0,1-.33083-.4791.28931.28931,0,0,0-.49715-.03882.90257.90257,0,0,1-.44836.37778m-20.27012,0a.90673.90673,0,0,1-.574-.78636l-.33535.03617c.02892.7385-.36609.89033-.36609.89033l1.27542-.14014m-4.86484-.45645c-.1401.21425-.57218.21425-.04248-.903-1.2266,1.51221-.09491,2.63032.04248.903m3.59214-.15911c-.26213.11485-1.18321.50439-.74844-1.336-1.65686,1.84036.47546,2.84737.74844,1.336m-1.98047.029c-.32449.188-.9247.32542-.59567-.96-1.4571,1.78433.3914,2.47305.59567.96m21.35032-.18529c-.1835.0361-1.044.20338-1.148-1.42008-.76559,1.71926.77195,2.21637,1.148,1.42008m-15.83918-1.458c-.94821,1.69485.63725,2.41974,1.17418,1.49773-.18983.01808-1.21937.17808-1.17418-1.49773m18.29238,1.7075c-.29016.0922-1.0413.20153-1.148-1.42185-.76741,1.71919.772,2.21813,1.148,1.42185m-15.502.16087a1.14374,1.14374,0,0,1-.66257-.8054l-.45466.02169a1.03864,1.03864,0,0,1-.54144.88407l1.65867-.10036"/><path class="cls-9" d="M131.07482,41.97206c-.2305.11029-1.02864.4077-1.148-1.42273-.76469,1.72014.77284,2.21909,1.148,1.42273m2.90607.24315c-.13378.23234-.49715.53056-.80177-.376-.00272,1.00782.80177,1.22928.80177.376m-1.17057-.16815c-.21062.16359-.79182.452-1.15067-1.0729-.16813,1.68846,1.05756,1.86117,1.15067,1.0729m-23.56759-.51432c-.17355.01809-1.21123.33087-1.05757-1.31428-1.054,1.72375.60381,2.48393,1.05757,1.31428"/><path class="cls-9" d="M107.36893,34.22374c-1.72648-5.502,2.78946-4.61259,1.74724-13.57122.50438,6.87145-6.06341,9.25509-1.74724,13.57122M102.439,19.06884c0,5.39181-4.75728,10.7023,1.90633,14.49956-5.089-4.46524-.48811-10.36144-1.90724-14.49956m3.74579,23.4365a.84627.84627,0,0,1-.64538-.75386l-.12113.01809s-.10666.75026-.63636.95635l1.40287-.22058m24.51219,0,1.402.22058a.94631.94631,0,0,1-.48542-.4899.27353.27353,0,0,0-.41309-.08676.996.996,0,0,1-.50437.35608"/><path class="cls-9" d="M99.965,20.81427c.45828,4.31348-3.31193,8.24007,1.81867,11.43536-3.80546-4.89735-.48722-4.98234-1.81867-11.43448m5.14323-1.81682c0,6.54433-3.94827,11.91262.65713,14.9624-3.33993-4.51957.66348-8.07911-.65713-14.9624"/><path class="cls-9" d="M60.77878,104.87052l-3.36886,6.13479h3.85064l-.48178-6.13479m49.32266-65.07689.45377-.05515a3.3409,3.3409,0,0,0,.6038-2.549c-.828.104-1.31971.18352-1.31971.18352.46823,1.16605-.69148,2.25975-.69148,2.25975a1.1167,1.1167,0,0,1,.95362.16088M96.98935,28.39084c-1.09373-1.62338-.71138-3.47374-1.94341-4.70486.60382,1.07657.30372,3.13655,1.94341,4.70486M82.52319,93.35744s.84155.15367,2.81841.35881c0,0,.38866-3.98526,7.36775-6.25773C82.902,88.658,82.5232,93.35744,82.5232,93.35744M126.671,42.08867l.87406.06691a.92853.92853,0,0,1-.38053-.87952l-.39682-.03073a1.0075,1.0075,0,0,1-.6517.80084l.555.0425M99.94964,31.41717c-2.69093-2.691-2.12237-6.49375-2.76868-8.78063.31638,2.78318-.8795,6.01642,2.76868,8.78063"/><path class="cls-9" d="M222.52776,96.76155H193.73465A26.11889,26.11889,0,0,0,180.035,93.1559c-6.21436,0-11.19037,1.336-14.98045,3.6066H158.23a3.608,3.608,0,0,0-.85961-4.05856c-1.082-6.54066-10.60647-7.95434-10.60647-7.95434a5.9991,5.9991,0,0,0-3.49721-4.629,2.65291,2.65291,0,0,0,0-3.17993V69.85763c0-2.60047-3.368-4.36855-3.368-4.36855s.70958-.68247.70958-2.94766V54.75787c0-1.82138-2.80391-3.76571-2.80391-3.76571l-.02261-5.04286-.65984-2.58157c.52426-3.74578-6.388-5.76062-6.388-5.76062l.36881-.41579c6.62475-2.45408,15.719-7.33342,15.719-25.44774a3.52733,3.52733,0,0,0,.3932-1.54206V8.4c0-4.24746-12.84364-6.16465-28.77411-6.16465-15.93137,0-28.77411,1.91719-28.77411,6.16465v1.80153a3.52771,3.52771,0,0,0,.3932,1.54206c0,18.11432,9.09333,22.99359,15.719,25.44862l.36789.41579s-6.91128,2.01388-6.38882,5.75974l-.65986,2.5815-.02169,5.04293s-2.80213,1.94344-2.80213,3.76571v7.78259c0,2.26615.70777,2.94854.70777,2.94854S93.616,67.25708,93.616,69.85763v7.08306a2.64848,2.64848,0,0,0,0,3.17993,5.99538,5.99538,0,0,0-3.49813,4.6289s-9.52447,1.41369-10.60646,7.95442a3.60744,3.60744,0,0,0-.86052,4.05849h-40.477s-4.78076-3.6066-13.19886-3.6066c-11.78877,0-15.76055,5.93422-16.53881,8.97768A8.94,8.94,0,0,0,12.94938,112.438a26.36368,26.36368,0,0,1-4.242-2.02388l-5.926,10.62908s4.32249,4.21855,14.44445,4.21855a24.809,24.809,0,0,0,10.70137-2.267h3.8398c1.38751,1.84124,3.34718,4.99411,2.71173,7.45363l-4.77806,18.48768h13.282l10.5025,56.54846c1.34682,7.24937,7.73023,16.08956,14.18684,19.64374l50.768,27.9588,50.768-27.95792c6.4548-3.55506,12.84-12.39613,14.18774-19.64374l10.57845-56.96785c4.67409-1.298,8.38826-4.3162,9.416-8.33315a7.37307,7.37307,0,0,0-1.42909-6.79285l5.29237-10.3968h10.42388l1.59448-6.23516c6.35267,0,13.17-3.10758,14.70389-9.09959,1.60715-6.28309-3.64908-10.89847-11.448-10.89847Zm-62.64537,12.44686c1.55653-6.08693,7.11106-12.42605,20.15173-12.42605a21.23144,21.23144,0,0,1,7.29452,1.08377l-2.54268,4.37855a19.70641,19.70641,0,0,0-5.42164-.64357c-7.39127,0-10.53688,3.866-11.49411,7.6073-.63093,2.45775-.00723,7.60914,8.21834,7.60914a20.89356,20.89356,0,0,0,6.359-.84974l.64177,4.54126a30.32721,30.32721,0,0,1-8.82665,1.12532C162.09154,121.63439,158.52289,114.51434,159.88239,109.20841Zm-38.775,91.43752.59387-.64085q1.8324-.45075,3.68522-.808c16.89677-.73313,31.16314-4.08842,35.7767-8.51483C158.17308,196.13908,141.44266,200.307,121.10743,200.64593Zm-45.39155-9.96285c4.61535,4.42914,18.88264,7.78082,35.77668,8.51483,1.07837.21418,2.1296.42388,3.68433.80717l.59566.64085c-20.33431-.33895-37.06293-4.50685-40.05577-9.96285Zm-.77737-50.749-2.60687,4.45987H56.30715l4.8567-18.97664h6.754l-3.71506,14.51677H74.93851Zm37.99126-25.02651-2.60958,4.458H94.29751l4.8567-18.97479h6.754l-3.71506,14.51676Zm2.67195-14.51676h24.92707l2.94584,6.92931,6.59854-6.92931h7.17793l-11.49137,11.36661-1.947,7.60818h-6.75219l1.94793-7.61539-4.863-10.76105-.98979,3.8624H123.501l-.75478,2.94133h9.09694l-1.14074,4.46076h-9.096l-.67973,2.653H132.5039l-2.60777,4.459H113.03192l3.71505-14.514A4.45206,4.45206,0,0,0,115.60172,100.3908Zm45.27134,82.59726a3.97423,3.97423,0,0,0-1.18594-2.66649,4.04762,4.04762,0,0,1,1.75,3.01c0,2.70451-4.02419,5.16858-10.64444,7.04416C157.07757,188.39164,160.87306,185.8083,160.87306,182.98806Zm-19.30928,6.40875a17.03962,17.03962,0,0,0,2.49477-9.03907,17.32692,17.32692,0,0,0-1.37032-6.91042c12.13136-2.01755,14.36762-5.183,14.36762-5.183l.1853,12.14312c2.34655,2.34652-1.63967,6.65455-15.67737,8.98937Zm-64.37092-9.07524a3.97429,3.97429,0,0,0-1.18592,2.66649c0,2.82024,3.7946,5.40358,10.07857,7.38768-6.62022-1.87558-10.64442-4.33877-10.64442-7.04416a4.04472,4.04472,0,0,1,1.75178-3.01Zm2.446.08587.1853-12.14312a5.64438,5.64438,0,0,0,1.60715,1.27178l-.18259,11.99762c-.04249,2.897,4.08565,3.88953,4.08565,3.88953a3.84333,3.84333,0,0,1-1.326-2.8862l.17807-11.66491a48.91459,48.91459,0,0,0,10.00446,2.57606,17.82566,17.82566,0,0,0,1.12627,15.94861c-14.03949-2.33482-18.02484-6.64285-15.67829-8.98937ZM99.83847,151.6053a5.024,5.024,0,0,1-1.0196,1.27178c-10.58477-.94363-15.62857-2.60326-17.81784-3.941h2.06452C86.10088,150.12015,91.5171,151.18863,99.83847,151.6053Zm-12.48478-2.66922h13.56948l-.56043,1.53751c-.03977.11124-.08859.21153-.132.31822a91.66971,91.66971,0,0,1-12.87707-1.85573Zm-7.56842,13.69056.1157-13.2133a6.004,6.004,0,0,0,1.62161.97621l-.12114,13.90216a13.42366,13.42366,0,0,0,2.76687,1.579l.12564-14.439a68.50959,68.50959,0,0,0,12.85629,2.35474l-4.59,1.35494,1.9868,4.50869a15.91743,15.91743,0,0,1,1.38116,6.45574,14.6312,14.6312,0,0,1-.36337,3.32639C82.299,167.477,79.7735,163.96628,79.78615,162.62664Zm15.42066,8.12889c-.14823.46-.31365.90025-.48087,1.33509-14.43722-2.343-15.66111-6.51-15.66111-6.51v-1.41008s1.25463,4.25745,16.142,6.585Zm-1.61979,9.604c0-6.65544,3.10944-7.91464,3.10944-14.25465a16.80309,16.80309,0,0,0-1.44626-6.764l-1.63606-3.71144,3.84522-1.1362a5.57414,5.57414,0,0,0,3.62468-3.75667l1.69573-4.64332,3.77834,3.13023a6.62352,6.62352,0,0,0,4.17334,1.702,7.86748,7.86748,0,0,0,5.2761-2.2471L118.44,146.2704l2.4342,2.40805a7.85969,7.85969,0,0,0,5.27521,2.2471,6.62125,6.62125,0,0,0,4.17244-1.702l3.78014-3.13023,1.69483,4.64332a5.57373,5.57373,0,0,0,3.62287,3.75667l3.84613,1.1362-1.63518,3.71144a16.78907,16.78907,0,0,0-1.44624,6.76484c0,6.33913,3.10944,7.59833,3.10944,14.25377,0,8.90709-6.63378,15.3068-13.97534,17.195-3.63009.91753-5.3204,1.0079-8.0267,1.76536q-1.43,1.53192-2.85182,3.07148s-2.50024-2.70274-2.85273-3.07148c-2.7054-.75746-4.39571-.84783-8.0249-1.76536-7.34335-1.8891-13.97622-8.28793-13.97622-17.195Zm47.72815-10.92642a14.60533,14.60533,0,0,1-.36427-3.32727,15.88973,15.88973,0,0,1,1.383-6.45574l1.9859-4.50869-4.59545-1.35582c14.51314-1.53214,17.25559-4.37223,17.25559-4.37223l.11479,13.2133c.01175,1.33957-2.51286,4.85036-15.77953,6.80645Zm16.50176-5.26255v1.41008s-1.22391,4.167-15.66112,6.50992q-.26043-.66051-.4818-1.335c14.88827-2.32761,16.1429-6.585,16.1429-6.585Zm-19.754-11.29346a5.021,5.021,0,0,1-1.02144-1.27178c8.32229-.41667,13.73761-1.48427,16.77293-2.66922H155.879c-2.18927,1.33774-7.23309,2.99729-17.816,3.941Zm-1.41282-2.08535c-.04428-.10661-.0904-.20785-.132-.31814l-.56039-1.53662H149.5254a91.79324,91.79324,0,0,1-12.87618,1.85476Zm-7.582-6.11222c-9.69079,0-11.37749-4.37487-9.99452-9.77389,1.38116-5.39821,5.30595-9.774,14.99764-9.774s11.37752,4.37583,9.99453,9.774c-1.38119,5.399-5.30594,9.77485-14.99765,9.77485ZM115.77254,125.4173h7.17793L111.4591,136.7848l-1.947,7.60914h-6.7522l1.94792-7.61635L99.5736,125.4173h6.65457l2.94675,6.93027Zm-19.86337,0,2.77139,18.97664H91.42849l-.34258-4.37135H84.72963l-2.399,4.37135h-7.4663l12.342-18.97664Zm83.82121,7.403-3.80363,4.46171h-4.23212l-1.82047,7.112H163.122l3.71507-14.51588a4.45756,4.45756,0,0,0-1.14524-4.46076h18.69554l-3.80367,4.46076h-6.99352l-.75388,2.94221h6.89413Zm-14.23747-7.403-3.80183,4.46076h-6.99533l-.75206,2.94221h6.8941l-3.80545,4.46171h-4.23029l-1.82229,7.112h-6.75219l3.71507-14.51588a4.45692,4.45692,0,0,0-1.14616-4.46076ZM100.62756,5.53828q.8508-.12915,1.70477-.23507a125.26759,125.26759,0,0,1,14.23021-.827c.61286-.00544,1.23655-.009,1.87743-.009,5.851,0,10.49436.244,14.15429.6146,1.52127.15456,2.87353.32992,4.06939.51976,1.6153.25668,2.95036.536,4.04048.82077a17.66415,17.66415,0,0,1,2.86538.96988c.88583.40675,1.31066.76739,1.4101,1.00783V9.74684c-.10034-.244-.5324-.60836-1.43359-1.01959a17.96993,17.96993,0,0,0-2.88347-.969c-1.07567-.28021-2.38452-.55409-3.96454-.80452q-1.96069-.309-3.93563-.508A141.023,141.023,0,0,0,118.44,5.81393q-1.0684,0-2.0826.00992a125.40764,125.40764,0,0,0-13.90663.80989c-.6011.07595-1.16966.15367-1.71109.23323-1.72556.25851-3.14922.54416-4.31165.83614l-.11208-1.317c1.157-.29646,2.58156-.58667,4.31164-.84783Zm-8.729,4.20856V8.4c.10848-.26213.60382-.66615,1.66138-1.119l.11751,1.29708c-1.13712.47093-1.665.89488-1.7789,1.16877Zm.3941,1.4625c0-1.091.31456-1.30163.94729-1.63786.15367-.07228.32451-.14551.508-.21874l.14012,1.533a3.78925,3.78925,0,0,1,2.74608-.77467l-.13831-1.62154c1.16333-.29109,2.58969-.5749,4.31165-.8307.54233-.07955,1.1118-.15734,1.7129-.23146A124.86857,124.86857,0,0,1,116.267,6.62654q1.05756-.01082,2.173-.01177a140.37423,140.37423,0,0,1,14.3875.64q2.16938.22642,3.88228.50263c1.55653.24763,2.84732.517,3.91212.7918a18.20813,18.20813,0,0,1,2.89612.96812l.12113.05419c.63271.33535.94818.54688.94818,1.63786,0,.68247-.01447,1.34237-.03978,1.985a6.24167,6.24167,0,0,0-1.14794-1.52126,3.92341,3.92341,0,0,0-2.766-1.14076c-.05152,0-.09943.00368-.14733.00456a4.35862,4.35862,0,0,0-2.96663,1.41192,7.61436,7.61436,0,0,0-.82435-.74217A8.16166,8.16166,0,0,0,132.898,9.58324a9.15867,9.15867,0,0,0-1.45168-.11389,8.01269,8.01269,0,0,0-5.78139,2.20556A11.0018,11.0018,0,0,0,118.44,9.20267a12.53113,12.53113,0,0,0-2.32486.21425,10.54411,10.54411,0,0,0-4.901,2.258,8.01535,8.01535,0,0,0-5.7823-2.20556,8.939,8.939,0,0,0-2.69546.39954,8.11746,8.11746,0,0,0-1.67584.7421,7.8376,7.8376,0,0,0-1.70025,1.3378,4.32408,4.32408,0,0,0-3.11306-1.41648,4.5423,4.5423,0,0,0-3.91663,2.662q-.037-.99216-.038-1.985Zm.10938,3.39874a6.602,6.602,0,0,1,1.54387-2.47128c.066,7.89288,2.12961,12.04453,2.12961,12.04453,0-1.552-.80357-2.96568.24225-2.96568.47907,0,.65443.69688.65443.69688a.53724.53724,0,0,1,.41309-.25763,66.364,66.364,0,0,1-1.18864-10.47c.01807,0,.03344-.0036.05061-.0036A3.98279,3.98279,0,0,1,99.354,12.9675a6.41983,6.41983,0,0,1,1.769-1.62794,7.41447,7.41447,0,0,1,1.67313-.80092,8.1479,8.1479,0,0,1,2.6358-.42028,7.06037,7.06037,0,0,1,5.74343,2.48842,9.31762,9.31762,0,0,1,4.93985-2.52731,11.691,11.691,0,0,1,2.32486-.226,9.94406,9.94406,0,0,1,7.26471,2.75326,7.05867,7.05867,0,0,1,5.74164-2.48842,8.62136,8.62136,0,0,1,1.44445.11934,7.467,7.467,0,0,1,3.3761,1.46066,5.95368,5.95368,0,0,1,1.25823,1.26914,4.19557,4.19557,0,0,1,2.35557-1.69573,3.22084,3.22084,0,0,1,.753-.09044,3.46673,3.46673,0,0,1,2.69816,1.37758,7.04537,7.04537,0,0,1,1.14434,2.04917c-1.05846,15.74605-9.53622,18.72261-14.67313,20.68318a1.35519,1.35519,0,0,0-.39772-.34976c2.46586-2.25439,10.56849-3.94019,13.20158-11.47242-4.21492,7.26106-8.70284,7.40665-14.07928,11.0331q-.2776-.10941-.56224-.19889c4.26826-3.35169,10.82159-4.75721,13.30282-10.31174-3.1212,5.21462-7.48795,5.50571-14.0178,10.10932q-.37587-.09418-.75567-.17087c3.34176-3.26669,9.98186-3.49992,12.80387-10.36784-4.19415,6.87153-8.98849,5.67114-13.79726,10.18976q-.32752-.04986-.65624-.09132c4.23391-4.41826,9.55161-3.63189,11.65136-11.06111-3.93469,7.48436-7.04774,5.2291-12.981,10.91384q-.38469-.03608-.77013-.06331c3.2631-4.72831,10.3868-3.63189,11.24913-13.12293-3.02357,9.491-9.03548,7.47444-12.93944,13.02985q-.41483-.01566-.8298-.02625c2.88167-5.41439,9.8517-4.58009,10.91829-14.5014C128.16512,29.41138,121.779,26.81084,118.1959,33.31c-.33081.00177-.65081.00449-.96086.01081,1.63066-5.02573,11.30428-7.045,10.02255-14.18053-.3905,7.2168-8.87911,7.58561-11.66947,14.22751-.21875.00905-.43387.01809-.64268.02986,1.89551-5.50027,7.04143-6.71242,7.59827-12.70259-1.80963,6.01546-7.6525,7.35776-9.05717,12.80655-.23321.02081-.45736.0425-.67522.066.94911-5.28065,4.40022-6.29119,5.00132-11.52485-1.64963,5.34395-5.41983,5.28609-6.91941,11.79152-.29559.05059-.56946.10669-.82347.16272-.8578-5.11161,3.25046-4.24569,3.67347-12.15577-1.45346,7.553-6.56145,6.49367-5.14683,12.56884-1.27633.45645-1.51948.88128-1.51948.88128C101.94,33.33069,93.46407,30.35413,92.402,14.60808Zm18.2951,20.027v-.29646q1.11112-.201,2.23446-.3155c.56042-.05779,1.16513-.10757,1.80691-.14639q1.84912-.10984,3.7015-.10668a54.04171,54.04171,0,0,1,5.55362.25763q1.0128.10842,1.83763.24859c2.173.36874,3.35351.89393,3.35351,1.41729a12.9106,12.9106,0,0,0-3.35351-.8768c-.53782-.08676-1.148-.17175-1.83763-.24587a52.76364,52.76364,0,0,0-5.55362-.26572c-1.39021,0-2.61682.0425-3.7015.11117q-.9803.06375-1.80783.15007c-.50889.05426-.97621.11205-1.40286.17624a13.90067,13.90067,0,0,0-3.83437.95091c0-.33807.49443-.67607,1.42637-.97437v.25308l1.57732-.33719Zm-2.18927,1.97417a42.20667,42.20667,0,0,1,9.9231-.96091,42.43089,42.43089,0,0,1,9.94119.9618c-2.41978,3.49631,6.52078,2.49841,6.52078,5.98384l-.16451-.06051c-.11117.52424-.6942.38506-.64177-.20793a.49294.49294,0,1,1-.97441,0l-.22326-.04794a.61071.61071,0,0,1-.5758.49086,18.59778,18.59778,0,0,1,2.29593.56042l-.27751.24859a26.66972,26.66972,0,0,0-4.48068-.83526q-1.58623-.19653-3.17995-.31815c-2.19648-.17087-4.91635-.28925-8.231-.28925-1.72374,0-3.283.03257-4.69672.08765q-2.208.08116-4.40924.27395a34.16576,34.16576,0,0,0-6.78564,1.08106l-.2775-.24948a19.0383,19.0383,0,0,1,2.27785-.56041.7626.7626,0,0,1-.64721-.72137l-.10846.02441c0,1.13892-.99973.98886-.99973.2558.05242.59211-.5324.73041-.64177.20705l-.16632.06147c0-3.48639,8.93965-2.48849,6.5226-5.9848Zm-6.81907,8.099s.20879-.32542,1.57731-.70592v.99885a29.8479,29.8479,0,0,1,3.08776-.52615V43.42015q1.48658-.18946,2.98108-.30013,2.20227-.15781,4.40926-.22146c1.39835-.04154,2.95669-.066,4.69582-.066,3.37428,0,6.07243.0886,8.231.22683,1.22658.07867,2.27784.17359,3.18.27756,4.81781.55585,5.33937,1.37118,5.33937,1.37118V45.8471s-1.08105-.63541-5.33937-1.11178q-1.587-.17217-3.18-.27389c-2.17843-.14014-4.88292-.23322-8.231-.23322-1.73282,0-3.292.02441-4.69672.06867q-2.20656.06629-4.40835.226c-6.18906.46645-7.64616,1.3242-7.64616,1.3242V44.70818Zm-.36248,2.28152c.00091-.23683.49082-.51071,1.52128-.77923l-.0235,4.34782c.56585-.08132,1.32151-.169,2.32214-.25492l.01718-3.79549a1.00283,1.00283,0,0,1,.54957-.81709q1.64125-.2132,3.292-.33175,1.28129-.099,2.79308-.16816,1.01418-.04885,2.13953-.08043c1.37848-.038,2.87442-.05963,4.50146-.05963,3.23418,0,5.96308.08492,8.23189.22506q1.77617.10842,3.17995.2594c3.92026.4113,5.70005,1.00517,5.70278,1.45442l.02621,4.63523s-1.06209-.40587-5.729-.69335c-.91474-.05691-1.9687-.10757-3.18-.15367q-4.11438-.13576-8.231-.12742c-1.73008,0-3.28752.01448-4.694.03794-.7864.01272-1.52489.0308-2.21819.04977-1.83493.05059-3.35349.1211-4.60722.19882-4.57649.28837-5.6196.687-5.6196.687l.02531-4.63435Zm-.10394,5.40174a12.517,12.517,0,0,1,1.76262-.26484,24.43043,24.43043,0,0,0-2.19108,1.74631c.67974-.06418,1.514-.13286,2.53275-.20153a21.01577,21.01577,0,0,1,2.01572-1.74279c.5767-.03794,1.2257-.07588,1.95877-.11117,1.19587-.05691,2.615-.10661,4.29356-.14551q3.45786-.06958,6.84439-.06963c3.44842-.00088,6.22792.04522,8.466.113,1.279.03794,2.3818.085,3.32457.13558a31.10113,31.10113,0,0,1,5.42617.54145,8.68929,8.68929,0,0,1,3.04255,2.57885,41.13528,41.13528,0,0,0-5.82387-.59115q-1.72692-.10169-3.45564-.16447c-2.81116-.10493-6.40871-.17808-10.97886-.17808-2.10159,0-3.99528.01624-5.70367.04249-.69963.00993-1.3658.02346-2.00306.03794-2.58879.05963-4.68044.14551-6.359.24043a43.14125,43.14125,0,0,0-6.19448.61284,8.68938,8.68938,0,0,1,3.04255-2.57885Zm1.21937,9.19274v-6.4539q.85167-.05062,1.70387-.0922c1.72465-.085,3.89222-.16271,6.55333-.21874q3.87059-.07753,7.742-.07595c4.57555,0,8.23912.06963,11.11353.16448,1.29258.04433,2.41976.0922,3.40594.142,3.82534.19065,5.41261.404,5.41261.404v7.27555a35.77818,35.77818,0,0,0-5.41261-.46549q-1.70244-.076-3.40594-.12389c-2.78223-.0786-6.4051-.13286-11.11445-.13286q-3.8712.00033-7.742.05874c-2.737.04522-4.88111.113-6.55334.18985a36.973,36.973,0,0,0-5.63767.47365V55.453s.45919-.06059,1.46975-.14646v6.48374l2.465-.20609ZM99.0855,64.09157s.56946-.04787,1.57371-.11926c1.85391,3.57219-2.7741,3.28477-3.20256,5.72356l3.00732-.085c.57036-1.97505,4.35953-1.66411,2.4315-5.78591q4.03774-.25,8.081-.38417,3.73119-.12838,7.46267-.12838c3.96,0,7.81248.12294,11.02676.26844,1.1742.05427,2.26251.11125,3.23964.16816,3.11031.17808,5.089.34256,5.089.34256-2.22181,3.77924,3.2387,2.5915,3.2387,6.46926,0,0-2.314-.11838-6.69887-.22778q-1.87095-.04665-3.74218-.08044c-3.31733-.05779-7.3813-.10213-12.15212-.10213q-4.26936-.00122-8.53833.0497c-2.64212.03074-4.93082.07419-6.85343.12118-4.70936.112-7.20053.23954-7.20053.23954,0-3.87776,5.4605-2.69009,3.23779-6.46933Zm-3.23779,7.30635s.50347-.00632,1.41641-.01448v5.68562l2.9359-.057V71.35447c.84154-.0072,1.78974-.01265,2.82833-.02073q7.32421-.05438,15.41164-.05427,7.93545-.00066,15.87081.05787c4.1399.02889,6.72238.05963,6.72238.05963v6.501s-2.446-.057-6.72238-.11212q-15.6412-.19323-31.28245-.00537c-4.56112.056-7.18064.11749-7.18064.11749v-6.5Zm.63544,7.9345s.51161-.02169,1.62433-.05243c1.32151,3.67439-4.37131,2.25975-4.37131,5.37189.69692.04162,1.65958.09044,2.93589.142,0-3.24691,5.82208-1.61169,4.29628-5.57894q5.592-.10245,11.185-.12293c1.89909-.00905,3.98622-.01625,6.28668-.01625,6.1312,0,10.79086.0397,14.21305.0858,1.16061.01632,2.17751.03257,3.05972.04978,3.2631.06147,4.684.1211,4.684.1211-1.49506,3.847,4.4373,1.40464,4.26192,5.90252,0,0-1.80781.17713-6.85794.33447-1.07475.03338-2.29413.066-3.6753.09669-3.86783.084-8.99569.14551-15.6855.14551q-4.81614.00165-9.632-.04787-2.90539-.03253-5.81033-.0922c-8.06375-.16992-10.77639-.43748-10.77639-.43748-.17535-4.49693,5.75609-2.05461,4.261-5.90164ZM80.90882,96.2165a1.76583,1.76583,0,0,1-.26214-1.35134s3.28842.46734,9.2506.76291a225.38317,225.38317,0,0,0,25.29045-.25219q-4.85883,0-9.717-.08044c-5.69463-.09764-10.19157-.27661-13.677-.47366a99.851,99.851,0,0,1-10.28648-.93466c.65082-6.39331,10.56217-7.177,10.56217-7.177s.86053.30551,9.40426.49631c1.91447.04242,4.21583.0786,6.98178.10484q1.25553.01346,2.64122.02074c2.18926.01448,4.62619.02169,7.34335.02169,6.0842,0,10.77187-.03978,14.383-.09757,1.62252-.02713,3.0281-.05882,4.243-.0922,6.99895-.18985,7.74467-.45381,7.74467-.45381s9.91315.78372,10.56216,7.177a1.62574,1.62574,0,0,1,.87228,1.03407,1.80491,1.80491,0,0,1-.27479,1.29531s-1.47881.25764-5.61057.54505h-63.834c-4.13537-.28925-5.61688-.54505-5.61688-.54505Zm-8.579,4.17334H82.62715l4.1652,10.58025,2.70721-10.57929h6.75581l-4.8585,18.97479H84.09329L79.49872,107.698l-2.98561,11.66763h-6.7522l3.71417-14.514a4.45,4.45,0,0,0-1.14525-4.46075Zm-5.93235,0L69.168,119.36559H61.91771l-.34349-4.3695H55.21884l-2.399,4.3695h-7.4681L57.69646,100.3908h8.70192ZM30.40205,115.04219c-1.10548,4.31348-6.603,6.5922-13.17627,6.5922s-9.58505-1.85573-9.58505-1.85573l2.52914-4.5367a18.33287,18.33287,0,0,0,7.72841,1.57463c2.28689,0,4.49062-.715,4.8558-2.14321,1.03769-4.05312-12.91233-3.40315-10.80351-11.63962.74572-2.91685,4.76088-6.25052,13.02441-6.25052a20.09243,20.09243,0,0,1,7.69949,1.30435l-2.3836,4.62531a15.064,15.064,0,0,0-5.95767-1.11c-2.69273,0-4.5123.77923-4.7898,1.85484-.94007,3.679,12.95391,3.396,10.85865,11.58448Zm1.279-10.1916,2.26881-4.45979H53.85666l-2.26791,4.46075H45.576l-3.71507,14.514H35.10779l3.71506-14.514H31.682Zm11.27534,33.30907L41.361,144.39394h-6.7522L38.323,129.87806a4.45557,4.45557,0,0,0-1.14525-4.46083H49.028c5.28244,0,8.93332,2.46408,7.9345,6.37169-1.00062,3.90938-5.91427,6.37074-11.1958,6.37074ZM118.44,246.25533,71.73686,221.99982,118.44,242.51947l46.70312-20.51965Zm58.368-44.08726c-1.317,6.09237-7.13362,12.96566-12.92408,15.27335L118.44,235.55486,72.9933,217.44142c-5.78953-2.30769-11.60437-9.1801-12.92136-15.27335L48.56156,148.937h7.07218l11.194,51.77043c.8316,3.84431,5.07184,8.85644,8.72543,10.31358L118.44,228.11292,161.32593,211.02c3.65542-1.45618,7.89473-6.46838,8.72633-10.31357l11.194-51.77044h3.27847a30.40245,30.40245,0,0,0,3.73222.27933l-11.44889,52.95273Zm22.57782-71.71423a12.94868,12.94868,0,0,0-4.77444-.86055c-2.29954,0-3.51892.64357-3.63551,1.091-.48,1.88646,10.479,2.43511,8.899,8.6016-.90663,3.54873-5.31136,5.39453-10.86859,5.39453-5.55362,0-8.033-1.47339-8.033-1.47339l2.314-4.26554a15.44242,15.44242,0,0,0,6.3129,1.2781c1.96147,0,3.41857-.53056,3.61022-1.27354.50889-1.99043-10.53325-2.22549-8.88362-8.6685.79544-3.10677,4.957-5.146,10.88577-5.146a16.86273,16.86273,0,0,1,6.369,1.00783l-2.19649,4.31436Zm7.82786-18.15138c-1.5249,5.95767-6.70971,7.34878-12.66827,7.34878-5.95677,0-10.4311-1.39111-8.90621-7.34878L188.689,100.3908h6.754l-3.04978,11.91078c-.56946,2.22717,1.0666,2.88972,3.293,2.88972,2.229,0,4.205-.66255,4.77353-2.88972l3.04979-11.91078h6.754l-3.04889,11.91078Zm23.2485-5.541c-1.0006,3.90762-5.91425,6.3717-11.19488,6.3717h-2.81116l-1.5936,6.23243h-6.7558l4.85669-18.97479h9.56426C227.80928,100.3908,231.46286,102.85392,230.46223,106.76146Z"/><path class="cls-9" d="M118.43909,194.82113a5.73486,5.73486,0,0,1,.63545-.58034c1.26546-.72218,5.45689-1.16966,8.88361-2.0419,4.74824-1.20943,9.86072-5.42438,9.86072-11.83938,0-3.199-1.40194-5.30417-2.323-8.51756l-26.96359,20.25026c.13016.03794.25943.07235.38869.10668,3.4267.87224,7.61812,1.31972,8.8845,2.04278a5.71894,5.71894,0,0,1,.63455.57946m16.274-28.728a22.82852,22.82852,0,0,1,1.185-7.11372,10.88752,10.88752,0,0,1-3.58311-3.2053L99.06652,180.74544a12.17581,12.17581,0,0,0,6.95738,10.34975l28.92869-21.72812a21.57469,21.57469,0,0,1-.23955-3.27486Zm-20.86219,16.92121-2.57433,1.93072-2.775-4.24833v6.3328l-2.43332,1.82763V179.8985a1.24337,1.24337,0,0,0-1.20942-1.2998l3.44931-2.58878,3.10672,4.75633V173.676l2.436-1.82948Zm9.81372-7.37319-2.38,1.78793v-4.083l-2.747,2.06093v4.083l-2.49931,1.87829v-8.95775a1.24376,1.24376,0,0,0-1.20942-1.30075l3.70873-2.784v4.12636l2.747-2.06278v-4.12628l2.38-1.78793Zm8.97943-6.74587-6.90224,5.18572v-8.95776a1.24263,1.24263,0,0,0-1.20761-1.30075l3.70691-2.784v8.31418l4.40294-3.30654a14.35637,14.35637,0,0,0,0,2.85Zm-6.49548-12.4423a13.15676,13.15676,0,0,1-7.71033-2.64665,13.15491,13.15491,0,0,1-7.70853,2.64665,11.56075,11.56075,0,0,1-5.59791-1.54023,11.04865,11.04865,0,0,1-4.15074,4.06577,22.84462,22.84462,0,0,1,1.1823,7.11372c0,5.65578-1.93074,8.306-2.74607,11.50676l28.324-21.27352a10.39617,10.39617,0,0,1-1.59269.12662M90.77226,136.03366l-.48267-6.1348-3.36707,6.1348h3.85065m42.15558-6.44125c-3.91034,0-5.7064,2.37908-6.45754,5.31321-.74932,2.93494-.17354,5.314,3.73858,5.314,3.9112,0,5.70546-2.37908,6.4566-5.314.75026-2.93413.17538-5.31321-3.73854-5.31321m-82.72118,2.19651a1.43311,1.43311,0,0,0-1.421-1.91086H45.07519l-.978,3.82166H47.8077a2.63035,2.63035,0,0,0,2.399-1.9108m172.07972-26.93737h-3.71053l-.97893,3.82078h3.71053a2.63155,2.63155,0,0,0,2.399-1.91087,1.43318,1.43318,0,0,0-1.42-1.90991"/><path class="cls-9" d="M118.44,199.80259s1.64328-1.78257,1.89549-2.01844c1.97684-.71232,4.65874-.96267,8.54735-1.94432a16.21927,16.21927,0,0,0,12.66194-15.48032c0-5.94135-3.10223-7.77722-3.10223-14.2673a21.19455,21.19455,0,0,1,2.41344-9.32832s-5.93416-.51887-7.54131-7.73384c0,0-3.56049,3.66535-7.16528,3.66535-4.6497,0-7.71034-3.952-7.71034-3.952s-3.05882,3.952-7.70852,3.952c-3.6066,0-7.16619-3.66535-7.16619-3.66535-1.60715,7.215-7.5413,7.73288-7.5413,7.73288a21.18948,21.18948,0,0,1,2.41523,9.32928c0,6.49-3.104,8.32588-3.104,14.2673a16.21926,16.21926,0,0,0,12.66286,15.48032c3.88861.98157,6.57141,1.232,8.54645,1.94337.2531.23682,1.89641,2.01932,1.89641,2.01932ZM97.07793,180.35951c0-5.41167,3.10493-7.39673,3.10493-14.2673A20.495,20.495,0,0,0,98.432,157.8956s4.03866-.81621,5.9206-5.92789a10.27363,10.27363,0,0,0,6.378,2.50121,11.50923,11.50923,0,0,0,7.70944-3.25323,11.50916,11.50916,0,0,0,7.70943,3.25323,10.27981,10.27981,0,0,0,6.378-2.50121c1.881,5.11168,5.91969,5.92789,5.91969,5.92789a20.50369,20.50369,0,0,0-1.75,8.19661c0,6.86969,3.1049,8.85563,3.1049,14.2673,0,7.55936-5.89256,12.37451-11.35579,13.762-4.32609,1.09825-7.15353,1.22391-9.05444,2.14137,0,0-.68969.63-.9518.922-.26214-.29205-.95273-.922-.95273-.922-1.9-.91746-4.72744-1.04312-9.05446-2.14226-5.4614-1.38662-11.35488-6.20082-11.35488-13.76113Z"/><path class="cls-3" d="M143.9076,194.29505a2.20574,2.20574,0,1,0-.16771.84452A2.18458,2.18458,0,0,0,143.9076,194.29505Zm-3.93923,0a1.73278,1.73278,0,1,1,1.73281,1.73279,1.731,1.731,0,0,1-1.73281-1.73279Z"/><path class="cls-3" d="M137.89841,215.06418h-1.35766c-3.37881,0-4.24837-1.32693-4.24837-2.45232,0,0-.01627-2.606,0-4.08834,0-1.08834.91476-2.37732,4.23392-2.37732h1.51946c3.46739-.01353,4.3234,1.11,4.3234,2.37732v4.13716c0,1.232-.63453,2.4035-4.47073,2.4035Zm2.75874-6.4792c0-.395-.17717-1.17149-2.58156-1.17149-.50167,0-1.15068.02169-1.5493.02169-2.34565-.02169-2.50835.76651-2.50835,1.12539v3.95637c0,.33447.11752,1.28987,2.465,1.28987h1.47337c2.70088,0,2.70088-.82254,2.70088-1.24105V208.585Zm-20.94085,6.29928v-1.11179c7.09659-3.71865,8.58713-4.45987,8.58713-5.1044v-.179c0-.39587-.17807-1.07562-2.58338-1.07562h-1.31246c-2.34655-.02441-2.52281.64446-2.52281,1.01415v.33447h-1.72556v-.36969c.01447-.837.92922-2.2363,4.24837-2.22365.41309,0,.81081-.02257,1.28355-.02257,3.29021.02345,4.32338,1.02686,4.32338,2.29409v.3227c0,1.15973-2.464,2.27247-7.37769,4.864H130.236v1.2573H119.7163m-6.56238.17992h-1.35766c-3.3788,0-4.24836-1.32693-4.24836-2.45232,0,0-.01446-2.606,0-4.08834,0-1.08834.91476-2.37732,4.23391-2.37732h1.51946c3.46741-.01353,4.32339,1.11,4.32339,2.37732v4.13716C117.62466,213.89268,116.99012,215.06418,113.15392,215.06418Zm2.75875-6.4792c0-.395-.17717-1.17149-2.58158-1.17149-.50166,0-1.15066.02169-1.54928.02169-2.34474-.02169-2.50835.76651-2.50835,1.12539v3.95637c0,.33447.11751,1.28987,2.46316,1.28987h1.47789c2.69816,0,2.69816-.82254,2.69816-1.24105V208.585Zm-21.02581,6.29928v-1.11179c7.09567-3.71865,8.58623-4.45987,8.58623-5.1044v-.179c0-.39587-.17627-1.07562-2.58158-1.07562H99.57723c-2.34473-.02441-2.5219.64446-2.5219,1.01415v.33447H95.32886v-.36969c.01446-.837.931-2.2363,4.24836-2.22365.414,0,.81262-.02257,1.28536-.02257,3.29023.02345,4.32249,1.02686,4.32249,2.29409v.3227c0,1.15973-2.46315,2.27247-7.37681,4.864h7.59826v1.2573H94.88684m47.72-19.32912-.49714-1.06665a.74843.74843,0,0,0-.2513-1.45258h-1.063v2.51923h.47365v-1.02231h.33716l.47907,1.02231Zm-.74752-1.49692h-.59025v-.55137h.58933a.27569.27569,0,1,1,0,.55137Z"/></g></svg>