<svg height="328.645421" viewBox="0 0 162.17 175.26" width="304.279304" xmlns="http://www.w3.org/2000/svg" xmlns:xlink="http://www.w3.org/1999/xlink"><linearGradient id="a" gradientUnits="userSpaceOnUse" x1="81.19" x2="81.19" y1="76.64" y2="161.49"><stop offset=".15" stop-color="#fff"/><stop offset=".29" stop-color="#fafafa"/><stop offset=".46" stop-color="#ebeced"/><stop offset=".64" stop-color="#d2d5d7"/><stop offset=".84" stop-color="#afb5b9"/><stop offset=".97" stop-color="#949ca1"/></linearGradient><linearGradient id="b" gradientUnits="userSpaceOnUse" x1="119.8508" x2="124.1908" y1="169.03" y2="169.03"><stop offset=".11" stop-color="#fff"/><stop offset=".24" stop-color="#dddfe1"/><stop offset=".44" stop-color="#a8afb3"/><stop offset=".54" stop-color="#949ca1"/></linearGradient><linearGradient id="c" gradientUnits="userSpaceOnUse" x1="96.57" x2="96.57" y1="118.85" y2="106.69"><stop offset="0" stop-color="#fff"/><stop offset=".35" stop-color="#fff"/><stop offset=".56" stop-color="#949ca1"/><stop offset="1" stop-color="#949ca1"/></linearGradient><linearGradient id="d" gradientUnits="userSpaceOnUse" x1="64.83" x2="81.21" y1="132.77" y2="132.77"><stop offset=".15" stop-color="#fff"/><stop offset=".21" stop-color="#fafafa"/><stop offset=".29" stop-color="#ebeced"/><stop offset=".37" stop-color="#d2d5d7"/><stop offset=".45" stop-color="#afb5b9"/><stop offset=".51" stop-color="#949ca1"/></linearGradient><linearGradient id="e" gradientUnits="userSpaceOnUse" x1="90.92" x2="71.51" y1="131.95" y2="104.21"><stop offset="0" stop-color="#949ca1"/><stop offset=".01" stop-color="#99a1a5"/><stop offset=".12" stop-color="#c2c6c8"/><stop offset=".2" stop-color="#dbddde"/><stop offset=".25" stop-color="#e4e5e6"/><stop offset=".75" stop-color="#e4e5e6"/><stop offset=".8" stop-color="#dcdedf"/><stop offset=".88" stop-color="#c6cacc"/><stop offset=".97" stop-color="#a3aaae"/><stop offset="1" stop-color="#949ca1"/></linearGradient><linearGradient id="f" gradientUnits="userSpaceOnUse" x1="70.47" x2="81.21" y1="102.42" y2="102.42"><stop offset=".25" stop-color="#fff"/><stop offset=".34" stop-color="#fafafa"/><stop offset=".45" stop-color="#ebeced"/><stop offset=".57" stop-color="#d2d5d7"/><stop offset=".7" stop-color="#afb5b9"/><stop offset=".79" stop-color="#949ca1"/></linearGradient><linearGradient id="g" gradientUnits="userSpaceOnUse" x1="81.21" x2="98.25" y1="128.79" y2="128.79"><stop offset=".2" stop-color="#fff"/><stop offset=".33" stop-color="#fafbfb"/><stop offset=".47" stop-color="#edeeef"/><stop offset=".63" stop-color="#d7dadc"/><stop offset=".79" stop-color="#b8bdc0"/><stop offset=".93" stop-color="#949ca1"/></linearGradient><linearGradient id="h" x1="81.21" x2="91.95" xlink:href="#f" y1="102.42" y2="102.42"/><linearGradient id="i" gradientUnits="userSpaceOnUse" x1="64.18" x2="71.01" y1="103.81" y2="103.81"><stop offset=".39" stop-color="#fff"/><stop offset=".47" stop-color="#fafafa"/><stop offset=".57" stop-color="#ebeced"/><stop offset=".68" stop-color="#d2d5d7"/><stop offset=".79" stop-color="#afb5b9"/><stop offset=".87" stop-color="#949ca1"/></linearGradient><linearGradient id="j" gradientUnits="userSpaceOnUse" x1="150.37" x2="150.37" y1="82.83" y2="75.23"><stop offset="0" stop-color="#fff"/><stop offset=".15" stop-color="#fff"/><stop offset=".25" stop-color="#fafafa"/><stop offset=".38" stop-color="#ebeced"/><stop offset=".51" stop-color="#d1d5d7"/><stop offset=".66" stop-color="#aeb5b9"/><stop offset=".81" stop-color="#828c92"/><stop offset=".82" stop-color="#7c868d"/><stop offset="1" stop-color="#7c868d"/></linearGradient><linearGradient id="k" x1="97.79" x2="97.79" xlink:href="#j" y1="82.7" y2="75.82"/><linearGradient id="l" x1="84.03" x2="84.03" xlink:href="#j" y1="82.89" y2="75.05"/><linearGradient id="m" x1="70.9" x2="70.9" xlink:href="#j" y1="82.86" y2="75.2"/><linearGradient id="n" x1="59.83" x2="59.83" xlink:href="#j" y1="82.75" y2="75.61"/><linearGradient id="o" x1="51.16" x2="51.16" xlink:href="#j" y1="82.56" y2="76.38"/><linearGradient id="p" x1="39.45" x2="39.45" xlink:href="#j" y1="82.44" y2="76.82"/><linearGradient id="q" x1="27.23" x2="27.23" xlink:href="#j" y1="82.31" y2="77.34"/><linearGradient id="r" x1="135.06" x2="135.06" xlink:href="#j" y1="83.03" y2="75.44"/><linearGradient id="s" x1="117.43" x2="117.43" xlink:href="#j" y1="83.98" y2="77.96"/><linearGradient id="t" x1="13.24" x2="13.24" xlink:href="#j" y1="84.25" y2="77.34"/><linearGradient id="u" x1="44.85" x2="44.85" xlink:href="#j" y1="99.72" y2="92.7"/><linearGradient id="v" x1="59.68" x2="59.68" xlink:href="#j" y1="99.72" y2="92.69"/><linearGradient id="w" x1="74.66" x2="74.66" xlink:href="#j" y1="99.73" y2="92.65"/><linearGradient id="x" x1="103.88" x2="103.88" xlink:href="#j" y1="99.75" y2="92.56"/><linearGradient id="y" x1="116.89" x2="116.89" xlink:href="#j" y1="99.75" y2="92.55"/><linearGradient id="z" x1="31.52" x2="31.52" xlink:href="#j" y1="99.72" y2="92.7"/><linearGradient id="A" x1="90.06" x2="90.06" xlink:href="#j" y1="99.72" y2="92.62"/><linearGradient id="B" x1="130.74" x2="130.74" xlink:href="#j" y1="99.72" y2="92.61"/><g fill="#fff"><path d="m51.32 145.89 29.89 11.91 29.89-11.91a13.1 13.1 0 0 0 6.78-8l7.73-35.76h-1.34l-7.68 35.49a11.76 11.76 0 0 1 -6 7.07l-29.4 11.72-29.39-11.74a11.79 11.79 0 0 1 -6-7.07l-7.67-35.49h-1.33l7.74 35.76a13 13 0 0 0 6.78 8.02z"/><path d="m89 30.67v-1c-.62-.07-1.34-.14-2.18-.19v1c.86.06 1.59.12 2.18.19z"/><path d="m78 29.41-1.41.05v1l1.41-.09z"/><path d="m76.47 34.78h1.52v-3.41a.82.82 0 0 1 .13-.44l-1.47.07a.92.92 0 0 0 -.18.53z"/><path d="m89 31.22c-.64-.07-1.37-.13-2.18-.18v3.77c.83 0 1.55.07 2.18.11z"/><path d="m88.73 37.17c.91 0 1.69.07 2.37.11a3.4 3.4 0 0 0 -1.81-1.73c-.65 0-1.4-.07-2.28-.1a3 3 0 0 1 1.72 1.72z"/><path d="m77.3 37.07a5.8 5.8 0 0 1 .6-1.67h-1.39a6.09 6.09 0 0 0 -.59 1.68z"/><path d="m75.9 42.55h1.37v-5h-1.37z"/><path d="m91.16 37.74-2.33-.1v5l2.33.09z"/><path d="m89.54 48.16 2.56.06c-.1-2.67-3.52-2.7-1.1-4.52l-2.22-.11c-2.4 1.67.66 1.88.76 4.57z"/><path d="m77.43 43.45h-1.34c1.07 2-.89 2.17-.74 4.64h1.36c-.14-2.45 1.83-2.57.72-4.64z"/><path d="m92.09 48.91h-2.57v4.39h2.57z"/><path d="m76.73 48.87h-1.4v4.4h1.4z"/><path d="m76.9 54.22h-1.43c1.16 2.11-1.14 2-.87 4.57h1.4c-.25-2.58 2.07-2.45.9-4.57z"/><path d="m94.48 58.66c.39-2.48-3.64-2.63-1.43-4.36h-2.1c-2.09 2.36 1.68 2.1 1 4.46z"/><path d="m91.07 59.82c2.22.49 7.53 1.88 7.53 4.12 0 1.34-1.76 1.11-17.4 1.91 0 0 15.27.18 25.93-.78a1.1 1.1 0 0 0 -.6-.7c-2.11.19-4.51.38-4.51.38.49-3.29-5.21-4.57-8-5z"/><path d="m72.32 65.33h1.83c-.17-3.32 1.36-5 2-5.49h-1.79c-.65.54-2.2 2.16-2.04 5.49z"/><path d="m77.43 23.7 1.24-.11v-.37l-1.24.11z"/><path d="m86.27 23.5c-.37-.07-.79-.12-1.25-.17v.37c.47.05.89.11 1.25.17z"/><path d="m70.24 4.55-.08-.91-1.16.16.08.91z"/><path d="m96.44 5.32c0-.31 0-.62 0-.92-.75-.19-1.66-.38-2.77-.56q0 .5 0 .93c1.14.17 2.04.36 2.77.55z"/><path d="m91 4.42c0-.31-.07-.63-.12-.94-2.51-.25-5.69-.42-9.7-.42h-1.26c0 .31-.1.62-.14.92h1.43a97.18 97.18 0 0 1 9.79.44z"/><path d="m94.29 8.19a3 3 0 0 1 2-1c0-.28.06-.78.1-1.36-.73-.19-1.62-.37-2.69-.54v2.36a5.15 5.15 0 0 1 .59.54z"/><path d="m86.16 8a5.53 5.53 0 0 1 4-1.51 6.2 6.2 0 0 1 1 .08c0-.52 0-1.06-.05-1.6a97.31 97.31 0 0 0 -9.86-.44h-1.53c-.07.65-.1 1.29-.11 1.92a8 8 0 0 1 1.6-.15 7.57 7.57 0 0 1 4.95 1.7z"/><path d="m69.29 7.27a5.31 5.31 0 0 1 1.15-.5l-.15-1.68-1.17.16z"/><path d="m93.36 13.82c1 0 .3 1.26.78 1.26.28 0 .15-.71.69-.79a16.43 16.43 0 0 0 1.08-6.56 2.88 2.88 0 0 0 -1.62 1.16 4.18 4.18 0 0 0 -.86-.89 16.27 16.27 0 0 1 -1.06 6.12.67.67 0 0 0 .22 0c.31.06.24-.3.77-.3z"/><path d="m69.64 11.41c0 .51.2 1.15.56 1.15s.15-1.12.62-1.52l-.34-3.82a5.35 5.35 0 0 0 -1.15.55z"/><path d="m81.76 14.74c1.11 0 .28-1.57 1.58-1.57.94 0 .65 1 1.41 1 1.09 0 .42-2.38 1.72-2.38.81 0 .56.8 1.33.8 1 0 .33-2.11 1.45-2.11s.39 1.66 1.3 1.76a32.37 32.37 0 0 0 .57-5.24 6.2 6.2 0 0 0 -1-.08 4.83 4.83 0 0 0 -3.94 1.7 6.82 6.82 0 0 0 -5-1.89 7.81 7.81 0 0 0 -1.6.16 25.92 25.92 0 0 0 1.12 7.11c.22.34.37.74 1.06.74z"/><path d="m66.08 14.78c-.59 0 .31.82.37 2.19 0 .03.08-2.19-.37-2.19z"/><path d="m67.4 13.91a.39.39 0 0 0 -.38.38 5.17 5.17 0 0 1 .84 3c.14-1.5.14-3.38-.46-3.38z"/><path d="m69.29 16.54c.47-1.54.88-4.24-.05-4.24a.49.49 0 0 0 -.5.5c0 .52.78.74.55 3.74z"/><path d="m71.1 17.74c.57-3.07 1-6.54.17-6.54a.42.42 0 0 0 -.46.38c0 .62.86.97.29 6.16z"/><path d="m73.86 12.26a.43.43 0 0 0 -.45.44c0 .3.87 1-.3 5.7.98-1.48 1.74-6.14.75-6.14z"/><path d="m77.53 14.09a.65.65 0 0 0 -.6-.64c-1.28 0-.08 2.19-1.77 5.85a11.08 11.08 0 0 0 1.93-4.3c.07-.4.44-.52.44-.91z"/><path d="m80.53 14.57a.57.57 0 1 0 -1.14 0c0 1.94-1.15 2.75-2.51 5.48 1.91-3.05 3.65-3.78 3.65-5.48z"/><path d="m82.77 14.13c-.35 3-1.65 1.75-3.22 5.06 1.47-2.47 3-1.39 4-5.2.14-.38-.67-.75-.78.14z"/><path d="m86 12.7c0 3.35-1.79 3.78-4.2 6.33 2.33-1.8 5.2-3.12 5.2-6.33a.5.5 0 1 0 -1 0z"/><path d="m88.76 11.43a9 9 0 0 1 -3.59 7.06c2.44-.91 4.59-5.16 4.59-7.21 0-.68-1-.71-1 .15z"/><path d="m87.61 18.76s3.34-1.51 4.45-6.41c.1-.46-.75-.61-.8 0a9.81 9.81 0 0 1 -3.65 6.41z"/><path d="m93 14.5a9.35 9.35 0 0 1 -2.75 4.22 9 9 0 0 0 3.45-4.1.36.36 0 1 0 -.7-.12z"/><path d="m94.56 14.9a7.39 7.39 0 0 1 -2.71 4.27 8.25 8.25 0 0 0 3.47-4.06c.14-.37-.65-.76-.76-.21z"/><path d="m94.77 18.23a7.8 7.8 0 0 0 2.32-3.4.34.34 0 1 0 -.67-.05 7.68 7.68 0 0 1 -1.65 3.45z"/><path d="m76.58 29h1.42v-.16a1 1 0 0 1 -.27-.07l-1.14.07z"/><path d="m86.85 28.85v.23c.84.07 1.56.14 2.18.22v-.24l-.87-.06a.7.7 0 0 1 -.71-.07z"/><path d="m87.15 27.17a1.89 1.89 0 0 1 -.65-1.64l-1.25-.14a2.12 2.12 0 0 0 .38 1.55 1 1 0 0 1 1 .3h.33a.52.52 0 0 1 .19-.07z"/><path d="m78.92 27a3.24 3.24 0 0 0 .08-1.76c-.42 0-.83.06-1.21.09a3.14 3.14 0 0 1 -.23 1.67.84.84 0 0 1 1.19 0z"/><path d="m86.18 27.12c-.38 0-.2 1.1.34 1.13s.04-1.18-.34-1.13z"/><path d="m91 28.79c.36-.19-.3-1.05-.53-1s.13 1.21.53 1z"/><path d="m84.43 27c-.46 0-.28 1.22.35 1.22s.04-1.22-.35-1.22z"/><path d="m82.74 28c.56 0 .21-1.22-.43-1.22-.31.04-.2 1.22.43 1.22z"/><path d="m80.3 28c.52-.15-.11-.86 0-1.14-.89-.44-.69 1.39 0 1.14z"/><path d="m91.77 28.9c.25-.13-.24-.84-.43-.87s.17.97.43.87z"/><path d="m92.27 29c.23-.17-.18-.73-.33-.7s.06.89.33.7z"/><path d="m89.72 28.63c.52-.13-.07-1.06-.39-1.09s-.11 1.21.39 1.09z"/><path d="m88.26 28.5c.52-.13-.06-1.12-.38-1.15s-.12 1.27.38 1.15z"/><path d="m71.8 28.33c.24.14.27-.43.53-.68-.59 0-.69.59-.53.68z"/><path d="m70.84 28.5c.16.09.23-.4.39-.57-.38.07-.5.52-.39.57z"/><path d="m78.18 28.11c.46 0 0-.72.18-1-.71-.56-.77 1.02-.18 1z"/><path d="m76.28 28.07c.4.1.25-.67.43-.93-.71-.36-.83.86-.43.93z"/><path d="m73.09 28.22c.26.1.3-.53.5-.75-.59-.1-.82.64-.5.75z"/><path d="m74.63 28.16c.31.09.22-.59.46-.84-.72-.14-.87.68-.46.84z"/><path d="m67.43 115.14c-.48 3-2.49 5.52-2.49 8.51a10.68 10.68 0 0 0 .44 3.14c1.26 4.21 5 6.55 8.67 7.47a11.13 11.13 0 0 1 -8.69-10.61c0-3.65 1.72-5.05 2.07-8.51z"/><path d="m88.37 134.26c5.06-1.28 9.08-5 9.08-10.61a12.12 12.12 0 0 0 -1.1-4.8 12.81 12.81 0 0 1 -1.43-5c0 4.45 2.13 5.71 2.13 9.78a11.12 11.12 0 0 1 -8.68 10.63z"/><path d="m147.32 81.83 1.09-4.27h1.93c3.62 0 7-1.69 7.67-4.37s-1.82-4.37-5.44-4.37h-6.57l-3.33 13zm2.54-10h2.55a1 1 0 0 1 1 1.31 1.79 1.79 0 0 1 -1.64 1.31h-2.55zm-1 1.17-.56 2.19h3.28a2.82 2.82 0 0 0 2.54-2c1.1.11 2.11.23 3 .37-.88 2.09-3.89 3.18-6.59 3.18h-2.67s-.83 3.27-1.09 4.28h-3.16c.21-.8 1.25-4.89 2-8 1.15.04 2.21.03 3.22.03z"/><path d="m47.83 81.83h4.63l2-8 3.15 8h5l3.33-13h-4.58l-1.85 7.26-2.86-7.26h-7.06a3.07 3.07 0 0 1 .79 3.06zm10.08-7.58 1.7 4.32 1.18-4.57 3.21-.39c-.77 3-1.72 6.73-1.91 7.49h-3.84l-2.61-6.63zm-4.35.41-1.65 6.44h-3.15l1.57-6.17z"/><path d="m75.64 81.83 1.79-3h-7.36l2.54-10h-4.61l-3.33 13zm-4.84-8.83-1.66 6.49h7.08l-.93 1.59h-9.71l2-7.84z"/><path d="m98.37 73.57-2-4.75h-17.11a3.07 3.07 0 0 1 .79 3.06l-2.55 10h11.56l1.79-3h-7.94l.47-1.88h6.24l.78-3.06h-6.24l.52-2h6.62l.7-2.71 3.33 7.38-1.33 5.22h4.6l1.34-5.21 7.88-7.8h-4.92zm-8.9 1.07c-.15.58-.26 1-.4 1.58h-6.24l-.83 3.29h7.65l-.92 1.59h-10.31c.26-1 1.59-6.19 2.13-8.31 1.07 0 2.12 0 3.13.09l-.45 1.76zm9.79 1.73-1.21 4.73h-3.15l1.21-4.72-1.11-2.45c1 .15 2 .31 2.83.47.13.29.2.48.2.48l.36-.37c.82.16 1.58.31 2.28.47z"/><path d="m36.21 81.83 1.65-3h4.36l.23 3h5l-1.9-13h-6l-8.46 13zm5.46-9.93.33 4.2h-2.64zm-2.85 3.8-.63 1.14h4.65l-.11-1.36 2.94-.19c.37 2.49.73 5 .85 5.81h-3.35c-.05-.7-.23-3-.23-3h-5.44s-1.26 2.28-1.65 3h-3.48l3.42-5.27z"/><path d="m26.62 71.88-2.55 10h4.63l2.55-10h4.12l1.56-3.06h-13.65l-1.56 3.06zm1.53 9.22h-3.15c.15-.6.73-2.86 1.3-5.08h3.16c-.57 2.2-1.15 4.48-1.31 5.08z"/><path d="m133.39 82c4.08 0 7.64-1 8.68-5l2.09-8.17h-4.63l-2.09 8.17c-.39 1.53-1.74 2-3.27 2s-2.65-.45-2.26-2l2.09-8.18h-4.63l-2.09 8.18c-1.04 4.07 2.02 5 6.11 5zm-5.39-5s.23-.92.54-2.12l3.27-.42c-.36 1.4-.66 2.54-.66 2.54-.25 1-.23 2.72 2.81 2.72 2.27 0 3.76-1 4.2-2.72 0 0 .43-1.67.88-3.44l3.23-.27-.93 3.71c-.78 3-3.1 4.3-7.76 4.3s-6.33-1.3-5.58-4.3z"/><path d="m119.48 83.39a20.76 20.76 0 0 0 6-.77l-.44-3.12a14.14 14.14 0 0 1 -4.36.59c-5.64 0-6.06-3.54-5.63-5.22.65-2.57 2.81-5.22 7.88-5.22a13.31 13.31 0 0 1 3.72.45l1.74-3a14.58 14.58 0 0 0 -5-.74c-8.94 0-12.75 4.35-13.82 8.52-.88 3.63 1.57 8.51 9.91 8.51zm-5.26-7.12c.08 2 1.44 4.55 6.32 4.55a16.1 16.1 0 0 0 3.88-.43c.08.56.16 1.1.25 1.74a23 23 0 0 1 -5 .52c-6.45 0-9.37-3.06-9.48-6.22 1.16-.02 2.49-.07 4.03-.16z"/><path d="m20.84 78.87c1.44-5.61-8.09-5.42-7.44-7.94.19-.74 1.44-1.27 3.28-1.27a10.34 10.34 0 0 1 4.09.76l1.63-3.17a13.7 13.7 0 0 0 -5.28-.9c-5.66 0-8.41 2.29-8.93 4.29-1.44 5.64 8.12 5.2 7.41 8-.25 1-1.76 1.47-3.33 1.47a12.61 12.61 0 0 1 -5.27-1.11l-1.76 3.12s2.06 1.27 6.57 1.27 8.28-1.56 9.03-4.52zm-13.64 1.13a14 14 0 0 0 4.88.84c2.24 0 3.92-.86 4.26-2.2.41-1.63-1.32-2.37-3.22-3.17q2.78.27 6.19.44a2.9 2.9 0 0 1 .8 3c-.72 2.79-4.82 3.78-8.11 3.78a15.14 15.14 0 0 1 -5.76-1c.32-.55.61-1.08.96-1.69z"/><path d="m41.94 86-3.33 13h11l1.79-3.06h-7.4l2.55-10zm8.23 10.69-.92 1.58h-9.72c.22-.83 1.34-5.21 2.14-8.36h3.16c-.75 2.94-1.74 6.79-1.74 6.79z"/><path d="m59.79 86-8.46 13h5.12l1.64-3h4.36l.24 3h5l-1.9-13zm2.45 7.28h-2.64l2.31-4.21zm1.17 5c-.06-.69-.24-3-.24-3h-5.44l-1.64 3h-3.49l5.28-8.11 2.6.11-2.06 3.72h4.65l-.28-3.65 2.83.15c.44 3 1 6.74 1.14 7.75z"/><path d="m74.85 90.73-2-4.75h-4.58l3.52 7.79-1.33 5.23h4.63l1.33-5.22 7.88-7.78h-4.92zm.9 2.8s-.94 3.64-1.21 4.72h-3.16l1.21-4.71s-.55-1.23-1.21-2.67l2.72.19c.25.58.41 1 .41 1l.84-.87 2.59.2z"/><path d="m98.89 99h4.63l1.25-4.88h2.9l2.61-3h-4.73l.52-2h4.79l2.61-3.12h-12.82a3.06 3.06 0 0 1 .79 3.06zm9-6.21c-.2.25-.37.44-.5.6h-3.22l-1.17 4.86h-3.19c.18-.68.85-3.32 1.44-5.6 2.31.06 4.55.11 6.69.13z"/><path d="m111.84 99h4.63l1.25-4.88h2.9l2.61-3h-4.73l.52-2h4.8l2.6-3.06h-12.82a3.06 3.06 0 0 1 .79 3.06zm9.16-6.34-.62.72h-3.22s-1 3.81-1.25 4.87h-3.15c.17-.67.82-3.21 1.4-5.46 2.42-.02 4.7-.07 6.84-.13z"/><path d="m23.73 99h4.63l1.09-4.27h1.93c3.62 0 7-1.69 7.68-4.37s-1.82-4.36-5.44-4.36h-8.13a3.06 3.06 0 0 1 .79 3zm7.18-10h2.54a1 1 0 0 1 1 1.31 1.8 1.8 0 0 1 -1.64 1.31h-2.58zm-4.26 1.44 3.2-.21-.54 2.13h3.28a2.82 2.82 0 0 0 2.57-2.05 1.8 1.8 0 0 0 .06-.32l3.17-.09a2.93 2.93 0 0 1 -.07.41c-.61 2.42-3.86 3.69-6.75 3.69h-2.67l-1.09 4.27h-3.15c.23-.94 1.34-5.44 1.99-7.79z"/><path d="m91.92 85.79c-6.64 0-9.33 3-10.28 6.7s.21 6.7 6.85 6.7 9.34-3 10.29-6.7-.21-6.7-6.86-6.7zm-5.21 6.7c.52-2 1.75-3.65 4.43-3.65s3.08 1.63 2.56 3.65-1.7 3.64-4.42 3.64-3.08-1.63-2.57-3.64zm2 6c-7 0-7-3.4-6.3-6 .06-.25.14-.51.23-.78l3.52.24c0 .17-.11.35-.15.54-.73 2.82.38 4.38 3.11 4.38s4.63-1.56 5.35-4.38c0 0 0-.06 0-.09l3.56.15c-.67 2.55-2.38 5.9-9.35 5.9z"/><path d="m133.43 88.84a8.76 8.76 0 0 1 3.28.6l1.5-3a11.59 11.59 0 0 0 -4.37-.69c-4.06 0-6.91 1.39-7.46 3.52-1.13 4.42 6.44 4.58 6.09 6-.13.51-1.13.87-2.47.87a10.53 10.53 0 0 1 -4.33-.88l-1.59 2.93s1.7 1 5.51 1 6.83-1.27 7.45-3.7c1.08-4.23-6.43-4.6-6.1-5.9.06-.3.92-.75 2.49-.75zm-.06 3.09c1.68.71 3.41 1.72 2.94 3.56-.56 2.18-3.74 3-6.53 3a13.33 13.33 0 0 1 -4.69-.71l.82-1.52a12.06 12.06 0 0 0 3.9.65c1.84 0 3.14-.62 3.4-1.61.38-1.49-2.56-1.88-4.52-3z"/></g><path d="m50.05 149.07 31.16 12.42 31.16-12.42a16.37 16.37 0 0 0 8.86-10.47l7.85-36.3a22.46 22.46 0 0 1 -2.56-.19h-.91l-7.73 35.76a13.1 13.1 0 0 1 -6.78 8l-29.89 11.93-29.89-11.91a13 13 0 0 1 -6.78-8l-7.74-35.78h-3.5l7.89 36.49a16.34 16.34 0 0 0 8.86 10.47z" fill="url(#a)"/><path d="m64.94 123.65c0-3 2-5.48 2.49-8.51 0-.4.06-.82.06-1.27a14.58 14.58 0 0 0 -1.65-6.4l-1.66-.78 1.13 2.55a11.59 11.59 0 0 1 1 4.64c0 4.34-2.13 5.21-2.13 9.77a11.47 11.47 0 0 0 .66 3.89 2.55 2.55 0 0 1 .55-.75 10.68 10.68 0 0 1 -.45-3.14z" fill="url(#b)"/><path d="m94.92 113.87a12.81 12.81 0 0 0 1.43 5h.89a11.7 11.7 0 0 1 -1.12-4.94 11.42 11.42 0 0 1 1-4.64l1.12-2.55-1.65.78a14.52 14.52 0 0 0 -1.67 6.35z" fill="url(#c)"/><path d="m81.21 137s-1.13-1.22-1.3-1.39c-1.36-.48-3.2-.66-5.86-1.33-3.64-.92-7.41-3.26-8.67-7.47a2.55 2.55 0 0 0 -.55.75 12.82 12.82 0 0 0 8.92 7.9c2.49.63 3.65.69 5.5 1.21l2 2.1z" fill="url(#d)"/><path d="m66.56 123.65c0 5.18 4 8.48 7.79 9.43 3 .76 4.9.84 6.2 1.47 0 0 .48.43.66.63.18-.2.65-.63.65-.63 1.3-.63 3.24-.71 6.21-1.47 3.74-1 7.78-4.25 7.78-9.43 0-3.71-2.12-5.07-2.12-9.78a14.12 14.12 0 0 1 1.19-5.62 6.08 6.08 0 0 1 -4-4.07 7.05 7.05 0 0 1 -4.38 1.72 7.89 7.89 0 0 1 -5.28-2.23 7.9 7.9 0 0 1 -5.29 2.23 7 7 0 0 1 -4.37-1.72 6.08 6.08 0 0 1 -4.06 4.07 14 14 0 0 1 1.2 5.62c-.05 4.71-2.18 6.07-2.18 9.78zm27.93 0c0 4.4-3.5 7.29-6.76 8.12-2.35.59-5.22.9-6.09 1.4a4.27 4.27 0 0 0 -.43.39 3.74 3.74 0 0 0 -.44-.39c-.87-.5-3.74-.81-6.09-1.4l-.27-.08 18.49-13.88c.63 2.19 1.59 3.65 1.59 5.84zm-1.31-14.65a15.44 15.44 0 0 0 -.82 4.88 15 15 0 0 0 .17 2.24l-19.84 14.88a8.36 8.36 0 0 1 -4.77-7.1l22.8-17.11a7.5 7.5 0 0 0 2.46 2.21zm-21.1-2.79a7.9 7.9 0 0 0 3.84 1.06 9 9 0 0 0 5.29-1.82 9 9 0 0 0 5.28 1.82 6.33 6.33 0 0 0 1.09-.09l-19.42 14.58c.56-2.2 1.89-4 1.89-7.89a15.77 15.77 0 0 0 -.81-4.88 7.57 7.57 0 0 0 2.84-2.79z" fill="url(#e)"/><path d="m71 102.17s2.44 2.51 4.91 2.51a7.41 7.41 0 0 0 5.3-2.68v-1.69l-1.67 1.65a5.39 5.39 0 0 1 -3.62 1.54 4.52 4.52 0 0 1 -2.86-1.17l-2.59-2.14z" fill="url(#f)"/><path d="m97.45 123.65c0 5.63-4 9.33-9.08 10.61-2.67.67-4.51.85-5.86 1.33-.18.17-1.3 1.39-1.3 1.39v1.77l2-2.1c1.86-.52 3-.58 5.51-1.21 5-1.3 9.58-5.69 9.58-11.79a11.8 11.8 0 0 0 -1-4.83h-.89a12.12 12.12 0 0 1 1.04 4.83z" fill="url(#g)"/><path d="m86.49 104.68c2.48 0 4.92-2.51 4.92-2.51l.54-2-2.6 2.14a4.5 4.5 0 0 1 -2.86 1.17 5.37 5.37 0 0 1 -3.61-1.54l-1.67-1.65v1.71a7.4 7.4 0 0 0 5.28 2.68z" fill="url(#h)"/><path d="m66.82 105.92-2.64.77 1.66.78s4.07-.35 5.17-5.3l-.54-2-1.16 3.18a3.83 3.83 0 0 1 -2.49 2.57z" fill="url(#i)"/><path d="m151.55 75.24h-3.28l.56-2.19c-1 0-2.07 0-3.17 0-.8 3.11-1.84 7.2-2 8h3.16c.26-1 1.09-4.28 1.09-4.28h2.67c2.7 0 5.71-1.09 6.59-3.18-.92-.14-1.93-.26-3-.37a2.82 2.82 0 0 1 -2.62 2.02z" fill="url(#j)"/><path d="m98 74.88s-.07-.19-.2-.48c-.8-.16-1.8-.32-2.8-.47l1.11 2.45-1.21 4.72h3.15l1.21-4.73 1.41-1.37c-.7-.16-1.46-.31-2.28-.47z" fill="url(#k)"/><path d="m83.68 72.88c-1 0-2.06-.07-3.13-.09-.54 2.12-1.87 7.31-2.13 8.31h10.3l.92-1.59h-7.64l.84-3.29h6.24c.14-.58.25-1 .4-1.58h-6.25z" fill="url(#l)"/><path d="m75.29 81.1.93-1.59h-7.08l1.66-6.51-3.21.24-2 7.84z" fill="url(#m)"/><path d="m58.25 81.1h3.87c.19-.76 1.14-4.46 1.91-7.49l-3.24.39-1.18 4.61-1.7-4.32-2.27.22z" fill="url(#n)"/><path d="m48.76 81.1h3.15l1.65-6.44-3.23.27z" fill="url(#o)"/><path d="m32.37 81.1h3.48c.39-.72 1.65-3 1.65-3h5.44s.18 2.3.23 3h3.35c-.12-.8-.48-3.32-.85-5.81l-2.94.19.11 1.36h-4.65l.63-1.14-3 .13z" fill="url(#p)"/><path d="m25 81.1h3.15c.16-.6.74-2.88 1.31-5.1h-3.16c-.57 2.24-1.15 4.5-1.3 5.1z" fill="url(#q)"/><path d="m139.06 73.55c-.45 1.77-.88 3.44-.88 3.44-.44 1.74-1.93 2.72-4.2 2.72-3 0-3.06-1.7-2.81-2.72 0 0 .3-1.14.66-2.54l-3.27.42c-.31 1.2-.56 2.13-.56 2.13-.77 3 .89 4.3 5.56 4.3s7-1.28 7.76-4.3l.95-3.71z" fill="url(#r)"/><path d="m119.67 82.65a23 23 0 0 0 5-.52c-.09-.64-.17-1.18-.25-1.74a16.1 16.1 0 0 1 -3.88.43c-4.88 0-6.24-2.5-6.32-4.55-1.54.09-2.87.14-4 .16.08 3.16 3 6.22 9.45 6.22z" fill="url(#s)"/><path d="m13.12 75.45c1.9.8 3.63 1.54 3.22 3.17-.34 1.34-2 2.2-4.26 2.2a14 14 0 0 1 -4.88-.82c-.35.63-.64 1.16-1 1.72a15.14 15.14 0 0 0 5.76 1c3.29 0 7.39-1 8.11-3.78a2.9 2.9 0 0 0 -.8-3q-3.38-.22-6.15-.49z" fill="url(#t)"/><path d="m43.09 96.67s1-3.85 1.74-6.79h-3.16c-.8 3.15-1.92 7.53-2.14 8.36h9.72l.92-1.58z" fill="url(#u)"/><path d="m65.62 90.5-2.83-.15.28 3.65h-4.65l2.06-3.75-2.6-.11-5.28 8.11h3.49l1.64-3h5.44s.18 2.3.24 3h3.35c-.15-1.01-.7-4.78-1.14-7.75z" fill="url(#v)"/><path d="m77.94 91.36-2.59-.2-.84.87s-.16-.39-.41-1l-2.72-.19c.66 1.44 1.21 2.67 1.21 2.67l-1.21 4.71h3.16c.27-1.08 1.21-4.72 1.21-4.72z" fill="url(#w)"/><path d="m99.81 98.25h3.19l1.25-4.87h3.22c.13-.16.3-.35.5-.6-2.14 0-4.38-.07-6.69-.13-.62 2.28-1.28 4.92-1.47 5.6z" fill="url(#x)"/><path d="m112.77 98.25h3.15c.28-1.06 1.25-4.87 1.25-4.87h3.22l.62-.72c-2.15.06-4.43.11-6.84.13-.58 2.21-1.23 4.79-1.4 5.46z" fill="url(#y)"/><path d="m38.39 89.94-3.17.06a1.8 1.8 0 0 1 -.06.32 2.82 2.82 0 0 1 -2.57 2.05h-3.28l.54-2.13-3.2.21c-.61 2.35-1.76 6.85-2 7.77h3.15l1.1-4.22h2.67c2.89 0 6.14-1.25 6.75-3.63a2.93 2.93 0 0 0 .07-.43z" fill="url(#z)"/><path d="m98 92.55-3.56-.15s0 .06 0 .09c-.72 2.82-2.62 4.38-5.35 4.38s-3.84-1.56-3.09-4.38c0-.19.1-.37.15-.54l-3.52-.24c-.09.27-.17.53-.23.78-.66 2.56-.72 6 6.3 6s8.66-3.39 9.3-5.94z" fill="url(#A)"/><path d="m133.21 95.26c-.26 1-1.56 1.61-3.4 1.61a12.06 12.06 0 0 1 -3.9-.65l-.82 1.52a13.33 13.33 0 0 0 4.69.71c2.79 0 6-.78 6.53-3 .47-1.84-1.26-2.85-2.94-3.56l-4.68.36c1.96 1.13 4.9 1.52 4.52 3.01z" fill="url(#B)"/><path d="m93.11 103.34-1.11-3.18-.54 2c1.1 5 5.17 5.3 5.17 5.3l1.65-.78-2.64-.77a3.82 3.82 0 0 1 -2.53-2.57z" fill="#d0d0d2"/><path d="m76.39 123.93-2.13-3.26-2.36 1.77a.85.85 0 0 1 .82.89v6.14l1.67-1.25v-4.34l1.91 2.91 1.76-1.32v-7.66l-1.67 1.26z" fill="#d0d0d2"/><path d="m83.16 116.81-1.89 1.42v-2.83l-2.54 1.91a.85.85 0 0 1 .83.89v6.14l1.71-1.29v-2.8l1.89-1.41v2.8l1.63-1.23v-7.65l-1.63 1.24z" fill="#d0d0d2"/><path d="m87.93 116.1v-5.7l-2.54 1.91a.84.84 0 0 1 .82.89v6.14l4.79-3.55a9.87 9.87 0 0 1 0-2z" fill="#d0d0d2"/><path d="m81.21 168.82v-2.56l-32.02-14.06z" fill="#949ca1"/><path d="m152.57 64.81h-19.27a20.44 20.44 0 0 0 -9.86-2.48 21.54 21.54 0 0 0 -10.68 2.48h-2.58a3.91 3.91 0 0 0 -1-2.09c-1.06-4-5.46-5.47-7.41-5.93a5.7 5.7 0 0 0 -1.73-2.48 3 3 0 0 0 -.31-1.89v-4.53a4.75 4.75 0 0 0 -2-3.57 6.37 6.37 0 0 0 .16-1.44v-5.34a4.8 4.8 0 0 0 -1.89-3.33v-2.9l-.44-1.73c.14-2.41-2.41-3.84-2.41-3.84 4.59-2.36 8.94-6.84 9-17.35a3.83 3.83 0 0 0 .28-1.4v-1.23c0-1.43 0-5.76-21.26-5.76s-21.17 4.33-21.17 5.76v1.24a3.83 3.83 0 0 0 .28 1.4c.09 10.51 4.44 15 9 17.35 0 0-2.56 1.43-2.41 3.84l-.44 1.73v2.9a4.79 4.79 0 0 0 -1.92 3.33v5.34a6.43 6.43 0 0 0 .15 1.44 4.75 4.75 0 0 0 -2 3.57v4.53a3.06 3.06 0 0 0 -.31 1.89 5.6 5.6 0 0 0 -1.72 2.48c-1.95.46-6.35 2-7.42 5.93a4 4 0 0 0 -1 2.09h-25.56a18 18 0 0 0 -9.53-2.48c-7.7-.01-11.88 3.66-12.82 7.3a7.85 7.85 0 0 0 .4 5.19l-4.7 8.43s3.14 4.15 11.81 4.15a18.79 18.79 0 0 0 7.68-1.56h1.51s1.46 2.07 1.17 3.2l-3.77 14.59h9.8l7 37.51c1 5.38 5.7 11.9 10.49 14.53l35.55 19.58 35.54-19.58c4.79-2.63 9.5-9.15 10.5-14.53l7.05-38.15c3.3-1.18 5.84-3.52 6.61-6.51a6.44 6.44 0 0 0 -.68-5.17l2.74-5.47h7.4l1.1-4.32s8.61-.48 10.37-7.34c1.49-5.7-3.38-9.38-9.3-9.38zm7.85 9c-1 4.11-5.72 6.24-10.08 6.24l-1.09 4.27h-7.15l-3.63 7.13a5.06 5.06 0 0 1 1 4.66c-.7 2.75-3.25 4.82-6.45 5.71l-7.26 39.05c-.92 5-5.3 11-9.73 13.47l-34.8 19.17-34.83-19.17c-4.43-2.44-8.81-8.5-9.73-13.47l-7.2-38.76h-9.11l3.28-12.68c.44-1.68-.91-3.85-1.86-5.11h-2.63a17.05 17.05 0 0 1 -7.34 1.56c-6.94 0-9.9-2.9-9.9-2.9l4.09-7.28a17.67 17.67 0 0 0 2.91 1.38 6.13 6.13 0 0 1 -3.13-7.08c.54-2.09 3.26-6.16 11.34-6.16a15.82 15.82 0 0 1 9.05 2.48h27.76a2.48 2.48 0 0 1 .59-2.79c.74-4.48 7.27-5.45 7.27-5.45a4.1 4.1 0 0 1 2.4-3.17 1.8 1.8 0 0 1 0-2.18v-4.84c0-1.78 2.3-3 2.3-3s-.48-.47-.48-2v-5.35c-.01-1.25 1.92-2.54 1.92-2.54v-3.46l.45-1.77c-.36-2.57 4.38-3.95 4.38-3.95l-.25-.28c-4.55-1.69-10.78-5-10.78-17.45a2.41 2.41 0 0 1 -.25-1.09v-1.24c0-2.91 8.8-4.23 19.73-4.23s19.73 1.32 19.73 4.23v1.24a2.41 2.41 0 0 1 -.27 1.06c0 12.42-6.24 15.76-10.78 17.45l-.25.28s4.73 1.38 4.38 3.95l.45 1.77v3.46s1.91 1.33 1.91 2.58v5.34c0 1.55-.48 2-.48 2s2.31 1.21 2.31 3v4.86a1.82 1.82 0 0 1 0 2.18 4.12 4.12 0 0 1 2.4 3.17s6.53 1 7.27 5.45a2.5 2.5 0 0 1 .59 2.79h4.68a19.73 19.73 0 0 1 10.27-2.48 17.86 17.86 0 0 1 9.39 2.48h19.74c5.37 0 8.97 3.16 7.87 7.47z" fill="#bfc3c6"/><path d="m81.21 168.82 32.02-16.62-32.02 14.06z" fill="#bfc3c6"/><path d="m76.45 136.56c-11.59-.5-21.37-2.8-24.54-5.83 2.06 3.74 13.53 6.59 27.47 6.83l-.41-.44c-1.07-.27-1.79-.41-2.52-.56z" fill="#bfc3c6"/><path d="m83.44 137.12-.4.44c13.94-.24 25.41-3.09 27.46-6.83-3.16 3-13 5.33-24.53 5.83-.74.15-1.46.29-2.53.56z" fill="#bfc3c6"/><path d="m68.81 103.16.39-1h-9.31a63.34 63.34 0 0 0 8.83 1.27z" fill="#bfc3c6"/><path d="m106.88 102.11h-1.42c-2.08.81-5.79 1.54-11.5 1.83a3.82 3.82 0 0 0 .7.87c7.26-.65 10.72-1.81 12.22-2.7z" fill="#bfc3c6"/><path d="m68.45 103.94c-5.7-.29-9.42-1-11.5-1.83h-1.41c1.5.91 5 2 12.21 2.7a3.57 3.57 0 0 0 .7-.87z" fill="#bfc3c6"/><path d="m93.6 103.16.09.22a62.87 62.87 0 0 0 8.83-1.27h-9.3z" fill="#bfc3c6"/><path d="m65.52 116.16a10.12 10.12 0 0 0 .25-2.28 11.09 11.09 0 0 0 -.94-4.43l-1.37-3.09 3.15-.93a47.72 47.72 0 0 1 -8.82-1.61l-.08 9.9a9.22 9.22 0 0 1 -1.9-1.09l.08-9.53a4 4 0 0 1 -1.11-.67l-.08 9.06c0 .92 1.73 3.33 10.82 4.67z" fill="#bfc3c6"/><path d="m99 106.36-1.36 3.09a10.93 10.93 0 0 0 -1 4.43 10.12 10.12 0 0 0 .25 2.28c9.1-1.34 10.83-3.75 10.82-4.67l-.08-9.06s-1.88 1.95-11.83 3z" fill="#bfc3c6"/><path d="m65 118c.11-.3.23-.6.33-.92-10.21-1.59-11.07-4.51-11.07-4.51v1s.79 2.8 10.74 4.43z" fill="#bfc3c6"/><path d="m97.14 117.06c.1.32.21.62.33.92 9.9-1.61 10.73-4.46 10.73-4.46v-1s-.86 2.95-11.06 4.54z" fill="#bfc3c6"/><path d="m107.68 115.36s-1.53 2.17-9.85 3.55a12.23 12.23 0 0 1 -.77 10.94c9.63-1.61 12.36-4.56 10.75-6.17z" fill="#bfc3c6"/><path d="m65.35 129.85a12.23 12.23 0 0 1 -.77-10.94 34 34 0 0 1 -6.86-1.76l-.12 8a2.62 2.62 0 0 0 .91 2s-2.83-.68-2.8-2.67l.12-8.22a4 4 0 0 1 -1.1-.87l-.13 8.32c-1.6 1.58 1.13 4.53 10.75 6.14z" fill="#bfc3c6"/><path d="m59 130.52c-4.3-1.36-6.91-3.14-6.91-5.07a2.76 2.76 0 0 1 .82-1.83 2.75 2.75 0 0 0 -1.2 2.07c.02 1.85 2.77 3.54 7.29 4.83z" fill="#bfc3c6"/><path d="m110.69 125.69a2.78 2.78 0 0 0 -1.2-2.07 2.75 2.75 0 0 1 .81 1.83c0 1.93-2.6 3.71-6.91 5.07 4.54-1.29 7.3-2.98 7.3-4.83z" fill="#bfc3c6"/><path d="m75 29.56v1l1.62-.1v-1z" fill="#bfc3c6"/><path d="m86.85 29.91v-.39c-1.48-.1-3.33-.16-5.64-.16-1.2 0-2.26 0-3.22.05v1c1 0 2-.05 3.22-.05 2.29 0 4.15.06 5.64.16z" fill="#bfc3c6"/><path d="m73.32 32.86v2.06c.86-.05 1.9-.1 3.16-.14v-3.27a.92.92 0 0 1 .18-.53c-.69 0-1.33.07-1.91.12-.36.16-1.42.76-1.43 1.76z" fill="#bfc3c6"/><path d="m78.12 30.93a.82.82 0 0 0 -.13.44v3.38h3.22c2.28 0 4.14 0 5.64.09v-3.84c-1.55-.1-3.43-.16-5.64-.16-1.12.04-2.15.06-3.09.09z" fill="#bfc3c6"/><path d="m76.51 35.42-2.94.1a3.35 3.35 0 0 0 -2 1.75c1.15-.07 2.59-.13 4.36-.17a6.09 6.09 0 0 1 .58-1.68z" fill="#bfc3c6"/><path d="m87 35.45c-1.53 0-3.44-.07-5.8-.07-1.23 0-2.33 0-3.31 0a5.8 5.8 0 0 0 -.6 1.67h3.91c3.13 0 5.6.05 7.52.12a3 3 0 0 0 -1.72-1.72z" fill="#bfc3c6"/><path d="m75.9 37.58c-1.82 0-3.31.09-4.49.15v5c1.14 0 2.61-.1 4.49-.13z" fill="#bfc3c6"/><path d="m77.27 37.56v5h3.94c3.23 0 5.71 0 7.62.09v-5c-2-.06-4.48-.11-7.62-.11-1.45-.01-2.75 0-3.94.02z" fill="#bfc3c6"/><path d="m76.09 43.49c-1.67.06-3.19.13-4.46.2 1.62 2.32-.88 2.43-1 4.52 1.32 0 2.89-.06 4.7-.08-.13-2.47 1.83-2.6.76-4.64z" fill="#bfc3c6"/><path d="m88.77 43.59c-2.21-.1-4.85-.19-7.56-.19-1.29 0-2.56 0-3.78.05 1.11 2.07-.86 2.19-.72 4.66h4.5c3.27 0 6.05 0 8.33.07-.1-2.71-3.16-2.92-.77-4.59z" fill="#bfc3c6"/><path d="m75.33 48.88h-4.69v4.42h4.69z" fill="#bfc3c6"/><path d="m89.52 53.3v-4.41h-8.31-4.48v4.4h4.48c3.18-.03 5.99-.01 8.31.01z" fill="#bfc3c6"/><path d="m74.6 58.8c-.27-2.58 2-2.46.87-4.57h-3.58c1.79 1.77-1.89 2.61-1.27 4.5z" fill="#bfc3c6"/><path d="m76.9 54.22c1.17 2.12-1.15 2-.86 4.59h5.17c4.58 0 8.1 0 10.75-.1.67-2.36-3.1-2.1-1-4.46-2.34 0-5.54-.06-9.74-.06z" fill="#bfc3c6"/><path d="m106.94 66a1.22 1.22 0 0 0 .19-.89c-10.66 1-25.93.78-25.93.78 15.64-.8 17.4-.57 17.4-1.91 0-2.24-5.31-3.63-7.53-4.12-2.48 0-5.69.07-9.86.07h-5c-.66.54-2.19 2.17-2 5.49h4.83a156.54 156.54 0 0 1 -17.34.17.62.62 0 0 0 -.08.78h41.53c2.78-.23 3.79-.37 3.79-.37z" fill="#bfc3c6"/><path d="m74.36 59.86-4.79-.07c-1.12.21-6.52 1.21-6.63 5.21 2.39.13 5.47.25 9.38.32-.16-3.32 1.39-4.94 2.04-5.46z" fill="#bfc3c6"/><path d="m81.21 25.17c-.76 0-1.51 0-2.2.07a3.24 3.24 0 0 1 -.09 1.76h-.17a.84.84 0 0 0 -1.14.07 3.14 3.14 0 0 0 .24-1.71l-.79.08a1.91 1.91 0 0 1 -.31 1.52 1.07 1.07 0 0 0 -.9.31h-.31a1.25 1.25 0 0 0 -.27 1h.28a.7.7 0 0 0 .44.55l-1 .07v.23l1.59-.12v-.22a.72.72 0 0 0 .37-.61h.31a.79.79 0 0 0 .46.55 1 1 0 0 0 .27.07v.21c1 0 2-.06 3.22-.06 2.27 0 4.13.08 5.64.19v-.23h-.38a.69.69 0 0 0 .45-.55h.27a.63.63 0 0 0 .26.6.7.7 0 0 0 .71.07.72.72 0 0 0 .3-.26 1.14 1.14 0 0 0 -1.31-1.54.52.52 0 0 0 -.24.11h-.33a1 1 0 0 0 -1-.3 2.12 2.12 0 0 1 -.38-1.55c-1.03-.2-2.48-.31-3.99-.31zm-5.4 2.27c0 1.15.67 1 .8 1-.37.66-1.46.16-.8-1zm.47.63c-.4-.09-.26-1.29.43-.93-.18.26-.03 1.03-.43.93zm11.6-.72c.32 0 .9 1 .38 1.15s-.69-1.17-.38-1.15zm-.32.28c.07 1.12.59 1 .79 1-.26.53-1.35.18-.79-1zm-3.13-.63c.39 0 .91 1.22.35 1.22s-.78-1.22-.35-1.22zm-2.12-.14c.64 0 1 1.22.43 1.22s-.74-1.26-.43-1.26zm-4 .26c-.17.31.28 1-.18 1s-.48-1.57.23-1.04zm-.82.25c.07 1.14.74 1.06.87 1-.21.56-1.36.17-.82-1.04zm.89 1.37a.74.74 0 0 0 .39-.59h.41a.83.83 0 0 0 .45.57zm1.13-1.39c.08 1.19.77 1.11.9 1.08-.22.57-1.41.14-.85-1.12zm.74.73c-.69.21-.89-1.62 0-1.14-.06.24.57.95.05 1.06zm.27.62a.73.73 0 0 0 .34-.59h.59a.76.76 0 0 0 .34.59zm1.48-1.45c.08 1.18.71 1.06.84 1-.28.62-1.4.25-.84-1zm.75 1.42a.87.87 0 0 0 .45-.57h.4a.74.74 0 0 0 .39.59zm1.25-1.39c.08 1.18.71 1.06.84 1-.25.62-1.37.25-.84-1zm2.16-.16c.38-.05.87 1.15.34 1.13s-.7-1.09-.32-1.13zm-.3.34c.07 1.12.66 1 .78 1-.23.54-1.29.18-.76-1zm-.42.72a.74.74 0 0 0 .37.61l-1.14-.07a.79.79 0 0 0 .46-.55z" fill="#bfc3c6"/><path d="m77.43 23.33q-.51 0-1 .12v.37q.44-.08 1-.12z" fill="#bfc3c6"/><path d="m78.67 23.59c.74 0 1.58-.07 2.54-.07a35.6 35.6 0 0 1 3.79.18v-.37a37.31 37.31 0 0 0 -3.81-.18c-.93 0-1.77 0-2.54.07z" fill="#bfc3c6"/><path d="m79.92 3.07a85.21 85.21 0 0 0 -9.76.57l.08.91a84.59 84.59 0 0 1 9.54-.55c.04-.31.09-.62.14-.93z" fill="#bfc3c6"/><path d="m93.73 4.77q0-.43 0-.93-1.23-.19-2.79-.36c0 .31.09.63.12.94.94.1 1.87.22 2.67.35z" fill="#bfc3c6"/><path d="m98.44 5.07a12.53 12.53 0 0 0 -2-.67v.92a11.87 11.87 0 0 1 2 .66c-.01-.3-.01-.6 0-.91z" fill="#bfc3c6"/><path d="m98.32 8c0-.48.06-1 .08-1.47a12.06 12.06 0 0 0 -2-.67c0 .58-.08 1.08-.1 1.36h.1a2.72 2.72 0 0 1 1.92.78z" fill="#bfc3c6"/><path d="m91.12 6.57a5.62 5.62 0 0 1 2.6 1.11c0-.37 0-1.18 0-2.36-.72-.13-1.66-.24-2.65-.32.04.51.05 1.05.05 1.57z" fill="#bfc3c6"/><path d="m76.25 8a7.27 7.27 0 0 1 3.36-1.54c0-.63 0-1.27.11-1.92a88.38 88.38 0 0 0 -9.43.55l.15 1.68a6 6 0 0 1 1.85-.28 5.52 5.52 0 0 1 3.96 1.51z" fill="#bfc3c6"/><path d="m95.77 15.32c.38 0 .34-1.24 1-1.24s.48 1.17.48 1.17a46.11 46.11 0 0 0 1-6.64 2.37 2.37 0 0 0 -1.85-.94 2.1 2.1 0 0 0 -.51.06 16.43 16.43 0 0 1 -1.08 6.56h.19c.83-.01.3 1.03.77 1.03z" fill="#bfc3c6"/><path d="m91.71 11.61c1.38 0-.12 2.21.66 2.53a16.27 16.27 0 0 0 1.06-6.14 5.17 5.17 0 0 0 -2.31-1 32.37 32.37 0 0 1 -.57 5.21h.09c.6.03.36-.6 1.07-.6z" fill="#bfc3c6"/><path d="m73.86 12c1.21 0 .19 1.9 1.6 1.9.78 0 .49-.79 1.47-.79 1.37 0 .79 1.58 1.69 1.58.72 0 .39-1 1.36-1a.8.8 0 0 1 .72.39 25.92 25.92 0 0 1 -1.09-7.11 6.4 6.4 0 0 0 -3.38 1.73 4.86 4.86 0 0 0 -3.94-1.7 5.69 5.69 0 0 0 -1.81.28l.34 3.72a.63.63 0 0 1 .44-.14c1.2 0 .23 1.71 1.52 1.71.56.04.44-.57 1.08-.57z" fill="#bfc3c6"/><path d="m72.92 30.49c-1 .12-1.63.25-2.12.36v-.68c-.94.26-1.08.48-1.08.48v.78s1-.59 5.24-.91v-1q-1.18.09-2 .21z" fill="#a1a5aa"/><path d="m89 30.67a11 11 0 0 1 3.66.76v-.78s-.36-.56-3.66-.94z" fill="#a1a5aa"/><path d="m72.1 31.88v2.61c-.68 0-1.2.12-1.59.17v-3c-.71.18-1 .37-1 .53v3.18a17.46 17.46 0 0 1 3.85-.47v-2.04c0-1 1.07-1.6 1.42-1.76-.87.06-1.62.14-2.26.22a.72.72 0 0 0 -.42.56z" fill="#a1a5aa"/><path d="m92.94 32.21c0-.3-1.22-.71-3.91-1v3.7a17.34 17.34 0 0 1 3.93.47z" fill="#a1a5aa"/><path d="m70.84 36.8c-.69 0-1.27.09-1.73.13a17.66 17.66 0 0 1 1.5-1.19 8.85 8.85 0 0 0 -1.21.18 5.86 5.86 0 0 0 -2.08 1.77 28.57 28.57 0 0 1 4.24-.42 3.35 3.35 0 0 1 2-1.75l-1.34.08a14.52 14.52 0 0 0 -1.38 1.2z" fill="#a1a5aa"/><path d="m91.1 37.28a27.07 27.07 0 0 1 4 .41 5.86 5.86 0 0 0 -2.1-1.77 21.86 21.86 0 0 0 -3.72-.37 3.4 3.4 0 0 1 1.82 1.73z" fill="#a1a5aa"/><path d="m67.54 38v5a24 24 0 0 1 3.87-.33v-5l-1.17.07v4.42l-1.69.14v-4.38z" fill="#a1a5aa"/><path d="m94.87 43v-5s-1.08-.15-3.71-.28v4.95a23.77 23.77 0 0 1 3.71.33z" fill="#a1a5aa"/><path d="m65.72 48.37s1.7-.08 4.93-.16c.1-2.09 2.6-2.2 1-4.52l-1.08.07c1.32 2.82-1.28 2.61-1.67 4l-2.06.06c.29-1.67 3.47-1.47 2.2-3.92l-1.08.08c1.5 2.55-2.24 1.74-2.24 4.39z" fill="#a1a5aa"/><path d="m96.7 48.37c0-2.65-3.75-1.84-2.22-4.43 0 0-1.36-.11-3.49-.24-2.41 1.82 1 1.85 1.11 4.52 3.01.07 4.6.15 4.6.15z" fill="#a1a5aa"/><path d="m65.72 49v4.4s1.79 0 4.92-.08v-4.42h-1.94v3.9h-2v-3.9z" fill="#a1a5aa"/><path d="m96.7 49h-4.61v4.42l4.61.07z" fill="#a1a5aa"/><path d="m71.89 54.27h-2.66c1 2.72-3 1.59-3 3.82-.87 0-1.53-.07-2-.1 0-2.13 3.9-1.16 3-3.68h-1.12c1 2.63-3 1-2.92 4 0 0 1.86.19 7.39.3-.58-1.77 3.1-2.61 1.31-4.34z" fill="#a1a5aa"/><path d="m94.48 58.66c3.46-.1 4.7-.23 4.7-.23.12-3.08-3.94-1.41-2.92-4 0 0-1 0-3.21-.09-2.21 1.66 1.82 1.84 1.43 4.32z" fill="#a1a5aa"/><path d="m55.88 64.37a68.25 68.25 0 0 0 7.06.64c.11-4 5.51-5.05 6.63-5.22-5.85-.14-6.44-.34-6.44-.34s-6.8.55-7.25 4.92zm2.63-.12c-1.35-.14-1.93-.25-1.93-.25s.26-3.22 7-4c-4.8 1.52-5.07 4.25-5.07 4.25z" fill="#a1a5aa"/><path d="m99.29 59.45a34.16 34.16 0 0 1 -5.31.31c2.83.42 8.53 1.7 8 5 0 0 2.4-.19 4.51-.38-.41-4.38-7.2-4.93-7.2-4.93z" fill="#a1a5aa"/><path d="m55.29 65a1.26 1.26 0 0 0 .18.92s1 .18 3.85.38h2.24a.62.62 0 0 1 .08-.78c-4.09-.16-6.35-.52-6.35-.52z" fill="#a1a5aa"/><path d="m86.27 23.87a8.66 8.66 0 0 1 2.3.6c0-.36-.81-.72-2.3-1z" fill="#a1a5aa"/><path d="m89 29.3a17.5 17.5 0 0 1 3.07.58l.19-.18a13.58 13.58 0 0 0 -1.57-.38.42.42 0 0 0 .39-.34h.16a.33.33 0 1 0 .66 0c0 .4.37.5.45.14h.11c0-2.39-6.13-1.71-4.47-4.1a29.08 29.08 0 0 0 -6.82-.66 28.89 28.89 0 0 0 -6.8.66c1.66 2.39-4.47 1.71-4.47 4.1h.11c.07.36.47.26.44-.14 0 .5.68.6.68-.18h.08a.51.51 0 0 0 .44.49 14.16 14.16 0 0 0 -1.56.38l.19.18a23.61 23.61 0 0 1 4.72-.72v-.23a.61.61 0 0 0 .26-.6 1.25 1.25 0 0 1 .27-1 .78.78 0 0 0 -.65-.11 1.59 1.59 0 0 0 .47-1.55l.9-.12a2.25 2.25 0 0 1 -.41 1.74 1.07 1.07 0 0 1 .9-.31 1.91 1.91 0 0 0 .26-1.54l.79-.08c.38 0 .79-.07 1.21-.09.69 0 1.44-.07 2.2-.07 1.51 0 3 .11 4 .22l1.25.14a1.89 1.89 0 0 0 .65 1.64 1.14 1.14 0 0 1 1.31 1.54.2.2 0 0 1 .34 0 .45.45 0 0 0 .23.33zm3-.3c0 .16.25.2.3.12-.01.24-.3.19-.3-.12zm-.07-.67c.15 0 .56.53.33.7s-.39-.65-.32-.71zm-.63.36c.21.62.46.42.55.26.01.58-.54.42-.54-.27zm0-.65c.19 0 .68.74.43.87s-.58-.91-.39-.91zm-20.41-.04c-.36.76-.06.76 0 .61-.06 1.23-.84.46 0-.61zm0 .46c-.11-.05 0-.55.39-.57-.21.21-.28.7-.44.61zm2.75-1c-.2.22-.24.85-.5.75s-.14-.84.45-.74zm-1.26.18c-.26.25-.29.82-.53.68s-.11-.67.48-.67zm-.71.26c-.23.88.18.78.41.65-.19 1.05-1.46.58-.46-.64zm.22 1.38c.37-.14.44-.65.44-.65h.08a.6.6 0 0 0 .44.52zm1-1.66c-.3 1.26.34 1 .51.91-.2 1.05-1.66.36-.53-.9zm.51 1.43s.27-.1.25-.61h.23a.64.64 0 0 0 .4.54zm.8-1.49c-.11 1.13.6.92.72.9-.33.82-1.47.29-.74-.89zm.91-.25c-.24.25-.15.93-.46.84s-.28-.97.44-.83zm15.33.45c.23 0 .89.83.53 1s-.71-.97-.55-.99zm-.15.32c.25 1.05.64.85.79.74-.08.55-.92.43-.81-.73zm0 .87a.66.66 0 0 0 .33.33l-1-.15a.7.7 0 0 0 .38-.23c0-.07.18-.07.24.1zm-.91-1.42c.32 0 .91 1 .39 1.09s-.72-1.09-.44-1.08zm-.25.26c.08 1.25.63 1.05.79 1-.31.53-1.36.21-.84-.99z" fill="#a1a5aa"/><path d="m73.84 24.47a9.63 9.63 0 0 1 2.63-.65v-.37l-.57.09v.2l-1.08.26v-.2c-.64.2-.98.44-.98.67z" fill="#a1a5aa"/><path d="m64.23 5.88-.08-.88c-.73.31-1.07.59-1.14.77v.92c.08-.2.44-.49 1.22-.81z" fill="#a1a5aa"/><path d="m69.07 4.71-.07-.91c-1.18.18-2.16.38-2.95.58l.07.9a29.66 29.66 0 0 1 2.95-.57z" fill="#a1a5aa"/><path d="m63.28 7.68v1.37a3.11 3.11 0 0 1 2.72-1.83 3 3 0 0 1 2.14 1 5.62 5.62 0 0 1 1.16-.92l-.17-2c-1.18.18-2.16.37-3 .57l.1 1.11a2.62 2.62 0 0 0 -1.89.53l-.09-1-.35.15c-.41.13-.62.28-.62 1.02z" fill="#a1a5aa"/><path d="m68.12 8.89a2.72 2.72 0 0 0 -2.12-1.22 44.78 44.78 0 0 0 .81 7.18.36.36 0 0 0 -.28.17s-.12-.48-.45-.48c-.72 0-.17 1-.17 2 0 0-1.41-2.85-1.46-8.26a4.61 4.61 0 0 0 -1.1 1.72c.73 10.8 6.54 12.84 10.07 14.18 0 0 .16-.29 1-.6-.93-4.16 2.58-3.43 3.58-8.58-.29 5.43-3.11 4.83-2.52 8.34l.56-.12c1-4.45 3.62-4.42 4.75-8.08-.43 3.56-2.79 4.25-3.44 7.86h.46c1-3.74 5-4.66 6.21-8.78-.38 4.1-3.91 4.94-5.21 8.71h.44c1.91-4.56 7.73-4.81 8-9.76.88 4.89-5.75 6.28-6.87 9.72h.62c2.45-4.46 6.84-2.68 8.88-9.93-.73 6.8-5.51 6.23-7.49 9.94h.57c2.68-3.81 6.8-2.43 8.87-8.93-.59 6.5-5.47 5.75-7.71 9l.53.05c4.06-3.9 6.2-2.36 8.9-7.49-1.44 5.1-5.09 4.56-8 7.59l.45.06c3.3-3.1 6.58-2.28 9.46-7-1.89 4.68-6.46 4.82-8.73 7.08l.52.12c4.47-3.16 7.47-3.36 9.61-6.93-1.7 3.81-6.2 4.77-9.12 7.07l.38.13c3.69-2.48 6.77-2.58 9.66-7.56-1.78 5.16-7.36 6.32-9.06 7.91a1.11 1.11 0 0 1 .28.24c3.52-1.34 9.33-3.38 10.06-14.18a4.77 4.77 0 0 0 -.79-1.4 46.11 46.11 0 0 1 -1 6.64s.29-1.17-.48-1.17-.64 1.24-1 1.24.06-1-.82-1h-.12c-.54.08-.41.79-.69.79-.48 0 .27-1.26-.78-1.26-.53 0-.46.36-.77.36a.67.67 0 0 1 -.22 0c-.78-.32.72-2.53-.66-2.53-.69 0-.47.63-1.07.63h-.09c-.91-.1-.13-1.76-1.3-1.76s-.44 2.11-1.45 2.11c-.77 0-.52-.8-1.33-.8-1.3 0-.63 2.38-1.72 2.38-.76 0-.47-1-1.41-1-1.3 0-.47 1.57-1.58 1.57-.69 0-.84-.4-1.06-.72a.8.8 0 0 0 -.72-.39c-1 0-.64 1-1.36 1-.9 0-.32-1.58-1.69-1.58-1 0-.69.79-1.47.79-1.41 0-.39-1.9-1.6-1.9-.64 0-.52.64-1.08.64-1.29 0-.32-1.71-1.52-1.71a.63.63 0 0 0 -.44.14c-.47.4-.12 1.52-.62 1.52s-.51-.64-.56-1.15l-.31-3.64a4.41 4.41 0 0 0 -1.23 1.03zm-2 5.89c.45 0 .37 2.19.37 2.19-.1-1.37-1-2.19-.41-2.19zm-.91 1.46c.84.84.58 2.11 1.33 3.22-1.16-1.07-.96-2.46-1.37-3.22zm31.25-1.46a.34.34 0 1 1 .67.05 7.8 7.8 0 0 1 -2.32 3.4 7.68 7.68 0 0 0 1.61-3.45zm-1.86.12c.11-.55.9-.16.76.21a8.25 8.25 0 0 1 -3.47 4.06 7.39 7.39 0 0 0 2.67-4.27zm-1.6-.4a.36.36 0 1 1 .7.12 9 9 0 0 1 -3.45 4.1 9.35 9.35 0 0 0 2.75-4.22zm-1.72-2.15c0-.61.9-.46.8 0-1.11 4.9-4.45 6.41-4.45 6.41a9.81 9.81 0 0 0 3.63-6.41zm-2.5-.92c0-.86 1-.83 1-.15 0 2.05-2.15 6.3-4.59 7.21a9 9 0 0 0 3.57-7.06zm-2.78 1.27a.5.5 0 1 1 1 0c0 3.21-2.87 4.53-5.2 6.33 2.4-2.55 4.2-2.98 4.2-6.33zm-3.22 1.43c.11-.89.92-.52.82-.14-1 3.81-2.57 2.73-4 5.2 1.52-3.31 2.82-2.1 3.17-5.06zm-3.38.48a.57.57 0 1 1 1.14 0c0 1.7-1.74 2.38-3.65 5.52 1.35-2.77 2.5-3.58 2.5-5.52zm-12-.7c.62 0 .55 1.88.46 3.39a5.17 5.17 0 0 0 -.84-3 .39.39 0 0 1 .38-.39zm-.77 1.61c.44 1.57.05 4.17 1.9 6-2.53-1.88-1.68-4.09-1.9-6zm1.91-1.25c.91 4.42-1.36 4.48 1.25 7.84-3.52-2.19-.94-4.88-1.25-7.84zm8.39-.82a.65.65 0 0 1 .6.64c0 .39-.37.51-.44.93a11.08 11.08 0 0 1 -1.93 4.28c1.69-3.66.49-5.85 1.77-5.85zm-3.52-.75a.43.43 0 0 1 .45-.44c1 0 .23 4.66-.75 6.14 1.17-4.72.3-5.4.3-5.7zm1.4 1.46c.72 6.14-2.38 5.53-1.19 9.3-2.96-2.96 1.54-4.59 1.19-9.3zm-2.29 9.12c-3.16-2.09-.45-5.77-.45-10.26.93 4.72-1.84 7.16.45 10.26zm-1.25-12.08c.87 0 .4 3.47-.17 6.54.57-5.19-.29-5.54-.29-6.16a.42.42 0 0 1 .46-.38zm-1 1.87c1 2.84-2.19 6.88 1.3 9.94-4.57-2.6-1.33-6.24-1.33-9.94zm-1-.77c.93 0 .52 2.7.05 4.24.23-3-.55-3.22-.55-3.74a.49.49 0 0 1 .47-.5z" fill="#a1a5aa"/><path d="m99.4 6.68v-.92c-.06-.17-.36-.41-1-.69v.91c.6.28.93.53 1 .7z" fill="#a1a5aa"/><path d="m99.13 7.68c0-.74-.21-.89-.65-1.12h-.08c0 .5-.05 1-.08 1.47a4.45 4.45 0 0 1 .79 1.05c.02-.48.02-.93.02-1.4z" fill="#a1a5aa"/><path d="m119.9 160.36-.57-1.22a.86.86 0 0 0 -.29-1.67h-1.22v2.89h.55v-1.17h.39l.54 1.17zm-.86-1.71h-.67v-.65h.63a.32.32 0 0 1 .32.32.32.32 0 0 1 -.32.33z" fill="#231f20"/><path d="m121.4 158.92a2.54 2.54 0 1 0 -2.54 2.53 2.54 2.54 0 0 0 2.54-2.53zm-4.53 0a2 2 0 1 1 2 2 2 2 0 0 1 -2-2z" fill="#231f20"/><path d="m81.5 28.07h-.59a.73.73 0 0 1 -.34.59h1.27a.76.76 0 0 1 -.34-.59z" fill="#231f20"/><path d="m75.81 27.44c-.66 1.16.43 1.66.8 1-.13.04-.83.15-.8-1z" fill="#231f20"/><path d="m88.35 28.61c-.2.06-.72.14-.79-1-.56 1.2.53 1.55.79 1z" fill="#231f20"/><path d="m56.58 64s.58.11 1.93.25c0 0 .27-2.73 5.06-4.29-6.73.82-6.99 4.04-6.99 4.04z" fill="#231f20"/><path d="m78.41 28.37c-.13 0-.8.1-.87-1-.54 1.17.61 1.56.87 1z" fill="#231f20"/><path d="m84 28.7a.74.74 0 0 1 -.39-.59h-.4a.87.87 0 0 1 -.45.57z" fill="#231f20"/><path d="m79.23 28.1h-.41a.74.74 0 0 1 -.39.59h1.25a.83.83 0 0 1 -.45-.59z" fill="#231f20"/><path d="m82.83 28.28c-.13 0-.76.15-.84-1-.55 1.22.57 1.59.84 1z" fill="#231f20"/><path d="m77.72 28.72a.79.79 0 0 1 -.46-.55h-.26a.72.72 0 0 1 -.37.61z" fill="#231f20"/><path d="m80.46 28.39c-.13 0-.82.11-.9-1.08-.56 1.26.63 1.69.9 1.08z" fill="#231f20"/><path d="m73.62 23.46c-1.19-3.77 1.91-3.16 1.19-9.3.35 4.71-4.15 6.34-1.19 9.3z" fill="#231f20"/><path d="m86.85 28.85h.6a.63.63 0 0 1 -.26-.6h-.27a.69.69 0 0 1 -.45.55z" fill="#231f20"/><path d="m88.16 29 .87.09a.45.45 0 0 1 -.23-.33.2.2 0 0 0 -.34 0 .72.72 0 0 1 -.3.24z" fill="#231f20"/><path d="m75.49 27.28h.31a2.25 2.25 0 0 0 .41-1.74l-.9.12a1.59 1.59 0 0 1 -.47 1.55.78.78 0 0 1 .65.07z" fill="#231f20"/><path d="m68.54 14.27c.31 3-2.27 5.65 1.25 7.84-2.61-3.36-.34-3.42-1.25-7.84z" fill="#231f20"/><path d="m70.92 28.65c-.09.15-.39.15 0-.61-.87 1.03-.09 1.8 0 .61z" fill="#231f20"/><path d="m66.5 19.46c-.75-1.11-.49-2.38-1.33-3.22.41.76.21 2.15 1.33 3.22z" fill="#231f20"/><path d="m68.53 21.54c-1.85-1.85-1.46-4.45-1.9-6 .22 1.89-.63 4.1 1.9 6z" fill="#231f20"/><path d="m84.86 28.32c-.13 0-.76.14-.84-1-.55 1.21.57 1.58.84 1z" fill="#231f20"/><path d="m75.5 28.28h-.28a.61.61 0 0 1 -.26.6l1-.07a.7.7 0 0 1 -.46-.53z" fill="#231f20"/><path d="m73.38 28.54c-.17.08-.81.35-.51-.91-1.13 1.26.33 1.95.51.91z" fill="#231f20"/><path d="m74.9 28.47c-.12 0-.83.23-.72-.9-.73 1.18.41 1.71.72.9z" fill="#231f20"/><path d="m74.26 29a.64.64 0 0 1 -.4-.54h-.23c0 .51-.25.61-.25.61z" fill="#231f20"/><path d="m72.8 29.14a.6.6 0 0 1 -.44-.52h-.08s-.07.51-.44.65z" fill="#231f20"/><path d="m72 28.56c-.23.13-.64.23-.41-.65-.97 1.22.3 1.69.41.65z" fill="#231f20"/><path d="m85.83 28.79a.74.74 0 0 1 -.37-.61h-.31a.79.79 0 0 1 -.46.55z" fill="#231f20"/><path d="m70.24 13.07c0 3.7-3.27 7.34 1.3 9.94-3.49-3.01-.33-7.1-1.3-9.94z" fill="#231f20"/><path d="m92.31 29.11c0 .08-.27 0-.3-.12-.01.32.28.37.3.12z" fill="#231f20"/><path d="m72.07 13c0 4.49-2.71 8.17.45 10.26-2.29-3.08.48-5.52-.45-10.26z" fill="#231f20"/><path d="m91.86 28.94c-.09.16-.34.36-.55-.26 0 .69.55.85.55.26z" fill="#231f20"/><path d="m89.87 28.77c-.16.08-.71.28-.79-1-.52 1.23.53 1.55.79 1z" fill="#231f20"/><path d="m86.66 28.44c-.12 0-.71.14-.78-1-.53 1.2.53 1.56.78 1z" fill="#231f20"/><path d="m89.61 29.14 1 .15a.66.66 0 0 1 -.33-.33c-.06-.13-.24-.13-.28-.06a.7.7 0 0 1 -.39.24z" fill="#231f20"/><path d="m91.06 28.83c-.15.11-.54.31-.79-.74-.11 1.16.73 1.28.79.74z" fill="#231f20"/><path d="m41.67 71.9-2.31 4.2h2.64z" fill="#231f20"/><path d="m152.57 66.34h-19.74a17.86 17.86 0 0 0 -9.39-2.48 19.73 19.73 0 0 0 -10.27 2.48h-4.68a2.5 2.5 0 0 0 -.59-2.79c-.74-4.48-7.27-5.45-7.27-5.45a4.12 4.12 0 0 0 -2.4-3.17 1.82 1.82 0 0 0 0-2.18v-4.86c0-1.78-2.31-3-2.31-3s.48-.47.48-2v-5.35c0-1.25-1.91-2.58-1.91-2.58v-3.46l-.49-1.77c.35-2.57-4.38-3.95-4.38-3.95l.25-.28c4.54-1.69 10.78-5 10.78-17.45a2.41 2.41 0 0 0 .29-1.05v-1.24c0-2.91-8.81-4.23-19.73-4.23s-19.73 1.32-19.73 4.23v1.24a2.41 2.41 0 0 0 .27 1.06c0 12.42 6.23 15.76 10.78 17.45l.25.28s-4.78 1.37-4.38 3.94l-.4 1.77v3.46s-2 1.33-2 2.58v5.34c0 1.55.48 2 .48 2s-2.3 1.21-2.3 3v4.86a1.8 1.8 0 0 0 0 2.18 4.1 4.1 0 0 0 -2.4 3.17s-6.53 1-7.27 5.45a2.48 2.48 0 0 0 -.59 2.79h-27.75a15.82 15.82 0 0 0 -9-2.48c-8.17.01-10.85 4.08-11.39 6.15a6.13 6.13 0 0 0 3.1 7.06 17.67 17.67 0 0 1 -2.88-1.36l-4.09 7.3s3 2.9 9.9 2.9a17.05 17.05 0 0 0 7.34-1.56h2.63c.95 1.26 2.3 3.43 1.86 5.11l-3.28 12.68h9.11l7.2 38.76c.92 5 5.3 11 9.73 13.47l34.81 19.17 34.79-19.19c4.43-2.44 8.81-8.5 9.73-13.47l7.27-39.05c3.2-.89 5.75-3 6.45-5.71a5.06 5.06 0 0 0 -1-4.66l3.63-7.13h7.15l1.09-4.27c4.36 0 9-2.13 10.08-6.24 1.12-4.31-2.48-7.47-7.83-7.47zm-42.95 8.53c1.07-4.17 4.88-8.52 13.82-8.52a14.58 14.58 0 0 1 5 .74l-1.74 3a13.31 13.31 0 0 0 -3.72-.45c-5.07 0-7.23 2.65-7.88 5.22-.43 1.68 0 5.22 5.63 5.22a14.14 14.14 0 0 0 4.36-.59l.44 3.12a20.76 20.76 0 0 1 -6 .77c-8.39.01-10.84-4.87-9.91-8.51zm-26.62 62.69.4-.44c1.07-.27 1.79-.41 2.53-.56 11.58-.5 21.37-2.8 24.53-5.83-2.01 3.74-13.46 6.59-27.46 6.83zm-31.13-6.83c3.17 3 13 5.33 24.54 5.83.73.15 1.45.29 2.52.56l.41.44c-13.9-.24-25.34-3.09-27.43-6.83zm-.53-34.8-1.75 3.07h-11l3.33-13h4.63l-2.55 9.93zm26.09-17.15-1.79 3h-11l3.33-13h4.63l-2.54 10zm1.83-10h17.09l2 4.75 4.53-4.75h4.92l-7.88 7.8-1.32 5.25h-4.6l1.34-5.22-3.34-7.38-.68 2.65h-6.64l-.52 2h6.24l-.78 3.12h-6.24l-.47 1.82h7.94l-1.79 3h-11.56l2.55-10a3.07 3.07 0 0 0 -.79-3zm31 56.63a2.75 2.75 0 0 0 -.81-1.83 2.78 2.78 0 0 1 1.2 2.07c0 1.85-2.76 3.54-7.3 4.83 4.35-1.32 6.95-3.1 6.95-5.03zm-13.24 4.4a12.23 12.23 0 0 0 .77-10.94c8.32-1.38 9.85-3.55 9.85-3.55l.13 8.32c1.65 1.65-1.08 4.6-10.71 6.21zm-44.13-6.23a2.76 2.76 0 0 0 -.82 1.83c0 1.93 2.61 3.71 6.91 5.07-4.54-1.29-7.29-3-7.29-4.83a2.75 2.75 0 0 1 1.24-2.03zm1.67.06.13-8.32a4 4 0 0 0 1.1.87l-.12 8.22c0 2 2.8 2.67 2.8 2.67a2.62 2.62 0 0 1 -.91-2l.12-8a34 34 0 0 0 6.86 1.76 12.23 12.23 0 0 0 .77 10.94c-9.58-1.54-12.31-4.49-10.71-6.1zm13.85-19.74a3.57 3.57 0 0 1 -.7.87c-7.25-.65-10.71-1.79-12.21-2.7h1.5c2 .85 5.75 1.58 11.45 1.87zm-8.56-1.83h9.35l-.39 1-.09.22a63.34 63.34 0 0 1 -8.83-1.18zm-5.19 9.38.08-9.06a4 4 0 0 0 1.11.67l-.08 9.53a9.22 9.22 0 0 0 1.9 1.09l.08-9.9a47.72 47.72 0 0 0 8.82 1.61l-3.15.93 1.37 3.09a11.09 11.09 0 0 1 .94 4.43 10.12 10.12 0 0 1 -.25 2.28c-9.05-1.3-10.78-3.71-10.78-4.63zm10.58 5.57c-.1.32-.22.62-.33.92-9.9-1.61-10.74-4.46-10.74-4.46v-1s.9 2.99 11.11 4.58zm-.45 10.48a11.47 11.47 0 0 1 -.66-3.89c0-4.56 2.13-5.43 2.13-9.77a11.59 11.59 0 0 0 -1-4.64l-1.13-2.55 2.64-.77a3.83 3.83 0 0 0 2.49-2.58l1.16-3.18 2.59 2.14a4.52 4.52 0 0 0 2.86 1.17 5.39 5.39 0 0 0 3.62-1.54l1.67-1.65 1.67 1.65a5.37 5.37 0 0 0 3.61 1.54 4.5 4.5 0 0 0 2.86-1.17l2.6-2.14 1.16 3.18a3.82 3.82 0 0 0 2.48 2.58l2.64.77-1.12 2.55a11.42 11.42 0 0 0 -1 4.64 11.7 11.7 0 0 0 1.12 4.94 11.8 11.8 0 0 1 1 4.83c0 6.1-4.55 10.49-9.58 11.79-2.49.63-3.65.69-5.51 1.21l-2 2.1-2-2.1c-1.85-.52-3-.58-5.5-1.21a12.82 12.82 0 0 1 -8.76-7.86zm32.06-11.38a10.12 10.12 0 0 1 -.25-2.28 10.93 10.93 0 0 1 1-4.43l1.4-3.05-3.15-.93c10-1.05 11.83-3 11.83-3l.08 9.06c-.04.92-1.76 3.33-10.87 4.67zm11.31-3.61v1s-.83 2.85-10.73 4.46c-.12-.3-.23-.6-.33-.92 10.24-1.58 11.1-4.5 11.1-4.5zm-13.54-7.74a3.82 3.82 0 0 1 -.7-.87c5.71-.29 9.42-1 11.5-1.83h1.42c-1.46.93-4.92 2.09-12.18 2.74zm-1-1.43-.09-.22-.38-1h9.3a62.87 62.87 0 0 1 -8.76 1.26zm-5.2-4.19c-6.64 0-7.8-3-6.85-6.7s3.64-6.7 10.28-6.7 7.8 3 6.86 6.7-3.57 6.74-10.22 6.74zm-9.04-13.15h4.92l-7.88 7.79-1.33 5.21h-4.63l1.33-5.22-3.52-7.78h4.56l2 4.75zm-13.62 0 1.9 13h-5l-.24-3h-4.33l-1.64 3h-5.12l8.46-13zm57.47 5.08-2.61 3h-2.9l-1.25 4.92h-4.63l2.55-10a3.06 3.06 0 0 0 -.79-3h12.82l-2.6 3h-4.82l-.52 2zm-9.76-5.08-2.61 3h-4.79l-.52 2h4.73l-2.61 3h-2.9l-1.25 5h-4.63l2.55-10a3.06 3.06 0 0 0 -.79-3.06zm-44.47-82.2 1.17-.16a85.21 85.21 0 0 1 9.76-.57h1.29c4 0 7.19.17 9.7.42q1.56.16 2.79.36c1.11.18 2 .37 2.77.56a12.53 12.53 0 0 1 2 .67c.6.28.9.52 1 .69v.92c-.07-.17-.36-.42-1-.7a11.87 11.87 0 0 0 -2-.66c-.73-.19-1.63-.38-2.71-.55-.8-.13-1.7-.25-2.7-.35a97.18 97.18 0 0 0 -9.86-.43h-1.43a84.59 84.59 0 0 0 -9.54.56l-1.17.16a29.66 29.66 0 0 0 -3 .57l-.07-.91c.83-.2 1.81-.38 3-.58zm-6 2.88v-.92c.07-.18.41-.46 1.14-.77l.08.89c-.77.32-1.13.61-1.22.8zm.27 1c0-.74.21-.89.65-1.12l.35-.15.09 1a2.62 2.62 0 0 1 1.89-.53l-.1-1.11c.8-.2 1.78-.39 3-.57l1.17-.16a88.38 88.38 0 0 1 9.43-.55h1.49a97.31 97.31 0 0 1 9.83.51c1 .11 1.88.22 2.66.35 1.07.17 2 .35 2.69.54a12.06 12.06 0 0 1 2 .67h.08c.44.23.65.38.65 1.12v1.37a4.45 4.45 0 0 0 -.83-1.05 2.72 2.72 0 0 0 -1.9-.78h-.1a3 3 0 0 0 -2 1 5.15 5.15 0 0 0 -.57-.51 5.62 5.62 0 0 0 -2.6-1.11 6.2 6.2 0 0 0 -1-.08 5.53 5.53 0 0 0 -4 1.51 7.57 7.57 0 0 0 -5-1.69 8 8 0 0 0 -1.6.15 7.27 7.27 0 0 0 -3.3 1.51 5.52 5.52 0 0 0 -4-1.51 6 6 0 0 0 -1.85.28 5.31 5.31 0 0 0 -1.15.5 5.62 5.62 0 0 0 -1.16.92 3 3 0 0 0 -2.14-1 3.11 3.11 0 0 0 -2.68 1.83c.02-.42.01-.87.01-1.34zm.08 2.32a4.61 4.61 0 0 1 1.06-1.69c0 5.41 1.46 8.26 1.46 8.26 0-1.07-.55-2 .17-2 .33 0 .45.48.45.48a.36.36 0 0 1 .28-.17 44.78 44.78 0 0 1 -.77-7.21 2.72 2.72 0 0 1 2.13 1.22 4.41 4.41 0 0 1 1.21-1.12 5.35 5.35 0 0 1 1.15-.55 5.69 5.69 0 0 1 1.81-.28 4.86 4.86 0 0 1 3.94 1.7 6.4 6.4 0 0 1 3.38-1.73 7.81 7.81 0 0 1 1.6-.16 6.82 6.82 0 0 1 5 1.89 4.83 4.83 0 0 1 3.94-1.7 6.2 6.2 0 0 1 1 .08 5.17 5.17 0 0 1 2.31 1 4.18 4.18 0 0 1 .86.87 2.88 2.88 0 0 1 1.62-1.16 2.1 2.1 0 0 1 .51-.06 2.37 2.37 0 0 1 1.85.94 4.77 4.77 0 0 1 .79 1.4c-.77 10.8-6.58 12.84-10.1 14.18a1.11 1.11 0 0 0 -.28-.24c1.7-1.54 7.25-2.7 9.06-7.86-2.89 5-6 5.08-9.66 7.56l-.38-.13c2.92-2.3 7.42-3.26 9.12-7.07-2.14 3.57-5.14 3.77-9.61 6.93l-.52-.12c2.29-2.24 6.84-2.4 8.78-7.11-2.88 4.71-6.16 3.89-9.46 7l-.45-.06c2.9-3 6.55-2.49 8-7.59-2.7 5.13-4.84 3.59-8.9 7.49l-.53-.05c2.24-3.24 7.12-2.49 7.71-9-2.07 6.5-6.19 5.12-8.87 8.93h-.57c2-3.71 6.76-3.14 7.49-9.94-2 7.25-6.43 5.47-8.88 9.93h-.66c1.12-3.44 7.75-4.83 6.87-9.72-.27 5-6.09 5.2-8 9.76h-.44c1.3-3.77 4.83-4.61 5.21-8.71-1.24 4.12-5.25 5-6.21 8.78h-.46c.65-3.62 3-4.31 3.43-7.9-1.13 3.66-3.72 3.63-4.75 8.08l-.56.12c-.6-3.47 2.22-2.87 2.52-8.27-1 5.18-4.5 4.45-3.53 8.62-.88.31-1 .6-1 .6-3.58-1.37-9.39-3.41-10.12-14.22zm12.55 13.74v-.2l.57-.09q.45-.07 1-.12l1.24-.11c.77 0 1.61-.07 2.54-.07a37.31 37.31 0 0 1 3.81.18c.46.05.88.1 1.25.17 1.49.25 2.3.61 2.3 1a8.66 8.66 0 0 0 -2.3-.6c-.36-.06-.78-.12-1.25-.17a35.6 35.6 0 0 0 -3.81-.18c-1 0-1.8 0-2.54.07l-1.24.11q-.53 0-1 .12a9.63 9.63 0 0 0 -2.63.65c0-.23.34-.46 1-.67v.17zm-1.5 1.36a28.89 28.89 0 0 1 6.8-.66 29.08 29.08 0 0 1 6.8.66c-1.66 2.39 4.47 1.71 4.47 4.1h-.11c-.08.36-.48.26-.45-.14a.33.33 0 1 1 -.66 0h-.16a.42.42 0 0 1 -.39.34 13.58 13.58 0 0 1 1.57.38l-.19.18a17.5 17.5 0 0 0 -3.08-.66c-.62-.08-1.34-.15-2.18-.22-1.51-.11-3.37-.19-5.64-.19-1.19 0-2.25 0-3.22.06-.5 0-1 0-1.41.06l-1.55.12a23.61 23.61 0 0 0 -4.65.75l-.19-.18a14.16 14.16 0 0 1 1.56-.38.51.51 0 0 1 -.44-.49h-.08c0 .78-.68.68-.68.18 0 .4-.37.5-.44.14h-.11c-.04-2.34 6.09-1.66 4.43-4.05zm-4.68 5.55s.14-.22 1.08-.48v.68c.49-.11 1.17-.24 2.12-.36v-.72q.85-.12 2-.21l1.62-.1 1.46-.05c1 0 2-.05 3.22-.05 2.31 0 4.16.06 5.64.16.84.05 1.56.12 2.18.19 3.3.38 3.66.94 3.66.94v.78a11 11 0 0 0 -3.7-.76c-.62-.07-1.35-.13-2.18-.19-1.49-.1-3.35-.16-5.64-.16-1.19 0-2.26 0-3.22.05l-1.41.05-1.62.1c-4.24.32-5.24.91-5.24.91zm-.25 1.56c0-.16.34-.35 1-.53v3c.39 0 .91-.12 1.59-.17v-2.63a.72.72 0 0 1 .38-.56c.64-.08 1.39-.16 2.26-.22.58-.05 1.22-.09 1.91-.12l1.47-.05c.94 0 2-.05 3.09-.05 2.21 0 4.09.06 5.64.16.81.05 1.54.11 2.18.18 2.69.28 3.91.69 3.91 1v3.18a17.34 17.34 0 0 0 -3.9-.48c-.63 0-1.35-.08-2.18-.11-1.5-.05-3.36-.09-5.64-.09-1.19 0-2.26 0-3.22 0h-1.52c-1.26 0-2.3.09-3.16.14a17.46 17.46 0 0 0 -3.85.47zm-.07 3.71a8.85 8.85 0 0 1 1.21-.18 17.66 17.66 0 0 0 -1.5 1.19c.46 0 1-.09 1.73-.13a14.52 14.52 0 0 1 1.39-1.2l1.34-.08 2.94-.1h1.39 3.31c2.36 0 4.27 0 5.8.07.88 0 1.63.06 2.28.1a21.86 21.86 0 0 1 3.72.37 5.86 5.86 0 0 1 2.09 1.77 27.07 27.07 0 0 0 -4-.41c-.68 0-1.46-.08-2.37-.11-1.92-.07-4.39-.12-7.52-.12h-3.91-1.38c-1.77 0-3.21.1-4.36.17a28.57 28.57 0 0 0 -4.24.42 5.86 5.86 0 0 1 2.08-1.76zm.84 6.3v-4.42l1.17-.07c1.18-.06 2.67-.11 4.49-.15h1.37 3.94c3.14 0 5.65 0 7.62.11l2.33.1c2.63.13 3.71.28 3.71.28v5a23.77 23.77 0 0 0 -3.71-.32l-2.33-.09c-1.91-.05-4.39-.09-7.62-.09h-3.94-1.37c-1.88 0-3.35.08-4.49.13a24 24 0 0 0 -3.87.33v-5.03l1-.1v4.44zm-2.3 1.72 1.06-.08c1.27 2.45-1.91 2.25-2.2 3.92l2.06-.06c.39-1.35 3-1.14 1.67-4l1.08-.07c1.27-.07 2.79-.14 4.46-.2h1.34c1.22 0 2.49-.05 3.78-.05 2.71 0 5.35.09 7.56.19l2.25.11c2.13.13 3.49.24 3.49.24-1.49 2.59 2.21 1.78 2.21 4.43 0 0-1.59-.08-4.6-.15l-2.56-.06c-2.28 0-5.06-.07-8.33-.07h-4.5-1.36c-1.81 0-3.38 0-4.7.08-3.23.08-4.93.16-4.93.16 0-2.61 3.74-1.8 2.22-4.39zm-2.22 5h1v3.9h2v-3.92h1.94 4.69 5.88 8.31 2.57 4.61v4.48l-4.61-.07h-2.57c-2.32 0-5.13 0-8.31 0h-5.9-4.69c-3.13 0-4.92.08-4.92.08zm.43 5.44h1.12c.9 2.52-3 1.55-3 3.68.48 0 1.14.07 2 .1 0-2.23 4-1.1 3-3.82h2.66 3.58 5.74c4.2 0 7.4 0 9.74.06h2.1c2.24.05 3.21.09 3.21.09-1 2.63 3 1 2.92 4 0 0-1.24.13-4.7.23l-2.52.01c-2.65.06-6.17.1-10.75.1h-5.17-1.48l-4-.07c-5.53-.11-7.39-.3-7.39-.3-.1-3.11 3.97-1.46 2.94-4.07zm-10.68 11.62a1.26 1.26 0 0 1 -.18-.92s2.26.32 6.35.52a156.54 156.54 0 0 0 17.36-.21c-1.73 0-3.33 0-4.83 0h-1.83c-3.91-.07-7-.19-9.38-.32a68.25 68.25 0 0 1 -7.06-.64c.45-4.39 7.25-4.92 7.25-4.92s.59.2 6.44.34l4.79.07h1.81 5c4.17 0 7.38 0 9.86-.07l2.95-.09a34.16 34.16 0 0 0 5.31-.31s6.79.53 7.24 4.92a1.1 1.1 0 0 1 .6.7 1.22 1.22 0 0 1 -.19.89s-1 .18-3.85.38h-43.79c-2.83-.2-3.85-.34-3.85-.34zm-5.88 2.86h7.06l2.86 7.26 1.85-7.26h4.64l-3.33 13h-5l-3.15-8-2 8h-4.69l2.55-10a3.07 3.07 0 0 0 -.79-3.04zm-4.07 0 1.9 13h-5l-.23-3h-4.33l-1.65 3h-5.11l8.46-13zm-24.68 10.01c-.75 3-4.52 4.52-9 4.52s-6.57-1.27-6.57-1.27l1.73-3.12a12.61 12.61 0 0 0 5.3 1.08c1.57 0 3.08-.49 3.33-1.47.71-2.78-8.85-2.34-7.41-8 .52-2 3.27-4.29 8.93-4.29a13.7 13.7 0 0 1 5.28.9l-1.63 3.17a10.34 10.34 0 0 0 -4.09-.76c-1.84 0-3.09.53-3.28 1.27-.68 2.55 8.85 2.36 7.41 7.97zm.88-7 1.56-3.06h13.65l-1.56 3.06h-4.12l-2.55 10h-4.63l2.55-10zm7.73 22.84-1.09 4.29h-4.63l2.55-10a3.06 3.06 0 0 0 -.79-3h8.13c3.62 0 6.12 1.69 5.44 4.37s-4.06 4.35-7.68 4.35zm51.76 74.1-32-16.62 32 14.06 32-14.06zm40-30.22a16.37 16.37 0 0 1 -8.86 10.47l-31.14 12.43-31.16-12.42a16.34 16.34 0 0 1 -8.86-10.47l-7.89-36.49h4.85l7.67 35.49a11.79 11.79 0 0 0 6 7.07l29.41 11.72 29.4-11.72a11.76 11.76 0 0 0 6-7.07l7.68-35.49h2.25a22.46 22.46 0 0 0 2.56.19zm15.48-49.16a8.76 8.76 0 0 0 -3.28-.6c-1.57 0-2.41.45-2.49.75-.33 1.3 7.18 1.67 6.1 5.9-.62 2.43-3.64 3.7-7.45 3.7s-5.51-1-5.51-1l1.59-2.93a10.53 10.53 0 0 0 4.33.88c1.34 0 2.34-.36 2.47-.87.35-1.37-7.22-1.53-6.09-6 .55-2.13 3.4-3.52 7.46-3.52a11.59 11.59 0 0 1 4.37.69zm5.38-12.43c-1 4.08-4.6 5-8.68 5s-7.15-1-6.11-5l2.09-8.17h4.63l-2.09 8.17c-.39 1.53.73 2 2.26 2s2.88-.45 3.27-2l2.09-8.17h4.63zm15.93-3.81c-.68 2.68-4 4.37-7.67 4.37h-1.93l-1.09 4.27h-4.63l3.33-13h6.55c3.63-.01 6.14 1.68 5.44 4.36z" fill="#231f20"/><path d="m152.41 71.88h-2.55l-.67 2.62h2.55a1.79 1.79 0 0 0 1.64-1.31 1 1 0 0 0 -.97-1.31z" fill="#231f20"/><path d="m34.42 90.35a1 1 0 0 0 -1-1.31h-2.51l-.68 2.62h2.55a1.8 1.8 0 0 0 1.64-1.31z" fill="#231f20"/><path d="m91.14 88.84c-2.68 0-3.91 1.63-4.43 3.65s-.11 3.64 2.57 3.64 3.91-1.63 4.42-3.64.12-3.65-2.56-3.65z" fill="#231f20"/><path d="m62.24 93.26-.33-4.2-2.31 4.2z" fill="#231f20"/><path d="m92.36 113.87a15.44 15.44 0 0 1 .82-4.88 7.5 7.5 0 0 1 -2.46-2.19l-22.8 17.11a8.36 8.36 0 0 0 4.77 7.1l19.84-14.9a15 15 0 0 1 -.17-2.24zm-14.3 11.6-1.76 1.32-1.91-2.91v4.34l-1.67 1.25v-6.14a.85.85 0 0 0 -.82-.89l2.36-1.77 2.13 3.26v-4.86l1.67-1.26zm6.73-5.06-1.63 1.23v-2.8l-1.89 1.41v2.8l-1.71 1.29v-6.14a.85.85 0 0 0 -.83-.89l2.54-1.91v2.83l1.89-1.42v-2.81l1.63-1.23zm6.21-4.62-4.74 3.55v-6.14a.84.84 0 0 0 -.82-.89l2.54-1.91v5.7l3-2.26a9.87 9.87 0 0 0 .02 1.95z" fill="#231f20"/><path d="m81.21 137s1.12-1.22 1.3-1.39c1.35-.48 3.19-.66 5.86-1.33a11.12 11.12 0 0 0 8.68-10.61c0-4.07-2.13-5.33-2.13-9.78a14.52 14.52 0 0 1 1.66-6.4s-4.07-.35-5.17-5.3c0 0-2.44 2.51-4.92 2.51a7.4 7.4 0 0 1 -5.28-2.7 7.41 7.41 0 0 1 -5.29 2.71c-2.47 0-4.91-2.51-4.91-2.51-1.1 5-5.17 5.3-5.17 5.3a14.58 14.58 0 0 1 1.65 6.4c0 .45 0 .87-.06 1.27-.35 3.46-2.07 4.85-2.07 8.51a11.13 11.13 0 0 0 8.69 10.61c2.66.67 4.5.85 5.86 1.33.17.14 1.3 1.38 1.3 1.38zm-14.65-13.35c0-3.71 2.13-5.07 2.13-9.78a14 14 0 0 0 -1.2-5.62 6.08 6.08 0 0 0 4.06-4.07 7 7 0 0 0 4.37 1.72 7.9 7.9 0 0 0 5.29-2.23 7.89 7.89 0 0 0 5.28 2.23 7.05 7.05 0 0 0 4.38-1.72 6.08 6.08 0 0 0 4 4.07 14.12 14.12 0 0 0 -1.19 5.62c0 4.71 2.12 6.07 2.12 9.78 0 5.18-4 8.48-7.78 9.43-3 .76-4.91.84-6.21 1.47 0 0-.47.43-.65.63-.18-.2-.66-.63-.66-.63-1.3-.63-3.24-.71-6.2-1.47-3.7-.95-7.74-4.25-7.74-9.43z" fill="#231f20"/><path d="m86.49 107.26a9 9 0 0 1 -5.28-1.82 9 9 0 0 1 -5.29 1.82 7.9 7.9 0 0 1 -3.84-1.06 7.57 7.57 0 0 1 -2.84 2.8 15.77 15.77 0 0 1 .81 4.88c0 3.88-1.33 5.69-1.89 7.89l19.42-14.59a6.33 6.33 0 0 1 -1.09.08z" fill="#231f20"/><path d="m81.21 133.56a4.27 4.27 0 0 1 .43-.39c.87-.5 3.74-.81 6.09-1.4 3.26-.83 6.76-3.72 6.76-8.12 0-2.19-1-3.64-1.59-5.84l-18.49 13.88.27.08c2.35.59 5.22.9 6.09 1.4a3.74 3.74 0 0 1 .44.39z" fill="#231f20"/><path d="m98.68 133.21a1.52 1.52 0 1 0 -1.52 1.51 1.52 1.52 0 0 0 1.52-1.51zm-2.71 0a1.19 1.19 0 1 1 1.19 1.19 1.19 1.19 0 0 1 -1.16-1.19z" fill="#fff"/><path d="m97.78 134.07-.34-.73a.51.51 0 0 0 .34-.48.51.51 0 0 0 -.51-.52h-.73v1.73h.32v-.7h.23l.33.7zm-.51-1h-.41v-.38h.41a.2.2 0 0 1 .19.2.19.19 0 0 1 -.19.11z" fill="#fff"/><path d="m65.89 147.38v-.76c4.89-2.57 5.92-3.08 5.92-3.52v-.1c0-.27-.12-.74-1.78-.74h-.91c-1.61 0-1.74.45-1.74.7v.23h-1.19v-.25c0-.58.64-1.54 2.93-1.53h.89c2.27 0 3 .71 3 1.58v.22c0 .8-1.7 1.57-5.09 3.36h5.24v.86z" fill="#fff"/><path d="m84.38 147.38v-.76c4.89-2.57 5.92-3.08 5.92-3.52v-.1c0-.27-.12-.74-1.78-.74h-.9c-1.62 0-1.74.45-1.74.7v.23h-1.19v-.25c0-.58.64-1.54 2.93-1.53h.88c2.27 0 3 .71 3 1.58v.22c0 .8-1.7 1.57-5.08 3.36h5.23v.86z" fill="#fff"/><path d="m79.17 147.51h-.94c-2.33 0-2.93-.92-2.93-1.69 0 0 0-1.8 0-2.82 0-.75.63-1.64 2.92-1.64h1c2.39 0 3 .76 3 1.64v2.85c.03.85-.41 1.66-3.05 1.66zm1.9-4.47c0-.27-.12-.81-1.78-.81h-1.07c-1.62 0-1.73.53-1.73.77v2.73c0 .23.08.89 1.7.89h1c1.86 0 1.86-.57 1.86-.86z" fill="#fff"/><path d="m95.1 147.38v-4.32h-1.34v-.73c1 0 1.85-.58 1.93-1h.63v6z" fill="#fff"/></svg>