<?xml version="1.0" encoding="UTF-8" standalone="no"?>
<!-- Generator: Adobe Illustrator 21.0.2, SVG Export Plug-In . SVG Version: 6.00 Build 0)  -->

<svg
   xmlns:dc="http://purl.org/dc/elements/1.1/"
   xmlns:cc="http://creativecommons.org/ns#"
   xmlns:rdf="http://www.w3.org/1999/02/22-rdf-syntax-ns#"
   xmlns:svg="http://www.w3.org/2000/svg"
   xmlns="http://www.w3.org/2000/svg"
   xmlns:sodipodi="http://sodipodi.sourceforge.net/DTD/sodipodi-0.dtd"
   xmlns:inkscape="http://www.inkscape.org/namespaces/inkscape"
   version="1.1"
   id="Layer_1"
   x="0px"
   y="0px"
   viewBox="0 0 7.6367221 6.9941425"
   xml:space="preserve"
   sodipodi:docname="TBL_25_anniversary.svg"
   width="7.6367221"
   height="6.9941425"
   inkscape:version="0.92.2 5c3e80d, 2017-08-06"><metadata
     id="metadata37"><rdf:RDF><cc:Work
         rdf:about=""><dc:format>image/svg+xml</dc:format><dc:type
           rdf:resource="http://purl.org/dc/dcmitype/StillImage" /><dc:title></dc:title></cc:Work></rdf:RDF></metadata><defs
     id="defs35" /><sodipodi:namedview
     pagecolor="#ffffff"
     bordercolor="#666666"
     borderopacity="1"
     objecttolerance="10"
     gridtolerance="10"
     guidetolerance="10"
     inkscape:pageopacity="0"
     inkscape:pageshadow="2"
     inkscape:window-width="1284"
     inkscape:window-height="779"
     id="namedview33"
     showgrid="false"
     inkscape:pagecheckerboard="true"
     inkscape:zoom="54"
     inkscape:cx="4.0961414"
     inkscape:cy="3.7651437"
     inkscape:window-x="0"
     inkscape:window-y="0"
     inkscape:window-maximized="0"
     inkscape:current-layer="g18" /><g
     id="g18"
     transform="translate(-8.417966,-8.0253906)"><path
       style="fill:#001f5b"
       d="m 16.054688,8.0253906 -1.949219,0.4570313 -0.01953,0.00391 c -0.491067,0.11515 -0.991345,0.2318919 -1.41211,0.3300781 H 12.56836 l -0.04297,0.00195 h -0.04492 c -0.075,0.002 -0.149656,0.00572 -0.222657,0.011719 -0.376682,0.025139 -0.633598,0.100998 -0.980468,0.1835938 l -0.134766,0.042969 c -0.04,0.013 -0.07919,0.027969 -0.117187,0.042969 -0.152,0.057 -0.299453,0.1194531 -0.439453,0.1894531 -0.203,0.102 -0.395266,0.2177031 -0.572266,0.3457031 -0.097,0.07 -0.1912501,0.14275 -0.2812501,0.21875 l -0.037109,0.035156 c -0.088,0.08 -0.1700469,0.161094 -0.2480469,0.246094 -0.107,0.117 -0.2031093,0.240187 -0.2871094,0.367187 l -0.00977,0.01172 c -0.7377036,0.954443 -0.2882001,2.243866 0.1425782,2.685547 0.052,0.057 0.1050624,0.111062 0.1640624,0.164062 l 0.074219,0.07227 -0.0625,0.08984 -0.1699219,0.24414 -0.8808593,1.25 1.863281,-1.15625 c 0.09,0.035 0.180391,0.0667 0.275391,0.0957 0.08,0.023 0.142265,0.04274 0.197265,0.05274 0.302,0.073 0.620266,0.109375 0.947266,0.109375 0.708,0 1.394234,-0.166219 1.990234,-0.449219 0.123,-0.058 0.241469,-0.123406 0.355469,-0.191406 0.156,-0.092 0.302453,-0.190828 0.439453,-0.298828 0.715655,-0.542361 1.319882,-1.280687 1.070313,-2.558594 -0.038,-0.127 -0.08839,-0.249141 -0.150391,-0.369141 -0.045,-0.083 -0.09344,-0.16514 -0.148438,-0.24414 -0.037,-0.05 -0.07619,-0.1003909 -0.117187,-0.1503909 -0.063,-0.076 -0.133984,-0.1507031 -0.208984,-0.2207031 -0.122,-0.114 -0.25725,-0.2205 -0.40625,-0.3125 l -0.02344,-0.015625 0.01758,-0.013672 0.02539,-0.023437 0.0332,-0.029297 0.03516,-0.029297 0.179688,-0.15625 c 0.51658,-0.4180944 0.924699,-0.776865 1.261719,-1.0332032 z m -0.994141,0.4648438 -0.109375,0.085937 -0.398438,0.3183593 -0.171875,0.1367188 -0.03516,0.027344 -0.03516,0.027344 L 14.048828,9.296875 13.615234,9.6386719 13.375,9.828125 l -0.03906,0.03125 -0.166016,0.1328125 -0.0332,0.025391 -0.02344,0.01953 -0.01367,0.0098 -0.06641,0.05273 0.105469,-0.01367 0.05859,-0.0078 0.05078,-0.0078 0.146484,-0.01953 0.679688,-0.089844 -0.152344,0.1269535 -0.314453,0.257812 -0.0332,0.02734 -0.03516,0.0332 -0.173828,0.142578 -0.451172,0.371094 -0.49414,0.40625 -0.06445,0.05273 -0.0293,0.02344 -0.267578,0.21875 -0.123047,0.101562 -0.0957,0.08008 0.402344,-0.08008 0.505859,-0.09961 0.01367,-0.002 0.08789,-0.01758 -0.02734,0.01953 -0.06055,0.04492 -0.07422,0.05469 -0.298828,0.21875 -1.523438,1.13086 -0.507812,0.375 -0.337891,0.25 -0.925781,0.6875 0.00195,-0.0059 0.5683594,-0.65039 0.2128906,-0.244141 0.089844,-0.103516 c -0.107,-0.067 -0.2068281,-0.140703 -0.2988281,-0.220703 -0.3620001,-0.315 -0.5948594,-0.728703 -0.6308594,-1.220703 -0.002,-0.043 -0.00391,-0.08686 -0.00391,-0.130859 l 0.00195,-0.08984 c 0.002,-0.036 0.00672,-0.07242 0.011719,-0.107422 0.007,-0.073 0.018156,-0.14575 0.035156,-0.21875 0,-0.006 0.00486,-0.01058 0.00586,-0.01758 0.047,-0.194 0.1225157,-0.382453 0.2285156,-0.564453 0.042,-0.075 0.090578,-0.150703 0.1425782,-0.220703 l 0.029297,-0.04297 0.033203,-0.04297 0.025391,-0.03125 c 0.107,-0.133 0.2292813,-0.258906 0.3632812,-0.378906 0.093998,-0.082 0.1928745,-0.1613281 0.2968745,-0.2363281 l 0.01172,-0.00977 c 0.106,-0.075 0.219844,-0.1439843 0.339844,-0.2089843 0.25,-0.14 0.5225,-0.2577031 0.8125,-0.3457031 l 0.173828,-0.050781 0.04297,-0.00977 c 0.014,-0.002 0.02797,-0.00577 0.04297,-0.00977 0.074,-0.016 0.145703,-0.031922 0.220703,-0.044922 0.156001,-0.028 0.315563,-0.047594 0.476563,-0.058594 0.075,-0.005 0.149561,-0.00777 0.226563,-0.00977 h 0.146484 l 1.394531,-0.3652344 0.04297,-0.00977 0.04102,-0.00977 0.214843,-0.058594 0.40625,-0.1074218 z m -2.660156,0.8203125 c -0.182,0.003 -0.365922,0.019875 -0.544922,0.046875 -0.074,0.012 -0.14675,0.026969 -0.21875,0.042969 l -0.04492,0.00977 c -0.014,0.002 -0.02797,0.00577 -0.04297,0.00977 -0.22,0.052 -0.433766,0.1248906 -0.634766,0.2128906 -0.13,0.057 -0.255953,0.1194531 -0.376953,0.1894531 l -0.05078,0.029297 c -0.112,0.068 -0.217406,0.1397969 -0.316406,0.2167964 -0.148,0.115 -0.2824376,0.241954 -0.3984376,0.376953 l -0.042969,0.05274 -0.035156,0.04101 -0.03125,0.04297 c -0.053,0.072 -0.099578,0.145703 -0.1425782,0.220703 -0.1,0.18 -0.1711718,0.370407 -0.2011718,0.566407 0,0.007 4.68e-5,0.01258 -0.00195,0.01758 -0.01,0.07 -0.015625,0.14089 -0.015625,0.21289 v 0.0098 c 0,0.035 -9.37e-5,0.06952 0.00391,0.103516 0.006,0.076 0.019109,0.150703 0.037109,0.220703 0.116,0.465 0.4720312,0.828593 0.9570306,1.058594 l 0.490234,-0.558594 -0.699218,0.128906 0.646484,-0.625 0.230469,-0.21875 0.103515,-0.103516 0.230469,-0.220703 0.01953,-0.02148 0.50586,-0.488281 -0.88086,0.140625 0.19336,-0.216797 0.199219,-0.220703 0.03711,-0.04297 0.03711,-0.04297 0.134766,-0.150391 0.0039,-0.002 0.04102,-0.04883 0.04297,-0.04687 0.220703,-0.248047 h 0.002 l 0.132812,-0.1503901 0.06641,-0.072266 0.132812,-0.1503906 0.234375,-0.2636719 0.05273,-0.058594 z m 1.83789,0.1855469 c 0.08,0.044 0.156469,0.092578 0.230469,0.1425781 0.098,0.07 0.189484,0.14175 0.271484,0.21875 0.034,0.033 0.06666,0.064656 0.09766,0.097656 0.073,0.078 0.138312,0.1600941 0.195312,0.2460941 0.082,0.12 0.149219,0.244047 0.199219,0.373047 0.023,0.06 0.03964,0.119687 0.05664,0.179687 l 0.01172,0.04297 0.0078,0.04102 c 0.015,0.073 0.02625,0.147703 0.03125,0.220703 0.002,0.032 0.0039,0.0637 0.0039,0.0957 0,0.085 -0.0085,0.167953 -0.02148,0.251953 -0.01,0.074 -0.02689,0.147703 -0.04687,0.220703 -0.034,0.117 -0.07781,0.23175 -0.132813,0.34375 -0.036,0.074 -0.07609,0.145797 -0.121094,0.216797 -0.224128,0.358605 -0.556062,0.683755 -0.96289,0.951172 -0.17,0.112 -0.351922,0.212781 -0.544922,0.300781 -0.16,0.073 -0.327,0.136453 -0.5,0.189453 -0.41,0.13 -0.855453,0.203125 -1.314453,0.203125 -0.41,0 -0.800391,-0.06169 -1.150391,-0.179687 h -0.0078 l 0.320312,-0.238282 0.238281,-0.175781 c 0.16,0.024 0.326094,0.03516 0.496094,0.03516 0.442,0 0.872625,-0.07684 1.265625,-0.214844 0.588,-0.205 1.092688,-0.544172 1.429688,-0.951172 0.053,-0.066 0.102484,-0.131219 0.146484,-0.199219 0.06,-0.092 0.11325,-0.188156 0.15625,-0.285156 l 0.01563,-0.03711 c 0.026,-0.06 0.04841,-0.120594 0.06641,-0.183594 0.035,-0.12 0.05359,-0.243141 0.05859,-0.369141 v -0.05078 c 0,-0.058 -0.0028,-0.115875 -0.0098,-0.171875 l -0.0059,-0.04297 -0.01172,-0.04492 c -0.014,-0.075 -0.03355,-0.14875 -0.06055,-0.21875 -0.05,-0.13 -0.120031,-0.255094 -0.207031,-0.371094 -0.065,-0.086 -0.142469,-0.1661872 -0.230469,-0.2421872 -0.01,-0.01 -0.02316,-0.02125 -0.03516,-0.03125 -0.064,-0.054 -0.132078,-0.1014375 -0.205078,-0.1484375 l 0.08984,-0.072266 z"
       id="path14"
       inkscape:connector-curvature="0" /><path
       style="opacity:1;fill:#ffffff;fill-opacity:1;stroke:none;stroke-width:0.06999125;stroke-miterlimit:4;stroke-dasharray:none;stroke-opacity:1"
       d="m 9.2289222,14.248442 c 0,-0.0053 0.1645833,-0.197603 0.3657407,-0.427321 0.2011574,-0.229718 0.3657408,-0.424761 0.3657408,-0.433429 0,-0.0087 -0.067156,-0.06575 -0.1492362,-0.126858 C 8.8268,12.528019 8.7861651,11.277016 9.7150549,10.301868 10.26794,9.7214488 11.043893,9.3243061 11.914107,9.1763651 c 0.09676,-0.01645 0.32176,-0.038819 0.5,-0.04971 L 12.738181,9.1068525 13.620512,8.87707 c 0.485282,-0.1263804 0.992142,-0.259018 1.126355,-0.2947501 0.134213,-0.035732 0.248781,-0.064968 0.254595,-0.064968 0.01016,0 -0.607896,0.494192 -1.537516,1.2293848 -0.242495,0.1917787 -0.43812,0.3514693 -0.434722,0.3548683 0.0034,0.0034 0.218471,-0.02254 0.477939,-0.05764 0.259468,-0.0351 0.48256,-0.061697 0.495762,-0.059105 0.02472,0.00485 -0.03031,0.051403 -1.098077,0.928995 -0.346296,0.284619 -0.725463,0.596604 -0.842592,0.693299 -0.11713,0.0967 -0.216436,0.178546 -0.22068,0.181892 -0.03095,0.0244 0.06339,0.01013 0.461073,-0.06975 0.249346,-0.05009 0.460106,-0.08881 0.468355,-0.08606 0.0083,0.0027 -0.05826,0.05896 -0.1478,0.124906 -0.179856,0.13247 -1.659451,1.228709 -2.7033384,2.002919 -0.3685922,0.27337 -0.6748422,0.497036 -0.6805555,0.497036 -0.00571,0 -0.010388,-0.0043 -0.010388,-0.0097 z M 10.543737,12.72868 c 0.127315,-0.147316 0.23438,-0.276328 0.237924,-0.286692 0.0037,-0.01096 -0.01175,-0.01472 -0.03704,-0.009 -0.135576,0.03075 -0.57621,0.104301 -0.592434,0.09889 -0.01054,-0.0035 0.02533,-0.04752 0.07971,-0.0978 0.05438,-0.05028 0.435279,-0.416697 0.846442,-0.814264 0.621066,-0.60053 0.740145,-0.72363 0.703703,-0.727466 -0.02412,-0.0025 -0.214697,0.02353 -0.423493,0.05793 -0.208796,0.0344 -0.380923,0.06148 -0.382504,0.06017 -0.0016,-0.0013 0.338003,-0.383951 0.75463,-0.850318 0.416627,-0.4663671 0.757503,-0.8522866 0.757503,-0.8575989 0,-0.01456 -0.334253,0.00959 -0.564814,0.040803 C 10.70538,9.5082611 9.6348417,10.265 9.3601716,11.15522 c -0.082389,0.267026 -0.085697,0.576126 -0.00902,0.842508 0.070133,0.243639 0.2682155,0.53337 0.4881941,0.714069 0.1171921,0.09627 0.4216663,0.287895 0.4542333,0.285883 0.01027,-6.34e-4 0.122841,-0.121684 0.250156,-0.269 z"
       id="path858"
       inkscape:connector-curvature="0" /><path
       style="opacity:1;fill:#ffffff;fill-opacity:1;stroke:none;stroke-width:0.06999125;stroke-miterlimit:4;stroke-dasharray:none;stroke-opacity:1"
       d="m 11.440586,13.810288 c -0.325671,-0.01733 -0.841913,-0.12234 -0.845024,-0.171894 -5.65e-4,-0.009 0.113575,-0.100808 0.253645,-0.203984 l 0.254674,-0.187593 0.131965,0.01649 c 0.188988,0.02362 0.785314,0.0039 0.983817,-0.03249 0.259696,-0.04764 0.514335,-0.116005 0.719465,-0.193155 0.732589,-0.275527 1.314639,-0.748473 1.605217,-1.304324 0.323451,-0.618732 0.244163,-1.253034 -0.216961,-1.735687 -0.0755,-0.079022 -0.182703,-0.1749691 -0.238235,-0.2132154 -0.05553,-0.038246 -0.100968,-0.071603 -0.100968,-0.074125 0,-0.012554 0.239385,-0.1929608 0.256042,-0.1929608 0.01062,0 0.09327,0.049472 0.183667,0.1099374 0.647935,0.4333968 0.985551,1.1022688 0.886342,1.7559908 -0.09869,0.650282 -0.532667,1.257171 -1.233458,1.724899 -0.771795,0.515118 -1.669207,0.753768 -2.640188,0.702109 z"
       id="path860"
       inkscape:connector-curvature="0" /></g></svg>