<?xml version="1.0" encoding="utf-8"?>
<!-- Generator: Adobe Illustrator 21.0.2, SVG Export Plug-In . SVG Version: 6.00 Build 0)  -->
<svg version="1.1" id="Layer_1" xmlns="http://www.w3.org/2000/svg" xmlns:xlink="http://www.w3.org/1999/xlink" x="0px" y="0px"
	 viewBox="0 0 24 16" style="enable-background:new 0 0 24 16;" xml:space="preserve">
<path style="fill:none;" d="M23.12,10.256l-0.847-0.35c-0.924-0.38-1.858-0.71-2.8-0.985c0.09-0.38,0.135-0.786,0.135-1.21
	c0-1.066-0.316-2.035-0.898-2.78h0.54V0.665h-7.264l-0.095,0.857c-0.737-0.717-1.765-1.106-2.946-1.106
	c-1.275,0-2.35,0.43-3.105,1.242C5.093,2.458,4.7,3.592,4.7,4.934v1.394h1.804c-0.702,0.61-1.354,1.386-1.696,2.51
	c-1.037,0.294-2.065,0.65-3.08,1.07L0.88,10.256l0.692,0.6c0.356,0.31,0.713,0.63,1.06,0.96c-0.175,0.55-0.342,1.107-0.5,1.66
	l-0.316,1.12l1.076-0.443c0.377-0.155,0.756-0.3,1.14-0.437l0.347,1.265l0.568-0.195c1.173-0.404,2.37-0.705,3.578-0.902
	l-0.572,0.81c-0.154,0.22-0.133,0.52,0.05,0.714c0.107,0.113,0.257,0.177,0.412,0.177c0.105,0,0.208-0.03,0.298-0.085l1.634-1.014
	c0.015,0.005,0.03,0.01,0.047,0.014c0.083,0.025,0.16,0.05,0.24,0.064c0.342,0.08,0.7,0.122,1.065,0.122
	c1.074,0,2.126-0.347,2.943-0.916c1.47,0.186,2.925,0.524,4.346,1.014l0.568,0.196l0.353-1.286c0.403,0.142,0.802,0.295,1.197,0.458
	l1.076,0.444l-0.317-1.12c-0.157-0.555-0.325-1.113-0.5-1.66c0.35-0.33,0.705-0.652,1.06-0.96L23.12,10.256L23.12,10.256z"/>
<g>
	<path style="fill:#A4A9AD;" d="M23.12,10.256l-0.847-0.35c-0.924-0.38-1.858-0.71-2.8-0.985c0.09-0.38,0.135-0.786,0.135-1.21
		c0-1.066-0.316-2.035-0.898-2.78h0.54V0.665h-7.264l-0.095,0.857c-0.737-0.717-1.765-1.106-2.946-1.106
		c-1.275,0-2.35,0.43-3.105,1.242C5.093,2.458,4.7,3.592,4.7,4.934v1.394h1.804c-0.702,0.61-1.354,1.386-1.696,2.51
		c-1.037,0.294-2.065,0.65-3.08,1.07L0.88,10.256l0.692,0.6c0.356,0.31,0.713,0.63,1.06,0.96c-0.175,0.55-0.342,1.107-0.5,1.66
		l-0.316,1.12l1.076-0.443c0.377-0.155,0.756-0.3,1.14-0.437l0.347,1.265l0.568-0.195c1.173-0.404,2.37-0.705,3.578-0.902
		l-0.572,0.81c-0.154,0.22-0.133,0.52,0.05,0.714c0.107,0.113,0.257,0.177,0.412,0.177c0.105,0,0.208-0.03,0.298-0.085l1.634-1.014
		c0.015,0.005,0.03,0.01,0.047,0.014c0.083,0.025,0.16,0.05,0.24,0.064c0.342,0.08,0.7,0.122,1.065,0.122
		c1.074,0,2.126-0.347,2.943-0.916c1.47,0.186,2.925,0.524,4.346,1.014l0.568,0.196l0.353-1.286
		c0.403,0.142,0.802,0.295,1.197,0.458l1.076,0.444l-0.317-1.12c-0.157-0.555-0.325-1.113-0.5-1.66c0.35-0.33,0.705-0.652,1.06-0.96
		L23.12,10.256L23.12,10.256z M2.808,13.948l-0.655,0.27l0.193-0.682c0.17-0.597,0.35-1.196,0.54-1.786
		c-0.383-0.364-0.775-0.72-1.17-1.062l-0.42-0.365l0.515-0.213c0.967-0.398,1.944-0.74,2.93-1.022
		c-0.032,0.124-0.06,0.25-0.082,0.383C4.645,9.549,4.633,9.629,4.622,9.709l-1.247,1.61l0.507,1.85l0.09,0.333
		c-0.39,0.14-0.777,0.29-1.162,0.448L2.808,13.948z M4.561,10.528l-0.004,0.395c-0.228,0.07-0.456,0.145-0.682,0.223l-0.12,0.04
		l0.824-1.06c-0.01,0.13-0.015,0.263-0.017,0.4L4.561,10.528z M19.408,14.695l-0.346-0.12c-1.362-0.468-2.755-0.8-4.165-0.993
		c-0.102-0.014-0.205-0.028-0.307-0.04c-0.09,0.066-0.186,0.13-0.284,0.19c-0.745,0.46-1.665,0.735-2.604,0.735
		c-0.35,0-0.692-0.04-1.018-0.118c-0.07-0.014-0.143-0.036-0.226-0.06l-0.137-0.045l-1.722,1.067
		c-0.056,0.035-0.12,0.052-0.18,0.052c-0.093,0-0.184-0.037-0.25-0.108c-0.113-0.12-0.126-0.3-0.032-0.434l0.695-0.987l0.175-0.248
		c-0.1,0.014-0.2,0.028-0.3,0.044c-1.295,0.2-2.575,0.514-3.83,0.946l-0.345,0.12l-0.29-1.054l-0.06-0.214l-0.09-0.332l-0.45-1.636
		l0.305-0.105c0.202-0.07,0.404-0.135,0.607-0.2l0.222-0.07l0.345-0.102c0.21-0.06,0.42-0.12,0.63-0.175
		c0.305-0.08,0.61-0.153,0.916-0.22l0.192-0.044l0.207-0.043l0.262-0.052c0.113-0.022,0.225-0.042,0.338-0.062l0.218-0.04
		c0.52-0.087,1.04-0.158,1.564-0.213c0.077-0.085,0.16-0.167,0.248-0.245c-0.62,0.058-1.24,0.138-1.857,0.242
		c-0.073,0.012-0.145,0.026-0.218,0.04l-0.338,0.06c-0.41,0.08-0.816,0.17-1.222,0.27c-0.035,0.01-0.07,0.017-0.105,0.026
		l-0.043,0.01C5.921,9.975,6,9.497,6.143,9.08c0.048-0.137,0.103-0.267,0.163-0.39c0.043-0.09,0.09-0.175,0.14-0.258
		c0.355-0.593,0.877-1.07,1.543-1.558C8.166,6.746,8.333,6.63,8.495,6.518c0.904-0.627,1.5-1.04,1.5-1.996
		c0-0.745-0.44-1.207-1.152-1.207c-0.788,0-1.223,0.55-1.223,1.544v0.117H6.05V4.933c0-2.013,1.055-3.167,2.895-3.167
		c1.682,0,2.768,1.07,2.768,2.73c0,1.355-0.64,2.076-1.904,3.008C9.574,7.677,9.351,7.832,9.155,7.969L9.117,7.995
		C8.981,8.089,8.855,8.178,8.739,8.263c-0.2,0.145-0.37,0.28-0.5,0.416c-0.105,0.11-0.185,0.22-0.234,0.336h3.27
		c0.188-0.057,0.38-0.103,0.578-0.136V8.793H8.44c0.055-0.055,0.12-0.11,0.19-0.17c0.16-0.128,0.354-0.265,0.567-0.414l0.085-0.06
		l0.287-0.2c0.117-0.084,0.242-0.172,0.37-0.267c1.294-0.954,1.994-1.744,1.994-3.186c0-1.792-1.173-2.95-2.99-2.95
		c-1.95,0-3.116,1.266-3.116,3.387v0.264H7.84v-0.34c0-0.877,0.337-1.322,1.002-1.322c0.593,0,0.932,0.36,0.932,0.986
		c0,0.84-0.53,1.206-1.406,1.815C8.206,6.446,8.04,6.563,7.862,6.692L7.857,6.695c-0.74,0.542-1.322,1.09-1.697,1.8
		C6.117,8.577,6.076,8.662,6.038,8.749C5.984,8.874,5.936,9.003,5.894,9.137c-0.126,0.41-0.197,0.87-0.204,1.403v0.056
		c-0.19,0.05-0.378,0.102-0.567,0.156l-0.345,0.1l0.004-0.323c0.003-0.26,0.02-0.503,0.05-0.734C4.849,9.659,4.87,9.528,4.895,9.401
		l0.014-0.065c0.022-0.11,0.048-0.215,0.076-0.318c0.024-0.086,0.05-0.17,0.077-0.25c0.406-1.212,1.202-2.006,2.064-2.663H4.92
		V4.934C4.92,3.65,5.294,2.57,6,1.81c0.716-0.768,1.734-1.174,2.946-1.174c1.32,0,2.42,0.51,3.113,1.402l0.127-1.153h6.846v3.82
		H18.22c0.746,0.73,1.17,1.79,1.17,3c0,0.405-0.044,0.79-0.127,1.152C19.247,8.927,19.229,9,19.209,9.07
		c-0.03,0.112-0.066,0.22-0.106,0.328l-0.007,0.02c-0.03,0.08-0.063,0.16-0.097,0.236c-0.16,0.357-0.367,0.684-0.62,0.974
		l-0.378-0.1c-0.22-0.054-0.44-0.106-0.662-0.155c0.387-0.31,0.686-0.72,0.88-1.21c0.043-0.105,0.08-0.214,0.112-0.327
		c0.02-0.07,0.038-0.14,0.055-0.214c0.063-0.286,0.096-0.592,0.096-0.916c0-1.877-1.184-3.138-2.944-3.138
		c-0.39,0-0.74,0.067-1.043,0.2l0.115-0.972h3.514v-2H13l-0.543,4.92l-0.03,0.276l1.884,0.114l0.08-0.136
		c0.193-0.318,0.465-0.473,0.834-0.473c0.68,0,1.07,0.473,1.07,1.298c0,0.142-0.01,0.272-0.03,0.39
		c-0.01,0.078-0.026,0.15-0.046,0.217c-0.036,0.124-0.085,0.232-0.147,0.325c-0.178,0.268-0.465,0.404-0.858,0.404
		c-0.17,0-0.307-0.03-0.422-0.08l-0.178,0.157c0.06,0.033,0.123,0.06,0.19,0.083c0.123,0.04,0.26,0.062,0.41,0.062
		c0.162,0,0.31-0.02,0.443-0.062c0.284-0.087,0.5-0.264,0.646-0.524c0.055-0.098,0.1-0.206,0.133-0.327
		c0.02-0.07,0.034-0.142,0.046-0.217c0.02-0.132,0.033-0.274,0.033-0.428c0-0.95-0.483-1.52-1.29-1.52
		c-0.447,0-0.79,0.196-1.023,0.58l-0.013,0.022l-1.517-0.09l0.005-0.046l0.522-4.723H17.9v1.56h-3.49l-0.19,1.608
		c0.345-0.26,0.786-0.393,1.315-0.393c1.628,0,2.722,1.172,2.722,2.917c0,0.305-0.03,0.593-0.09,0.862
		c-0.017,0.073-0.036,0.144-0.056,0.214c-0.032,0.113-0.07,0.222-0.113,0.327c-0.207,0.5-0.532,0.906-0.954,1.2
		c-0.02-0.005-0.04-0.01-0.058-0.013l-0.062-0.013c-0.094-0.02-0.187-0.038-0.28-0.056l-0.34-0.06
		c-0.072-0.014-0.144-0.028-0.217-0.04c-0.275-0.047-0.55-0.087-0.827-0.125c0.055,0.08,0.105,0.16,0.15,0.244
		c0.21,0.03,0.42,0.06,0.628,0.096c0.073,0.012,0.145,0.026,0.218,0.04l0.34,0.06l0.03,0.007l0.073,0.014
		c0.02,0.004,0.044,0.01,0.066,0.013c0.11,0.022,0.222,0.044,0.332,0.068c0.238,0.05,0.475,0.106,0.712,0.164
		c0.132,0.032,0.264,0.066,0.395,0.1c0.08,0.02,0.163,0.043,0.244,0.065c0.517,0.142,1.032,0.3,1.543,0.476l0.305,0.105
		l-0.444,1.616l-0.09,0.333l-0.06,0.214l-0.297,1.075L19.408,14.695z M19.15,9.853l1.032,1.333l-0.12-0.04
		c-0.48-0.167-0.964-0.317-1.452-0.453C18.823,10.438,19.003,10.157,19.15,9.853z M21.115,11.751c0.19,0.59,0.37,1.19,0.54,1.787
		l0.192,0.682l-0.655-0.27c-0.404-0.168-0.81-0.323-1.222-0.468l0.09-0.333l0.504-1.83L19.25,9.625
		c0.022-0.053,0.043-0.107,0.063-0.162c0.04-0.107,0.074-0.216,0.106-0.328c0.93,0.274,1.854,0.6,2.77,0.976l0.514,0.213
		l-0.42,0.365c-0.395,0.34-0.787,0.697-1.17,1.06L21.115,11.751z"/>
	<path style="fill:#A4A9AD;" d="M14.278,8.158l-0.017-0.223V7.932h-2.095l0.006,0.127l0.007,0.147
		c0.003,0.066,0.008,0.132,0.014,0.196c0.015,0.148,0.036,0.29,0.065,0.428c0.074-0.005,0.148-0.008,0.223-0.01
		c-0.03-0.133-0.05-0.27-0.065-0.415c-0.007-0.068-0.012-0.137-0.015-0.208l-0.002-0.044h1.66l0.003,0.04
		c0.007,0.102,0.022,0.2,0.044,0.29l0.214-0.05c-0.02-0.087-0.033-0.174-0.04-0.258V8.158H14.278z"/>
</g>
<g>
	<path style="fill:#001F5B;" d="M4.556,10.923l0.005-0.396c0.003-0.138,0.01-0.272,0.018-0.402l-0.823,1.062l0.12-0.04
		C4.101,11.067,4.329,10.994,4.556,10.923z M22.058,10.43c-0.907-0.375-1.822-0.697-2.744-0.967c-0.02,0.055-0.04,0.108-0.063,0.162
		l1.314,1.694l-0.502,1.828c0.422,0.15,0.843,0.31,1.26,0.482c-0.186-0.66-0.387-1.32-0.6-1.98c0.433-0.418,0.88-0.826,1.336-1.22
		L22.058,10.43z"/>
	<path style="fill:#001F5B;" d="M20.063,11.146l0.12,0.04l-1.034-1.332c-0.147,0.303-0.327,0.584-0.54,0.84
		c0.488,0.135,0.972,0.286,1.453,0.452H20.063z M3.372,11.32l1.25-1.612c0.01-0.08,0.022-0.16,0.036-0.237
		c-0.912,0.27-1.818,0.59-2.716,0.96c0.457,0.395,0.902,0.803,1.337,1.222c-0.215,0.658-0.416,1.317-0.603,1.98
		c0.4-0.166,0.8-0.32,1.204-0.462L3.372,11.32L3.372,11.32z M7.115,11.94c-0.03-0.07-0.086-0.1-0.155-0.086
		c-0.048,0.01-0.08,0.04-0.09,0.085c-0.008,0.026-0.008,0.058,0,0.095c0.02,0.09,0.08,0.133,0.16,0.115
		c0.08-0.018,0.118-0.08,0.098-0.17c-0.003-0.015-0.008-0.03-0.013-0.04L7.115,11.94z M16.91,12.148
		c-0.01,0.042-0.015,0.08-0.02,0.113c-0.014,0.124,0.01,0.192,0.083,0.208c0.073,0.017,0.125-0.035,0.165-0.154
		c0.01-0.03,0.02-0.066,0.03-0.107c0.045-0.196,0.03-0.298-0.063-0.32c-0.092-0.02-0.15,0.065-0.194,0.26H16.91z M6.08,12.067
		c-0.075,0.02-0.107,0.087-0.08,0.184c0.023,0.09,0.084,0.13,0.165,0.11c0.08-0.02,0.113-0.086,0.09-0.173
		c-0.025-0.097-0.093-0.14-0.174-0.12L6.08,12.067z"/>
	<path style="fill:#001F5B;" d="M17.896,11.09c-0.145-0.038-0.29-0.073-0.436-0.107c-0.283-0.066-0.567-0.126-0.85-0.182
		l-0.093-0.017c-0.113-0.022-0.226-0.042-0.34-0.062c-0.005,0-0.012,0-0.018-0.002l-0.103-0.018l-0.097-0.017l-0.015-0.002
		l-0.387-0.06c-0.038-0.127-0.088-0.25-0.15-0.37c-0.045-0.083-0.095-0.165-0.15-0.244c-0.037-0.05-0.076-0.1-0.117-0.15
		c-0.063-0.076-0.133-0.15-0.208-0.22c-0.122-0.114-0.257-0.22-0.406-0.312l-0.025-0.016l0.018-0.015l0.025-0.022l0.035-0.03
		l0.035-0.03l0.178-0.156c0.116,0.05,0.254,0.08,0.423,0.08c0.393,0,0.68-0.136,0.86-0.404c0.06-0.093,0.11-0.2,0.146-0.325
		c0.02-0.067,0.034-0.14,0.046-0.216c0.02-0.12,0.03-0.25,0.03-0.392c0-0.825-0.39-1.298-1.07-1.298c-0.37,0-0.64,0.155-0.834,0.473
		l-0.082,0.133l-1.884-0.114l0.03-0.275L13,1.8h5.123v2H14.61l-0.116,0.974c0.303-0.132,0.652-0.2,1.043-0.2
		c1.76,0,2.943,1.26,2.943,3.138c0,0.325-0.033,0.63-0.096,0.916c-0.016,0.073-0.035,0.144-0.055,0.214
		c-0.033,0.113-0.07,0.222-0.112,0.327c-0.195,0.49-0.494,0.9-0.88,1.21c0.22,0.05,0.44,0.1,0.66,0.156
		c0.33-0.34,0.59-0.75,0.77-1.223c0.04-0.106,0.074-0.216,0.106-0.328c0.02-0.07,0.038-0.143,0.055-0.215
		c0.074-0.33,0.114-0.685,0.114-1.058c0-1.553-0.732-2.772-1.9-3.345h1.543v-3.13h-6.194l-0.213,1.93
		C11.803,1.817,10.58,0.98,8.945,0.98c-2.27,0-3.68,1.514-3.68,3.952v0.83h2.938l-0.16,0.11c-0.163,0.113-0.33,0.23-0.513,0.36
		L7.523,6.238c-0.932,0.684-1.662,1.406-2.06,2.424C5.43,8.742,5.4,8.827,5.373,8.912c-0.04,0.125-0.076,0.253-0.106,0.385
		c-0.086,0.37-0.134,0.78-0.14,1.234l-0.004,0.218c0.19-0.054,0.378-0.106,0.567-0.156v-0.055c0.008-0.532,0.078-0.993,0.205-1.402
		c0.042-0.135,0.09-0.264,0.143-0.388c0.038-0.087,0.08-0.172,0.122-0.255c0.374-0.71,0.958-1.257,1.697-1.8l0.004-0.002
		c0.18-0.13,0.346-0.245,0.508-0.357c0.877-0.608,1.406-0.976,1.406-1.815c0-0.626-0.34-0.985-0.932-0.985
		c-0.665,0-1.002,0.445-1.002,1.323v0.34H5.83V4.933c0-2.12,1.164-3.388,3.115-3.388c1.816,0,2.99,1.158,2.99,2.95
		c0,1.443-0.7,2.233-1.993,3.187c-0.13,0.095-0.254,0.184-0.373,0.267l-0.288,0.2l-0.085,0.06C8.983,8.359,8.79,8.495,8.63,8.624
		c-0.07,0.058-0.135,0.114-0.19,0.17h3.414v0.084c-0.198,0.032-0.39,0.078-0.577,0.135l-0.134,0.043
		c-0.04,0.013-0.08,0.028-0.118,0.043c-0.152,0.057-0.3,0.12-0.44,0.19c-0.203,0.102-0.395,0.217-0.572,0.345
		c-0.097,0.07-0.19,0.144-0.28,0.22L9.695,9.889c-0.088,0.08-0.17,0.16-0.248,0.245c-0.107,0.117-0.203,0.24-0.287,0.367
		l-0.01,0.013l-0.247,0.03c-0.105,0.013-0.21,0.028-0.313,0.043c-0.212,0.03-0.424,0.062-0.635,0.098
		c-0.073,0.012-0.145,0.026-0.218,0.04l-0.338,0.06l-0.11,0.023c-0.73,0.143-1.455,0.32-2.174,0.533
		c-0.116,0.033-0.23,0.07-0.346,0.105c-0.074,0.023-0.148,0.045-0.222,0.07c-0.164,0.052-0.327,0.106-0.49,0.162l0.358,1.306
		l0.09,0.332l0.06,0.213l0.197,0.72c1.273-0.438,2.57-0.757,3.878-0.958l0.248-0.037c0.135-0.02,0.27-0.037,0.404-0.054
		c0.052,0.057,0.107,0.11,0.166,0.163l0.073,0.073l-0.063,0.09l-0.17,0.244l-0.88,1.25l1.863-1.157
		c0.09,0.035,0.18,0.067,0.275,0.096c0.08,0.023,0.143,0.042,0.198,0.052c0.302,0.073,0.62,0.11,0.947,0.11
		c0.708,0,1.394-0.167,1.99-0.45c0.123-0.058,0.242-0.122,0.356-0.19c0.156-0.092,0.303-0.192,0.44-0.3l0.467,0.06
		c0.092,0.013,0.184,0.025,0.276,0.04c1.33,0.2,2.648,0.52,3.942,0.967l0.203-0.74l0.06-0.212l0.09-0.332l0.354-1.287
		c-0.57-0.197-1.145-0.37-1.722-0.523l-0.262-0.068L17.896,11.09z M17.926,12.5l-0.082,0.308l-0.164-0.044l0.08-0.305l0.07-0.263
		l-0.197-0.053l0.03-0.116c0.006,0,0.01,0.002,0.014,0.003c0.14,0.038,0.214,0.017,0.255-0.088l0.133,0.035l-0.14,0.524L17.926,12.5
		z M17.342,12.248l-0.03,0.106c-0.072,0.21-0.194,0.294-0.37,0.254c-0.174-0.04-0.247-0.166-0.224-0.38
		c0.004-0.038,0.01-0.076,0.02-0.118c0.014-0.065,0.032-0.122,0.054-0.17c0.074-0.163,0.188-0.227,0.344-0.19
		c0.026,0.005,0.05,0.013,0.072,0.023C17.355,11.84,17.398,11.998,17.342,12.248z M16.51,11.881c-0.015,0.08-0.05,0.13-0.104,0.17
		c-0.04,0.03-0.088,0.054-0.148,0.08l-0.01,0.004c-0.11,0.046-0.185,0.068-0.212,0.113l0.382,0.072l-0.027,0.143l-0.49-0.092
		l-0.09-0.016l-0.01-0.002c0.008-0.04,0.02-0.076,0.035-0.107c0.02-0.04,0.046-0.073,0.078-0.102c0.03-0.027,0.066-0.05,0.108-0.073
		l0.062-0.03c0.067-0.027,0.124-0.047,0.167-0.072c0.045-0.027,0.077-0.06,0.088-0.117v-0.01c0.006-0.043-0.007-0.08-0.036-0.103
		c-0.017-0.014-0.04-0.025-0.067-0.03c-0.083-0.016-0.143,0.028-0.162,0.128v0.007l-0.06-0.01l-0.082-0.017l-0.014-0.003
		c0.01-0.046,0.023-0.086,0.042-0.12v-0.003c0.06-0.107,0.17-0.15,0.314-0.123c0.023,0.004,0.044,0.01,0.063,0.017
		c0.104,0.038,0.165,0.114,0.176,0.21c0.005,0.028,0.005,0.057,0,0.087L16.51,11.881z M12.19,8.404
		c-0.005-0.064-0.01-0.13-0.013-0.196L12.171,8.06l-0.004-0.128h2.095v0.003l0.018,0.223v0.017c0.007,0.084,0.02,0.17,0.04,0.257
		l-0.214,0.05l-0.02,0.005l-0.02,0.005l-0.043,0.01l-1.35,0.315h-0.105l-0.043,0.002H12.48c-0.075,0.002-0.15,0.006-0.223,0.012
		c-0.028-0.14-0.05-0.28-0.063-0.43L12.19,8.404z M8.23,12.338l-0.148,0.027l-0.41,0.074c-0.027-0.166,0.026-0.267,0.154-0.39
		c0.044-0.043,0.083-0.077,0.113-0.11c0.016-0.017,0.03-0.036,0.04-0.055c0.018-0.03,0.025-0.064,0.017-0.105
		c-0.004-0.024-0.014-0.044-0.027-0.06c-0.008-0.01-0.018-0.02-0.03-0.025c-0.024-0.014-0.055-0.02-0.09-0.012
		c-0.033,0.007-0.06,0.02-0.077,0.04c-0.03,0.03-0.04,0.077-0.03,0.14c0.002,0,0.002,0.004,0.002,0.006l-0.115,0.02l-0.04,0.006
		c-0.012-0.064-0.008-0.12,0.006-0.17c0,0,0-0.003,0.002-0.005c0.03-0.095,0.112-0.16,0.237-0.18
		c0.025-0.006,0.05-0.007,0.072-0.007c0.13,0,0.222,0.07,0.254,0.187c0.003,0.01,0.007,0.017,0.008,0.027
		c0.014,0.077,0,0.136-0.036,0.194c-0.026,0.042-0.063,0.083-0.11,0.13c0,0-0.002,0-0.002,0.002
		c-0.088,0.086-0.155,0.134-0.164,0.187l0.196-0.035l0.153-0.028l0.034-0.006l0.025,0.144l-0.035,0.005L8.23,12.338z M6.253,12.794
		c-0.147,0.04-0.264-0.018-0.306-0.147l0.168-0.044c0.02,0.052,0.062,0.07,0.124,0.053c0.075-0.02,0.1-0.09,0.082-0.214
		l-0.007-0.037c-0.01,0.02-0.027,0.036-0.045,0.05c-0.026,0.022-0.058,0.04-0.097,0.05c-0.045,0.01-0.088,0.013-0.127,0.007
		c-0.103-0.016-0.182-0.088-0.214-0.208c-0.044-0.17,0.035-0.312,0.198-0.363l0.016-0.007c0.07-0.02,0.135-0.016,0.19,0.006
		c0.105,0.04,0.182,0.148,0.227,0.322c0.013,0.05,0.02,0.095,0.024,0.14c0.02,0.208-0.06,0.345-0.234,0.39L6.253,12.794z
		 M7.186,12.247l-0.007-0.048c-0.018,0.026-0.04,0.047-0.068,0.063c-0.022,0.014-0.048,0.025-0.078,0.03
		c-0.034,0.01-0.065,0.01-0.095,0.008c-0.12-0.008-0.21-0.087-0.24-0.22c-0.01-0.05-0.01-0.097,0-0.14
		c0.02-0.11,0.103-0.192,0.23-0.22h0.006c0.05-0.01,0.098-0.01,0.14,0c0.096,0.022,0.17,0.097,0.22,0.22
		c0.014,0.037,0.027,0.078,0.038,0.124c0.012,0.054,0.017,0.103,0.02,0.15c0.008,0.204-0.078,0.335-0.252,0.373
		c-0.15,0.033-0.263-0.03-0.3-0.16l0.168-0.036c0.02,0.05,0.06,0.07,0.122,0.056c0.075-0.015,0.106-0.083,0.094-0.2L7.186,12.247z
		 M5.268,12.437l-0.196,0.058L5.037,12.38l0.013-0.005c0.14-0.042,0.19-0.098,0.17-0.21l0.132-0.04l0.158,0.526l0.09,0.297
		l-0.163,0.05l-0.09-0.3l-0.08-0.262L5.268,12.437z M9.096,14.379l0.568-0.65l0.213-0.244l0.09-0.104
		c-0.107-0.067-0.208-0.14-0.3-0.22c-0.362-0.315-0.594-0.73-0.63-1.222c-0.002-0.043-0.004-0.086-0.004-0.13l0.003-0.09
		c0.002-0.036,0.005-0.072,0.01-0.107c0.007-0.073,0.02-0.147,0.037-0.22c0-0.006,0.003-0.01,0.004-0.017
		c0.047-0.194,0.124-0.383,0.23-0.565c0.042-0.075,0.09-0.15,0.142-0.22l0.03-0.044l0.033-0.043l0.024-0.03
		c0.107-0.133,0.23-0.26,0.364-0.38c0.094-0.082,0.193-0.16,0.297-0.235l0.012-0.01c0.106-0.075,0.22-0.145,0.34-0.21
		c0.25-0.14,0.522-0.257,0.812-0.345l0.173-0.05l0.043-0.01c0.014-0.002,0.028-0.006,0.043-0.01
		c0.074-0.016,0.147-0.032,0.222-0.045c0.156-0.028,0.315-0.047,0.476-0.058c0.075-0.005,0.15-0.008,0.227-0.01h0.147l1.394-0.366
		l0.043-0.01l0.04-0.01l0.216-0.058L14.8,8.559l0.26-0.068l-0.108,0.086l-0.4,0.317L14.38,9.031l-0.034,0.027l-0.035,0.028
		l-0.262,0.21l-0.434,0.343l-0.24,0.19l-0.04,0.03l-0.166,0.133l-0.032,0.025l-0.024,0.02l-0.013,0.01l-0.067,0.052l0.105-0.014
		l0.06-0.007l0.05-0.007l0.147-0.02l0.68-0.09l-0.154,0.127l-0.313,0.258l-0.033,0.028l-0.035,0.032l-0.175,0.143l-0.45,0.37
		l-0.495,0.407l-0.065,0.053l-0.028,0.023l-0.268,0.22l-0.123,0.1l-0.096,0.08l0.403-0.08l0.506-0.098l0.013-0.003l0.087-0.017
		l-0.027,0.02l-0.06,0.044l-0.074,0.054l-0.3,0.22l-1.523,1.13l-0.508,0.375l-0.338,0.25l-0.926,0.688L9.096,14.379z M14.058,13.139
		c-0.17,0.112-0.352,0.212-0.545,0.3c-0.16,0.073-0.327,0.137-0.5,0.19c-0.41,0.13-0.855,0.203-1.314,0.203
		c-0.41,0-0.8-0.062-1.15-0.18h-0.008l0.32-0.238l0.238-0.176c0.16,0.024,0.327,0.036,0.497,0.036c0.442,0,0.872-0.078,1.265-0.216
		c0.588-0.205,1.093-0.543,1.43-0.95c0.053-0.066,0.103-0.132,0.147-0.2c0.06-0.092,0.112-0.187,0.155-0.284l0.016-0.038
		c0.026-0.06,0.048-0.12,0.066-0.183c0.035-0.12,0.055-0.244,0.06-0.37v-0.05c0-0.058-0.003-0.116-0.01-0.172l-0.007-0.044
		l-0.01-0.044c-0.014-0.075-0.035-0.15-0.062-0.22c-0.05-0.13-0.12-0.254-0.207-0.37c-0.065-0.086-0.142-0.167-0.23-0.243
		c-0.01-0.01-0.024-0.02-0.036-0.03c-0.064-0.054-0.132-0.103-0.205-0.15l0.09-0.072l0.18-0.142c0.08,0.044,0.156,0.092,0.23,0.142
		c0.098,0.07,0.19,0.143,0.272,0.22c0.034,0.033,0.066,0.065,0.097,0.098c0.073,0.078,0.14,0.16,0.197,0.246
		c0.082,0.12,0.148,0.244,0.198,0.373c0.023,0.06,0.04,0.118,0.057,0.178l0.012,0.043l0.008,0.042
		c0.015,0.073,0.025,0.147,0.03,0.22c0.002,0.032,0.004,0.064,0.004,0.096c0,0.085-0.007,0.168-0.02,0.252
		c-0.01,0.074-0.027,0.147-0.047,0.22c-0.034,0.117-0.078,0.232-0.133,0.344c-0.036,0.074-0.077,0.147-0.122,0.218
		c-0.225,0.36-0.558,0.687-0.967,0.955L14.058,13.139z M18.418,12.103l0.584,0.176l-0.037,0.123
		c-0.136,0.082-0.246,0.18-0.333,0.292c-0.068,0.088-0.123,0.185-0.164,0.295l-0.17-0.052c0.036-0.104,0.093-0.2,0.166-0.29
		c0.083-0.103,0.19-0.197,0.318-0.28l-0.404-0.123L18.418,12.103L18.418,12.103z"/>
	<path style="fill:#001F5B;" d="M10.09,12.563l0.646-0.625l0.23-0.22l0.105-0.103l0.23-0.22l0.02-0.022l0.505-0.488l-0.88,0.14
		l0.193-0.217l0.198-0.22l0.038-0.044l0.038-0.043l0.134-0.15l0.003-0.002l0.042-0.048l0.043-0.048l0.22-0.247h0.002l0.134-0.15
		l0.065-0.073l0.134-0.15l0.234-0.263l0.053-0.06H12.4c-0.182,0.003-0.365,0.02-0.544,0.047c-0.074,0.012-0.148,0.027-0.22,0.043
		l-0.044,0.01c-0.014,0.002-0.028,0.006-0.043,0.01c-0.22,0.052-0.433,0.124-0.634,0.212c-0.13,0.057-0.257,0.12-0.378,0.19
		l-0.05,0.03c-0.112,0.068-0.218,0.14-0.317,0.217c-0.148,0.115-0.282,0.242-0.398,0.377l-0.044,0.052L9.694,10.54l-0.032,0.043
		c-0.053,0.072-0.1,0.145-0.143,0.22c-0.1,0.18-0.17,0.37-0.2,0.566c0,0.007,0,0.013-0.002,0.018c-0.01,0.07-0.016,0.14-0.016,0.212
		v0.01c0,0.035,0,0.07,0.004,0.104c0.006,0.076,0.018,0.15,0.036,0.22c0.116,0.465,0.473,0.83,0.958,1.06l0.49-0.56L10.09,12.563
		L10.09,12.563z"/>
</g>
<g>
	<path style="fill:#FFFFFF;" d="M2.677,13.63c0.187-0.66,0.388-1.32,0.602-1.98c-0.435-0.418-0.88-0.826-1.338-1.222
		c0.897-0.37,1.804-0.69,2.716-0.958c0.023-0.13,0.05-0.26,0.08-0.382C3.753,9.371,2.777,9.712,1.81,10.11l-0.514,0.213l0.42,0.365
		c0.395,0.342,0.788,0.698,1.17,1.062c-0.19,0.59-0.37,1.19-0.54,1.786l-0.193,0.682l0.655-0.27c0.385-0.16,0.773-0.307,1.164-0.446
		l-0.09-0.333c-0.404,0.142-0.806,0.295-1.205,0.46V13.63z M22.704,10.324l-0.515-0.213c-0.915-0.376-1.84-0.7-2.77-0.975
		c-0.032,0.11-0.068,0.22-0.107,0.328c0.922,0.27,1.837,0.592,2.744,0.966c-0.457,0.395-0.902,0.803-1.337,1.222
		c0.214,0.658,0.415,1.317,0.602,1.98c-0.42-0.174-0.84-0.334-1.26-0.483l-0.092,0.332c0.41,0.145,0.818,0.3,1.222,0.467l0.655,0.27
		l-0.193-0.683c-0.17-0.597-0.35-1.196-0.54-1.786c0.383-0.363,0.775-0.72,1.17-1.06l0.42-0.366L22.704,10.324z M5.126,10.534
		c0.006-0.454,0.054-0.863,0.14-1.235c0.03-0.134,0.066-0.262,0.106-0.385c0.028-0.086,0.058-0.17,0.09-0.25
		c0.4-1.02,1.13-1.74,2.06-2.424L7.53,6.235c0.182-0.13,0.35-0.248,0.512-0.36l0.16-0.113H5.265V4.934
		c0-2.438,1.41-3.953,3.68-3.953c1.637,0,2.86,0.838,3.336,2.18l0.213-1.93h6.194v3.133h-1.543c1.168,0.573,1.9,1.792,1.9,3.345
		c0,0.374-0.04,0.727-0.115,1.058c-0.017,0.073-0.036,0.144-0.056,0.214c-0.032,0.112-0.067,0.222-0.107,0.328
		c-0.178,0.47-0.438,0.883-0.768,1.224c0.125,0.032,0.25,0.065,0.376,0.1c0.254-0.29,0.46-0.617,0.62-0.975
		c0.035-0.077,0.068-0.155,0.098-0.235l0.007-0.02c0.04-0.107,0.075-0.216,0.107-0.328c0.02-0.07,0.038-0.142,0.055-0.214
		c0.083-0.362,0.126-0.747,0.126-1.15c0-1.212-0.423-2.27-1.17-3.002h0.814V0.888h-6.846l-0.13,1.152
		c-0.691-0.894-1.791-1.402-3.111-1.402C7.732,0.638,6.714,1.043,6,1.81C5.294,2.568,4.92,3.65,4.92,4.934v1.173h2.208
		c-0.862,0.656-1.66,1.45-2.065,2.662c-0.027,0.08-0.053,0.163-0.077,0.25C4.958,9.121,4.932,9.227,4.909,9.336
		c-0.006,0.02-0.01,0.043-0.014,0.065C4.87,9.528,4.848,9.661,4.831,9.795c-0.03,0.232-0.047,0.475-0.05,0.733l-0.004,0.323
		c0.115-0.035,0.23-0.068,0.345-0.1l0.003-0.22L5.126,10.534z"/>
	<path style="fill:#FFFFFF;" d="M8.494,6.518C8.332,6.63,8.164,6.746,7.988,6.874C7.322,7.362,6.8,7.839,6.445,8.432
		c-0.05,0.083-0.096,0.17-0.14,0.257c-0.06,0.124-0.114,0.253-0.16,0.39c-0.146,0.417-0.225,0.894-0.233,1.46
		c0.014-0.005,0.03-0.008,0.043-0.01l0.105-0.027c0.406-0.1,0.813-0.19,1.222-0.27l0.338-0.06c0.073-0.014,0.145-0.028,0.218-0.04
		c0.616-0.105,1.235-0.185,1.857-0.242l0.038-0.034c0.088-0.077,0.18-0.15,0.28-0.22c0.176-0.128,0.368-0.244,0.57-0.345
		c0.142-0.07,0.29-0.133,0.44-0.19l0.12-0.042c0.043-0.015,0.088-0.03,0.133-0.043h-3.27C8.056,8.9,8.136,8.79,8.241,8.68
		c0.13-0.136,0.3-0.27,0.5-0.417C8.857,8.179,8.983,8.09,9.119,7.996c0.012-0.01,0.025-0.017,0.038-0.026
		c0.196-0.137,0.42-0.292,0.654-0.465c1.263-0.932,1.904-1.653,1.904-3.01c0-1.657-1.087-2.728-2.768-2.728
		c-1.84,0-2.895,1.154-2.895,3.167v0.043h1.57V4.86c0-0.997,0.434-1.545,1.223-1.545c0.712,0,1.153,0.463,1.153,1.207
		c0,0.954-0.598,1.37-1.502,1.996L8.494,6.518z M16.303,10.17l0.338,0.06l0.282,0.057l0.062,0.013l0.058,0.012
		c0.422-0.293,0.747-0.7,0.954-1.2c0.043-0.104,0.08-0.213,0.114-0.326c0.02-0.07,0.04-0.14,0.055-0.214
		c0.06-0.27,0.09-0.557,0.09-0.863c0-1.746-1.093-2.918-2.72-2.918c-0.53,0-0.972,0.132-1.315,0.393l0.19-1.608h3.49v-1.56h-4.704
		L12.675,6.74l-0.004,0.046l1.52,0.092l0.012-0.022c0.232-0.384,0.576-0.58,1.022-0.58c0.81,0,1.29,0.57,1.29,1.52
		c0,0.154-0.01,0.296-0.033,0.428c-0.01,0.076-0.026,0.148-0.045,0.216c-0.034,0.12-0.078,0.23-0.132,0.327
		c-0.145,0.26-0.362,0.438-0.646,0.524c-0.134,0.042-0.282,0.063-0.444,0.063c-0.15,0-0.286-0.022-0.41-0.062
		c-0.067-0.02-0.13-0.05-0.19-0.082l-0.034,0.03l-0.036,0.03L14.52,9.293l-0.018,0.016l0.025,0.016
		c0.15,0.093,0.284,0.2,0.406,0.312c0.075,0.07,0.145,0.144,0.21,0.22c0.04,0.05,0.08,0.1,0.115,0.15
		c0.276,0.037,0.552,0.078,0.827,0.125c0.073,0.012,0.145,0.026,0.218,0.04V10.17z"/>
	<path style="fill:#FFFFFF;" d="M12.478,8.82l0.045-0.002h0.043l0.045-0.002h0.06l1.352-0.315l0.042-0.01l0.02-0.004l0.02-0.005
		c-0.02-0.09-0.037-0.186-0.044-0.29l-0.003-0.038h-1.66L12.4,8.198c0.002,0.07,0.008,0.14,0.014,0.208
		c0.014,0.145,0.035,0.283,0.064,0.415L12.478,8.82z M19.99,11.355c-0.51-0.176-1.025-0.334-1.543-0.476
		c-0.08-0.023-0.163-0.045-0.244-0.066c-0.132-0.035-0.263-0.068-0.395-0.1c-0.237-0.058-0.474-0.113-0.712-0.164
		c-0.11-0.024-0.22-0.046-0.332-0.068c-0.022-0.004-0.045-0.01-0.067-0.013l-0.072-0.015l-0.032-0.006
		c-0.113-0.023-0.226-0.043-0.34-0.063l-0.217-0.04c-0.21-0.034-0.42-0.066-0.63-0.096c0.064,0.12,0.115,0.244,0.152,0.37
		c0.13,0.02,0.258,0.04,0.387,0.062l0.015,0.002l0.097,0.017l0.102,0.02c0.005,0,0.012,0,0.018,0.002
		c0.113,0.02,0.226,0.04,0.34,0.062l0.09,0.018c0.285,0.056,0.57,0.116,0.852,0.182c0.146,0.034,0.29,0.07,0.436,0.106
		c0.087,0.022,0.175,0.046,0.262,0.07c0.577,0.152,1.152,0.325,1.72,0.52l-0.353,1.288l-0.09,0.332l-0.06,0.213l-0.203,0.738
		c-1.294-0.445-2.613-0.767-3.943-0.967l-0.277-0.04c-0.155-0.02-0.31-0.04-0.467-0.058c-0.138,0.107-0.285,0.207-0.44,0.3
		c-0.115,0.067-0.233,0.13-0.356,0.19c-0.596,0.28-1.282,0.45-1.99,0.45c-0.326,0-0.645-0.038-0.947-0.11
		c-0.054-0.01-0.117-0.03-0.198-0.054c-0.094-0.027-0.186-0.06-0.275-0.095L8.416,15.02l0.88-1.248l0.17-0.242l0.065-0.09
		l-0.072-0.074c-0.06-0.052-0.114-0.106-0.166-0.162c-0.135,0.017-0.27,0.035-0.404,0.054l-0.247,0.037
		c-1.307,0.2-2.604,0.52-3.877,0.958l-0.197-0.72l-0.06-0.212l-0.09-0.33l-0.36-1.307c0.164-0.056,0.328-0.11,0.492-0.163
		l0.222-0.07l0.345-0.104c0.72-0.212,1.444-0.39,2.173-0.534l0.11-0.022c0.113-0.022,0.225-0.042,0.338-0.062l0.218-0.04
		c0.21-0.035,0.423-0.067,0.635-0.097l0.312-0.042l0.248-0.03l0.01-0.013c0.084-0.127,0.18-0.25,0.286-0.367
		c-0.523,0.054-1.044,0.126-1.564,0.214c-0.073,0.012-0.145,0.026-0.218,0.04l-0.338,0.06l-0.262,0.054l-0.207,0.043l-0.192,0.042
		c-0.306,0.068-0.61,0.14-0.915,0.22c-0.21,0.056-0.422,0.115-0.632,0.176c-0.115,0.033-0.23,0.068-0.345,0.103l-0.222,0.07
		c-0.202,0.064-0.404,0.13-0.606,0.2l-0.304,0.1l0.45,1.636l0.09,0.333l0.06,0.213l0.29,1.053l0.345-0.12
		c1.254-0.43,2.533-0.746,3.828-0.944l0.3-0.044l-0.173,0.246l-0.695,0.987c-0.094,0.135-0.08,0.316,0.03,0.435
		c0.068,0.07,0.16,0.108,0.25,0.108c0.063,0,0.126-0.017,0.182-0.052l1.72-1.066c0.046,0.016,0.092,0.03,0.138,0.044
		c0.083,0.025,0.155,0.047,0.226,0.06c0.327,0.078,0.67,0.118,1.02,0.118c0.938,0,1.857-0.275,2.603-0.735
		c0.098-0.06,0.193-0.122,0.284-0.19l0.307,0.04c1.41,0.194,2.803,0.525,4.166,0.995l0.346,0.12l0.295-1.074l0.06-0.213l0.09-0.333
		l0.445-1.616l-0.304-0.103L19.99,11.355z"/>
	<path style="fill:#FFFFFF;" d="M5.05,12.375c-0.005,0-0.008,0.002-0.013,0.004l0.035,0.114l0.196-0.06l0.08,0.264l0.09,0.298
		l0.16-0.05L5.51,12.651l-0.158-0.525l-0.132,0.04C5.24,12.276,5.188,12.333,5.05,12.375L5.05,12.375z M6.238,12.654
		c-0.062,0.016-0.103,0-0.124-0.053l-0.168,0.045c0.043,0.13,0.16,0.186,0.306,0.147c0.174-0.046,0.255-0.183,0.235-0.393
		c-0.004-0.045-0.01-0.09-0.024-0.14c-0.046-0.174-0.123-0.282-0.226-0.323c-0.056-0.022-0.12-0.024-0.19-0.006L6.03,11.938
		c-0.163,0.05-0.242,0.194-0.198,0.363c0.03,0.12,0.11,0.192,0.214,0.208c0.04,0.006,0.082,0.004,0.127-0.008
		c0.04-0.01,0.07-0.027,0.097-0.048c0.018-0.015,0.033-0.03,0.045-0.05l0.007,0.037C6.34,12.563,6.312,12.635,6.238,12.654z
		 M6.165,12.36c-0.08,0.02-0.142-0.02-0.166-0.11c-0.027-0.096,0.006-0.163,0.08-0.183c0.082-0.02,0.15,0.023,0.174,0.12
		c0.024,0.087-0.01,0.152-0.09,0.173L6.165,12.36z M7.093,12.447c-0.062,0.014-0.103-0.005-0.122-0.057l-0.168,0.037
		c0.038,0.13,0.152,0.192,0.3,0.16c0.174-0.04,0.26-0.17,0.252-0.375c-0.002-0.046-0.007-0.095-0.02-0.15
		c-0.01-0.045-0.023-0.086-0.038-0.123c-0.05-0.124-0.123-0.2-0.218-0.222c-0.043-0.01-0.09-0.01-0.14,0H6.93
		c-0.126,0.03-0.208,0.112-0.23,0.22c-0.01,0.044-0.01,0.09,0.002,0.14c0.03,0.134,0.12,0.212,0.238,0.22
		c0.03,0.002,0.06,0,0.094-0.006c0.03-0.007,0.055-0.017,0.078-0.03c0.028-0.016,0.05-0.037,0.067-0.063l0.006,0.047
		c0.012,0.116-0.02,0.184-0.093,0.2L7.093,12.447z M7.031,12.15c-0.08,0.018-0.14-0.024-0.16-0.115c-0.008-0.037-0.008-0.07,0-0.096
		c0.01-0.046,0.042-0.075,0.09-0.086c0.07-0.015,0.126,0.016,0.155,0.085c0.005,0.012,0.01,0.025,0.014,0.04
		c0.018,0.09-0.02,0.152-0.1,0.17L7.031,12.15z M7.94,11.94c-0.03,0.032-0.07,0.065-0.114,0.107c-0.127,0.124-0.18,0.225-0.153,0.39
		l0.41-0.073l0.147-0.027l0.035-0.006l-0.026-0.143l-0.035,0.006l-0.153,0.028l-0.196,0.036c0.01-0.052,0.076-0.1,0.164-0.187
		c0-0.002,0-0.002,0.002-0.003c0.047-0.046,0.084-0.087,0.11-0.13c0.036-0.057,0.05-0.116,0.036-0.193L8.16,11.718
		c-0.03-0.116-0.124-0.187-0.253-0.187c-0.023,0-0.047,0.002-0.072,0.006c-0.125,0.023-0.206,0.086-0.237,0.18
		c0,0.003,0,0.005-0.002,0.007c-0.015,0.05-0.018,0.105-0.006,0.17l0.04-0.008l0.116-0.02v-0.008c-0.012-0.062,0-0.11,0.028-0.14
		c0.018-0.02,0.044-0.032,0.076-0.038c0.036-0.007,0.067-0.002,0.09,0.01c0.012,0.008,0.022,0.016,0.03,0.026
		c0.014,0.016,0.023,0.036,0.028,0.06c0.007,0.04,0,0.074-0.016,0.105C7.97,11.903,7.956,11.921,7.94,11.94L7.94,11.94z
		 M16.338,11.852c-0.01,0.057-0.042,0.09-0.09,0.117c-0.043,0.024-0.1,0.044-0.166,0.072l-0.06,0.03
		c-0.044,0.02-0.08,0.045-0.11,0.072c-0.03,0.03-0.057,0.062-0.077,0.102c-0.015,0.03-0.027,0.066-0.035,0.107l0.01,0.002
		l0.09,0.017l0.49,0.093l0.028-0.144l-0.382-0.07c0.027-0.046,0.103-0.067,0.212-0.114c0.003,0,0.007-0.003,0.01-0.004
		c0.06-0.026,0.11-0.05,0.148-0.08c0.055-0.04,0.09-0.092,0.104-0.17c0.006-0.03,0.006-0.058,0.002-0.086
		c-0.01-0.095-0.072-0.172-0.176-0.21c-0.02-0.007-0.04-0.013-0.063-0.017c-0.144-0.028-0.253,0.015-0.313,0.12v0.004
		c-0.02,0.034-0.034,0.074-0.043,0.12l0.015,0.003l0.082,0.016l0.06,0.01v-0.006c0.02-0.1,0.078-0.144,0.162-0.128
		c0.027,0.004,0.05,0.015,0.067,0.03c0.03,0.023,0.042,0.06,0.037,0.1c0,0.003,0,0.007-0.002,0.012L16.338,11.852z M17.312,12.353
		l0.03-0.106c0.057-0.25,0.013-0.408-0.133-0.476c-0.023-0.01-0.047-0.017-0.073-0.023c-0.156-0.036-0.27,0.028-0.344,0.19
		c-0.022,0.05-0.04,0.105-0.055,0.17c-0.01,0.043-0.015,0.08-0.02,0.118c-0.022,0.215,0.05,0.342,0.224,0.38
		c0.176,0.043,0.298-0.04,0.37-0.252L17.312,12.353z M16.892,12.261c0.004-0.033,0.01-0.07,0.02-0.112
		c0.045-0.196,0.102-0.282,0.194-0.26c0.092,0.02,0.108,0.122,0.063,0.318c-0.01,0.04-0.02,0.076-0.03,0.107
		c-0.042,0.12-0.093,0.17-0.166,0.154c-0.073-0.015-0.097-0.083-0.082-0.206L16.892,12.261z M17.68,12.765l0.165,0.044l0.082-0.308
		l0.14-0.522l-0.134-0.035c-0.04,0.105-0.115,0.126-0.255,0.09l-0.013-0.004l-0.03,0.117l0.197,0.053l-0.07,0.262l-0.08,0.303
		L17.68,12.765z M18.463,12.644c-0.074,0.09-0.13,0.187-0.167,0.29l0.17,0.053c0.043-0.11,0.098-0.207,0.165-0.295
		c0.09-0.113,0.198-0.21,0.334-0.29l0.037-0.124l-0.582-0.176l-0.042,0.14l0.404,0.122c-0.128,0.084-0.234,0.178-0.317,0.28
		L18.463,12.644z M11.7,13.83c0.46,0,0.902-0.073,1.313-0.202c0.173-0.054,0.34-0.118,0.5-0.19c0.194-0.09,0.376-0.19,0.546-0.3
		c0.407-0.267,0.74-0.595,0.965-0.954c0.045-0.072,0.086-0.145,0.122-0.218c0.055-0.112,0.1-0.227,0.132-0.343
		c0.02-0.074,0.036-0.147,0.047-0.22c0.013-0.084,0.02-0.168,0.02-0.252c0-0.03-0.003-0.063-0.005-0.095
		c-0.005-0.074-0.015-0.147-0.03-0.22l-0.008-0.042l-0.012-0.042c-0.016-0.06-0.034-0.12-0.057-0.177
		c-0.05-0.13-0.116-0.255-0.198-0.374c-0.058-0.086-0.124-0.168-0.198-0.247c-0.032-0.033-0.064-0.065-0.098-0.097
		c-0.083-0.078-0.174-0.152-0.273-0.22c-0.073-0.05-0.15-0.1-0.23-0.143l-0.18,0.142l-0.09,0.073
		c0.072,0.046,0.14,0.096,0.204,0.148l0.037,0.03c0.088,0.076,0.164,0.158,0.23,0.245c0.09,0.116,0.16,0.24,0.208,0.37
		c0.027,0.07,0.048,0.145,0.063,0.22l0.01,0.044c0,0.015,0.004,0.03,0.006,0.044c0.007,0.057,0.01,0.114,0.01,0.172v0.05
		c-0.005,0.126-0.025,0.25-0.06,0.37c-0.018,0.063-0.04,0.124-0.065,0.184c-0.004,0.013-0.01,0.025-0.015,0.038
		c-0.043,0.097-0.095,0.192-0.156,0.284c-0.046,0.068-0.095,0.134-0.148,0.2c-0.337,0.407-0.842,0.745-1.43,0.95
		c-0.393,0.137-0.823,0.216-1.265,0.216c-0.17,0-0.336-0.012-0.497-0.036l-0.237,0.176l-0.32,0.237h0.006
		c0.35,0.118,0.742,0.18,1.15,0.18L11.7,13.83z"/>
	<path style="fill:#FFFFFF;" d="M9.664,13.728l-0.568,0.65l0.926-0.685l0.337-0.25l0.507-0.376l1.523-1.128l0.3-0.222l0.073-0.054
		l0.06-0.044l0.027-0.02l-0.087,0.017l-0.014,0.003l-0.507,0.1l-0.402,0.078l0.097-0.08l0.122-0.1l0.267-0.22l0.028-0.023
		l0.065-0.053l0.495-0.407l0.45-0.37l0.174-0.143l0.037-0.03l0.033-0.028l0.314-0.258l0.155-0.128l-0.682,0.09l-0.146,0.02
		l-0.05,0.008l-0.06,0.008l-0.106,0.014l0.066-0.053l0.013-0.01l0.024-0.02l0.03-0.024l0.168-0.13l0.04-0.032l0.24-0.19l0.433-0.344
		l0.264-0.21l0.035-0.027l0.033-0.027l0.172-0.137l0.4-0.317l0.108-0.086l-0.26,0.068l-0.404,0.107L14.178,8.72l-0.042,0.01
		l-0.043,0.012l-1.395,0.367c-0.018,0-0.037,0-0.056-0.002h-0.04H12.55c-0.076,0.002-0.152,0.005-0.227,0.01
		c-0.16,0.01-0.32,0.03-0.475,0.058c-0.075,0.013-0.148,0.03-0.22,0.046l-0.044,0.01l-0.042,0.01
		c-0.058,0.015-0.116,0.03-0.173,0.05c-0.29,0.087-0.563,0.203-0.813,0.343c-0.118,0.066-0.232,0.136-0.34,0.212l-0.012,0.01
		c-0.105,0.073-0.203,0.152-0.296,0.234c-0.135,0.12-0.257,0.247-0.364,0.38L9.52,10.502l-0.033,0.043
		c-0.013,0.014-0.023,0.028-0.033,0.043c-0.052,0.072-0.1,0.146-0.143,0.22c-0.104,0.183-0.18,0.372-0.23,0.566
		c0,0.006-0.002,0.01-0.003,0.017c-0.017,0.074-0.03,0.148-0.038,0.222l-0.01,0.106l-0.002,0.09c0,0.045,0.002,0.088,0.005,0.13
		c0.034,0.494,0.266,0.908,0.627,1.222c0.093,0.08,0.193,0.154,0.302,0.22L9.87,13.486l-0.214,0.243L9.664,13.728z M9.344,11.938
		c-0.018-0.07-0.03-0.144-0.036-0.22c-0.003-0.035-0.004-0.07-0.004-0.105v-0.01c0-0.07,0.006-0.14,0.016-0.21
		c0-0.007,0-0.013,0.002-0.018c0.03-0.196,0.1-0.385,0.2-0.565c0.04-0.076,0.09-0.15,0.142-0.22c0.01-0.015,0.02-0.03,0.032-0.044
		c0.01-0.014,0.022-0.03,0.034-0.043l0.044-0.052c0.116-0.134,0.25-0.26,0.4-0.377c0.098-0.077,0.204-0.15,0.315-0.216l0.05-0.03
		c0.12-0.07,0.247-0.134,0.378-0.19c0.2-0.09,0.414-0.16,0.633-0.214l0.044-0.01l0.043-0.01c0.073-0.015,0.147-0.03,0.22-0.042
		c0.18-0.028,0.363-0.043,0.546-0.045h0.076l-0.054,0.058L12.19,9.638l-0.133,0.15L11.993,9.86l-0.134,0.15h-0.002l-0.22,0.248
		l-0.044,0.048l-0.043,0.048l-0.002,0.003l-0.134,0.15l-0.038,0.043l-0.038,0.043l-0.198,0.222l-0.193,0.216l0.88-0.14l-0.504,0.49
		l-0.022,0.02l-0.227,0.22l-0.106,0.103l-0.23,0.222l-0.645,0.625l0.703-0.127l-0.49,0.562c-0.49-0.234-0.845-0.6-0.96-1.063
		L9.344,11.938z"/>
</g>
</svg>
